SplineFontDB: 3.2
FontName: statusbar
FullName: statusbar
FamilyName: statusbar
Weight: Regular
Copyright: Copyright (c) 2019, grmat
UComments: "2019-10-29: Created with FontForge (http://fontforge.org)"
Version: 0.0.2
ItalicAngle: 0
UnderlinePosition: -100
UnderlineWidth: 50
Ascent: 800
Descent: 200
InvalidEm: 0
LayerCount: 2
Layer: 0 0 "Back" 1
Layer: 1 0 "Fore" 0
XUID: [1021 128 2074564734 2058964]
StyleMap: 0x0000
FSType: 0
OS2Version: 0
OS2_WeightWidthSlopeOnly: 0
OS2_UseTypoMetrics: 1
CreationTime: 1572312906
ModificationTime: 1653142241
OS2TypoAscent: 0
OS2TypoAOffset: 1
OS2TypoDescent: 0
OS2TypoDOffset: 1
OS2TypoLinegap: 90
OS2WinAscent: 0
OS2WinAOffset: 1
OS2WinDescent: 0
OS2WinDOffset: 1
HheadAscent: 0
HheadAOffset: 1
HheadDescent: 0
HheadDOffset: 1
OS2Vendor: 'PfEd'
Lookup: 4 0 1 "'liga' Standard Ligatures in Latin lookup 0" { "'liga' Standard Ligatures in Latin lookup 0-1"  } ['liga' ('DFLT' <'dflt' > 'latn' <'dflt' > ) ]
Lookup: 4 0 1 "'liga' Standard Ligatures lookup 0" { "'liga' Standard Ligatures lookup 0-1"  } ['liga' ('DFLT' <'dflt' > ) ]
MarkAttachClasses: 1
DEI: 91125
LangName: 1033
Encoding: Custom
UnicodeInterp: none
NameList: AGL For New Fonts
DisplaySize: -48
AntiAlias: 1
FitToEm: 0
WinInfo: 0 25 4
BeginPrivate: 0
EndPrivate
BeginChars: 98 98

StartChar: battery_0
Encoding: 38 983216 0
Width: 1000
VWidth: 0
HStem: 81.25 54.6875<91.7125 808.725> 464.062 54.6875<91.7125 808.725>
VStem: 32.25 54.6875<140.713 459.287> 813.5 54.6875<140.713 459.287> 907.25 62.5<260.467 339.533>
LayerCount: 2
Fore
SplineSet
774.4375 518.75 m 2
 826 518.75 868.1875 476.5625 868.1875 425 c 2
 868.1875 175 l 2
 868.1875 123.4375 826 81.25 774.4375 81.25 c 2
 126 81.25 l 2
 74.4375 81.25 32.25 123.4375 32.25 175 c 2
 32.25 425 l 2
 32.25 476.5625 74.4375 518.75 126 518.75 c 2
 774.4375 518.75 l 2
813.5 175 m 2
 813.5 425 l 2
 813.5 446.484375 795.921875 464.0625 774.4375 464.0625 c 2
 126 464.0625 l 2
 104.515625 464.0625 86.9375 446.484375 86.9375 425 c 2
 86.9375 175 l 2
 86.9375 153.515625 104.515625 135.9375 126 135.9375 c 2
 774.4375 135.9375 l 2
 795.921875 135.9375 813.5 153.515625 813.5 175 c 2
907.25 400.390625 m 1
 938.5 400.390625 969.75 346.2890625 969.75 300 c 0
 969.75 253.7109375 938.5 199.609375 907.25 199.609375 c 1
 907.25 400.390625 l 1
EndSplineSet
Validated: 1
Ligature2: "'liga' Standard Ligatures lookup 0-1" b a t t e r y underscore zero
Ligature2: "'liga' Standard Ligatures lookup 0-1" b a t t e r y underscore one
Ligature2: "'liga' Standard Ligatures lookup 0-1" b a t t e r y underscore two
Ligature2: "'liga' Standard Ligatures lookup 0-1" b a t t e r y underscore three
Ligature2: "'liga' Standard Ligatures lookup 0-1" b a t t e r y underscore four
Ligature2: "'liga' Standard Ligatures lookup 0-1" b a t t e r y underscore five
Ligature2: "'liga' Standard Ligatures lookup 0-1" b a t t e r y underscore six
Ligature2: "'liga' Standard Ligatures lookup 0-1" b a t t e r y underscore seven
Ligature2: "'liga' Standard Ligatures lookup 0-1" b a t t e r y underscore eight
Ligature2: "'liga' Standard Ligatures lookup 0-1" b a t t e r y underscore nine
Ligature2: "'liga' Standard Ligatures lookup 0-1" b a t t e r y underscore zero percent
Ligature2: "'liga' Standard Ligatures lookup 0-1" b a t t e r y underscore one percent
Ligature2: "'liga' Standard Ligatures lookup 0-1" b a t t e r y underscore two percent
Ligature2: "'liga' Standard Ligatures lookup 0-1" b a t t e r y underscore three percent
Ligature2: "'liga' Standard Ligatures lookup 0-1" b a t t e r y underscore four percent
Ligature2: "'liga' Standard Ligatures lookup 0-1" b a t t e r y underscore five percent
Ligature2: "'liga' Standard Ligatures lookup 0-1" b a t t e r y underscore six percent
Ligature2: "'liga' Standard Ligatures lookup 0-1" b a t t e r y underscore seven percent
Ligature2: "'liga' Standard Ligatures lookup 0-1" b a t t e r y underscore eight percent
Ligature2: "'liga' Standard Ligatures lookup 0-1" b a t t e r y underscore nine percent
EndChar

StartChar: battery_0_charging
Encoding: 39 983232 1
Width: 1000
VWidth: 0
HStem: 81.25 54.6875<90.7125 807.725> 464.062 54.6875<90.7125 807.725>
VStem: 31.25 54.6875<140.713 459.287> 812.5 54.6875<140.713 459.287> 906.25 62.5<260.467 339.533>
LayerCount: 2
Fore
SplineSet
773.4375 518.75 m 2
 825 518.75 867.1875 476.5625 867.1875 425 c 2
 867.1875 175 l 2
 867.1875 123.4375 825 81.25 773.4375 81.25 c 2
 125 81.25 l 2
 73.4375 81.25 31.25 123.4375 31.25 175 c 2
 31.25 425 l 2
 31.25 476.5625 73.4375 518.75 125 518.75 c 2
 773.4375 518.75 l 2
812.5 175 m 2
 812.5 425 l 2
 812.5 446.484375 794.921875 464.0625 773.4375 464.0625 c 2
 125 464.0625 l 2
 103.515625 464.0625 85.9375 446.484375 85.9375 425 c 2
 85.9375 175 l 2
 85.9375 153.515625 103.515625 135.9375 125 135.9375 c 2
 773.4375 135.9375 l 2
 794.921875 135.9375 812.5 153.515625 812.5 175 c 2
906.25 400.390625 m 1
 937.5 400.390625 968.75 346.2890625 968.75 300 c 0
 968.75 253.7109375 937.5 199.609375 906.25 199.609375 c 1
 906.25 400.390625 l 1
427.34375 198.4375 m 1
 443.75 282.421875 l 1
 390.625 282.421875 l 1
 478.90625 401.5625 l 1
 462.5 317.578125 l 1
 515.625 317.578125 l 1
 427.34375 198.4375 l 1
EndSplineSet
Validated: 1
Ligature2: "'liga' Standard Ligatures lookup 0-1" b a t t e r y underscore zero underscore c h a r g i n g
Ligature2: "'liga' Standard Ligatures lookup 0-1" b a t t e r y underscore one underscore c h a r g i n g
Ligature2: "'liga' Standard Ligatures lookup 0-1" b a t t e r y underscore two underscore c h a r g i n g
Ligature2: "'liga' Standard Ligatures lookup 0-1" b a t t e r y underscore three underscore c h a r g i n g
Ligature2: "'liga' Standard Ligatures lookup 0-1" b a t t e r y underscore four underscore c h a r g i n g
Ligature2: "'liga' Standard Ligatures lookup 0-1" b a t t e r y underscore five underscore c h a r g i n g
Ligature2: "'liga' Standard Ligatures lookup 0-1" b a t t e r y underscore six underscore c h a r g i n g
Ligature2: "'liga' Standard Ligatures lookup 0-1" b a t t e r y underscore seven underscore c h a r g i n g
Ligature2: "'liga' Standard Ligatures lookup 0-1" b a t t e r y underscore eight underscore c h a r g i n g
Ligature2: "'liga' Standard Ligatures lookup 0-1" b a t t e r y underscore nine underscore c h a r g i n g
Ligature2: "'liga' Standard Ligatures lookup 0-1" b a t t e r y underscore zero percent underscore c h a r g i n g
Ligature2: "'liga' Standard Ligatures lookup 0-1" b a t t e r y underscore one percent underscore c h a r g i n g
Ligature2: "'liga' Standard Ligatures lookup 0-1" b a t t e r y underscore two percent underscore c h a r g i n g
Ligature2: "'liga' Standard Ligatures lookup 0-1" b a t t e r y underscore three percent underscore c h a r g i n g
Ligature2: "'liga' Standard Ligatures lookup 0-1" b a t t e r y underscore four percent underscore c h a r g i n g
Ligature2: "'liga' Standard Ligatures lookup 0-1" b a t t e r y underscore five percent underscore c h a r g i n g
Ligature2: "'liga' Standard Ligatures lookup 0-1" b a t t e r y underscore six percent underscore c h a r g i n g
Ligature2: "'liga' Standard Ligatures lookup 0-1" b a t t e r y underscore seven percent underscore c h a r g i n g
Ligature2: "'liga' Standard Ligatures lookup 0-1" b a t t e r y underscore eight percent underscore c h a r g i n g
Ligature2: "'liga' Standard Ligatures lookup 0-1" b a t t e r y underscore nine percent underscore c h a r g i n g
EndChar

StartChar: battery_10
Encoding: 40 983217 2
Width: 1000
VWidth: 0
HStem: 81.25 54.6875<90.7125 807.725> 464.062 54.6875<90.7125 807.725>
VStem: 31.25 54.6875<140.713 459.287> 125 64.8438<175.069 424.931> 812.5 54.6875<140.713 459.287> 906.25 62.5<260.467 339.533>
LayerCount: 2
Fore
SplineSet
773.4375 518.75 m 2
 825 518.75 867.1875 476.5625 867.1875 425 c 2
 867.1875 175 l 2
 867.1875 123.4375 825 81.25 773.4375 81.25 c 2
 125 81.25 l 2
 73.4375 81.25 31.25 123.4375 31.25 175 c 2
 31.25 425 l 2
 31.25 476.5625 73.4375 518.75 125 518.75 c 2
 773.4375 518.75 l 2
812.5 175 m 2
 812.5 425 l 2
 812.5 446.484375 794.921875 464.0625 773.4375 464.0625 c 2
 125 464.0625 l 2
 103.515625 464.0625 85.9375 446.484375 85.9375 425 c 2
 85.9375 175 l 2
 85.9375 153.515625 103.515625 135.9375 125 135.9375 c 2
 773.4375 135.9375 l 2
 794.921875 135.9375 812.5 153.515625 812.5 175 c 2
906.25 400.390625 m 1
 937.5 400.390625 968.75 346.2890625 968.75 300 c 0
 968.75 253.7109375 937.5 199.609375 906.25 199.609375 c 1
 906.25 400.390625 l 1
166.40625 425 m 2
 179.296875 425 189.84375 414.453125 189.84375 401.5625 c 2
 189.84375 198.4375 l 2
 189.84375 185.546875 179.296875 175 166.40625 175 c 2
 148.4375 175 l 2
 135.546875 175 125 185.546875 125 198.4375 c 2
 125 401.5625 l 2
 125 414.453125 135.546875 425 148.4375 425 c 2
 166.40625 425 l 2
EndSplineSet
Validated: 1
Ligature2: "'liga' Standard Ligatures lookup 0-1" b a t t e r y underscore one zero
Ligature2: "'liga' Standard Ligatures lookup 0-1" b a t t e r y underscore one one
Ligature2: "'liga' Standard Ligatures lookup 0-1" b a t t e r y underscore one two
Ligature2: "'liga' Standard Ligatures lookup 0-1" b a t t e r y underscore one three
Ligature2: "'liga' Standard Ligatures lookup 0-1" b a t t e r y underscore one four
Ligature2: "'liga' Standard Ligatures lookup 0-1" b a t t e r y underscore one five
Ligature2: "'liga' Standard Ligatures lookup 0-1" b a t t e r y underscore one six
Ligature2: "'liga' Standard Ligatures lookup 0-1" b a t t e r y underscore one seven
Ligature2: "'liga' Standard Ligatures lookup 0-1" b a t t e r y underscore one eight
Ligature2: "'liga' Standard Ligatures lookup 0-1" b a t t e r y underscore one nine
Ligature2: "'liga' Standard Ligatures lookup 0-1" b a t t e r y underscore one zero percent
Ligature2: "'liga' Standard Ligatures lookup 0-1" b a t t e r y underscore one one percent
Ligature2: "'liga' Standard Ligatures lookup 0-1" b a t t e r y underscore one two percent
Ligature2: "'liga' Standard Ligatures lookup 0-1" b a t t e r y underscore one three percent
Ligature2: "'liga' Standard Ligatures lookup 0-1" b a t t e r y underscore one four percent
Ligature2: "'liga' Standard Ligatures lookup 0-1" b a t t e r y underscore one five percent
Ligature2: "'liga' Standard Ligatures lookup 0-1" b a t t e r y underscore one six percent
Ligature2: "'liga' Standard Ligatures lookup 0-1" b a t t e r y underscore one seven percent
Ligature2: "'liga' Standard Ligatures lookup 0-1" b a t t e r y underscore one eight percent
Ligature2: "'liga' Standard Ligatures lookup 0-1" b a t t e r y underscore one nine percent
EndChar

StartChar: battery_10_charging
Encoding: 41 983233 3
Width: 1000
VWidth: 0
HStem: 81.25 54.6875<90.7125 807.725> 464.062 54.6875<90.7125 807.725>
VStem: 31.25 54.6875<140.713 459.287> 125 64.8438<175.069 424.931> 812.5 54.6875<140.713 459.287> 906.25 62.5<260.467 339.533>
LayerCount: 2
Fore
SplineSet
773.4375 518.75 m 2
 825 518.75 867.1875 476.5625 867.1875 425 c 2
 867.1875 175 l 2
 867.1875 123.4375 825 81.25 773.4375 81.25 c 2
 125 81.25 l 2
 73.4375 81.25 31.25 123.4375 31.25 175 c 2
 31.25 425 l 2
 31.25 476.5625 73.4375 518.75 125 518.75 c 2
 773.4375 518.75 l 2
812.5 175 m 2
 812.5 425 l 2
 812.5 446.484375 794.921875 464.0625 773.4375 464.0625 c 2
 125 464.0625 l 2
 103.515625 464.0625 85.9375 446.484375 85.9375 425 c 2
 85.9375 175 l 2
 85.9375 153.515625 103.515625 135.9375 125 135.9375 c 2
 773.4375 135.9375 l 2
 794.921875 135.9375 812.5 153.515625 812.5 175 c 2
906.25 400.390625 m 1
 937.5 400.390625 968.75 346.2890625 968.75 300 c 0
 968.75 253.7109375 937.5 199.609375 906.25 199.609375 c 1
 906.25 400.390625 l 1
166.40625 425 m 2
 179.296875 425 189.84375 414.453125 189.84375 401.5625 c 2
 189.84375 198.4375 l 2
 189.84375 185.546875 179.296875 175 166.40625 175 c 2
 148.4375 175 l 2
 135.546875 175 125 185.546875 125 198.4375 c 2
 125 401.5625 l 2
 125 414.453125 135.546875 425 148.4375 425 c 2
 166.40625 425 l 2
427.34375 198.4375 m 1
 443.75 282.421875 l 1
 390.625 282.421875 l 1
 478.90625 401.5625 l 1
 462.5 317.578125 l 1
 515.625 317.578125 l 1
 427.34375 198.4375 l 1
EndSplineSet
Validated: 1
Ligature2: "'liga' Standard Ligatures lookup 0-1" b a t t e r y underscore one zero underscore c h a r g i n g
Ligature2: "'liga' Standard Ligatures lookup 0-1" b a t t e r y underscore one one underscore c h a r g i n g
Ligature2: "'liga' Standard Ligatures lookup 0-1" b a t t e r y underscore one two underscore c h a r g i n g
Ligature2: "'liga' Standard Ligatures lookup 0-1" b a t t e r y underscore one three underscore c h a r g i n g
Ligature2: "'liga' Standard Ligatures lookup 0-1" b a t t e r y underscore one four underscore c h a r g i n g
Ligature2: "'liga' Standard Ligatures lookup 0-1" b a t t e r y underscore one five underscore c h a r g i n g
Ligature2: "'liga' Standard Ligatures lookup 0-1" b a t t e r y underscore one six underscore c h a r g i n g
Ligature2: "'liga' Standard Ligatures lookup 0-1" b a t t e r y underscore one seven underscore c h a r g i n g
Ligature2: "'liga' Standard Ligatures lookup 0-1" b a t t e r y underscore one eight underscore c h a r g i n g
Ligature2: "'liga' Standard Ligatures lookup 0-1" b a t t e r y underscore one nine underscore c h a r g i n g
Ligature2: "'liga' Standard Ligatures lookup 0-1" b a t t e r y underscore one zero percent underscore c h a r g i n g
Ligature2: "'liga' Standard Ligatures lookup 0-1" b a t t e r y underscore one one percent underscore c h a r g i n g
Ligature2: "'liga' Standard Ligatures lookup 0-1" b a t t e r y underscore one two percent underscore c h a r g i n g
Ligature2: "'liga' Standard Ligatures lookup 0-1" b a t t e r y underscore one three percent underscore c h a r g i n g
Ligature2: "'liga' Standard Ligatures lookup 0-1" b a t t e r y underscore one four percent underscore c h a r g i n g
Ligature2: "'liga' Standard Ligatures lookup 0-1" b a t t e r y underscore one five percent underscore c h a r g i n g
Ligature2: "'liga' Standard Ligatures lookup 0-1" b a t t e r y underscore one six percent underscore c h a r g i n g
Ligature2: "'liga' Standard Ligatures lookup 0-1" b a t t e r y underscore one seven percent underscore c h a r g i n g
Ligature2: "'liga' Standard Ligatures lookup 0-1" b a t t e r y underscore one eight percent underscore c h a r g i n g
Ligature2: "'liga' Standard Ligatures lookup 0-1" b a t t e r y underscore one nine percent underscore c h a r g i n g
EndChar

StartChar: battery_50
Encoding: 42 983221 4
Width: 1000
VWidth: 0
HStem: 81.25 54.6875<90.7125 807.725> 175 250<125.069 449.15> 464.062 54.6875<90.7125 807.725>
VStem: 31.25 54.6875<140.713 459.287> 125 324.219<175.069 424.931> 812.5 54.6875<140.713 459.287> 906.25 62.5<260.467 339.533>
CounterMasks: 1 e0
LayerCount: 2
Fore
SplineSet
773.4375 518.75 m 2
 825 518.75 867.1875 476.5625 867.1875 425 c 2
 867.1875 175 l 2
 867.1875 123.4375 825 81.25 773.4375 81.25 c 2
 125 81.25 l 2
 73.4375 81.25 31.25 123.4375 31.25 175 c 2
 31.25 425 l 2
 31.25 476.5625 73.4375 518.75 125 518.75 c 2
 773.4375 518.75 l 2
812.5 175 m 2
 812.5 425 l 2
 812.5 446.484375 794.921875 464.0625 773.4375 464.0625 c 2
 125 464.0625 l 2
 103.515625 464.0625 85.9375 446.484375 85.9375 425 c 2
 85.9375 175 l 2
 85.9375 153.515625 103.515625 135.9375 125 135.9375 c 2
 773.4375 135.9375 l 2
 794.921875 135.9375 812.5 153.515625 812.5 175 c 2
906.25 400.390625 m 1
 937.5 400.390625 968.75 346.2890625 968.75 300 c 0
 968.75 253.7109375 937.5 199.609375 906.25 199.609375 c 1
 906.25 400.390625 l 1
425.78125 425 m 2
 438.671875 425 449.21875 414.453125 449.21875 401.5625 c 2
 449.21875 198.4375 l 2
 449.21875 185.546875 438.671875 175 425.78125 175 c 2
 148.4375 175 l 2
 135.546875 175 125 185.546875 125 198.4375 c 2
 125 401.5625 l 2
 125 414.453125 135.546875 425 148.4375 425 c 2
 425.78125 425 l 2
EndSplineSet
Validated: 1
Ligature2: "'liga' Standard Ligatures lookup 0-1" b a t t e r y underscore five zero
Ligature2: "'liga' Standard Ligatures lookup 0-1" b a t t e r y underscore five one
Ligature2: "'liga' Standard Ligatures lookup 0-1" b a t t e r y underscore five two
Ligature2: "'liga' Standard Ligatures lookup 0-1" b a t t e r y underscore five three
Ligature2: "'liga' Standard Ligatures lookup 0-1" b a t t e r y underscore five four
Ligature2: "'liga' Standard Ligatures lookup 0-1" b a t t e r y underscore five five
Ligature2: "'liga' Standard Ligatures lookup 0-1" b a t t e r y underscore five six
Ligature2: "'liga' Standard Ligatures lookup 0-1" b a t t e r y underscore five seven
Ligature2: "'liga' Standard Ligatures lookup 0-1" b a t t e r y underscore five eight
Ligature2: "'liga' Standard Ligatures lookup 0-1" b a t t e r y underscore five nine
Ligature2: "'liga' Standard Ligatures lookup 0-1" b a t t e r y underscore five zero percent
Ligature2: "'liga' Standard Ligatures lookup 0-1" b a t t e r y underscore five one percent
Ligature2: "'liga' Standard Ligatures lookup 0-1" b a t t e r y underscore five two percent
Ligature2: "'liga' Standard Ligatures lookup 0-1" b a t t e r y underscore five three percent
Ligature2: "'liga' Standard Ligatures lookup 0-1" b a t t e r y underscore five four percent
Ligature2: "'liga' Standard Ligatures lookup 0-1" b a t t e r y underscore five five percent
Ligature2: "'liga' Standard Ligatures lookup 0-1" b a t t e r y underscore five six percent
Ligature2: "'liga' Standard Ligatures lookup 0-1" b a t t e r y underscore five seven percent
Ligature2: "'liga' Standard Ligatures lookup 0-1" b a t t e r y underscore five eight percent
Ligature2: "'liga' Standard Ligatures lookup 0-1" b a t t e r y underscore five nine percent
EndChar

StartChar: battery_50_charging
Encoding: 43 983237 5
Width: 1000
VWidth: 0
HStem: 81.25 54.6875<90.7125 807.725> 175 250<125.069 390.625 425.781 438.672> 464.062 54.6875<90.7125 807.725>
VStem: 31.25 54.6875<140.713 459.287> 812.5 54.6875<140.713 459.287> 906.25 62.5<260.467 339.533>
CounterMasks: 1 e0
LayerCount: 2
Fore
SplineSet
773.4375 518.75 m 2
 825 518.75 867.1875 476.5625 867.1875 425 c 2
 867.1875 175 l 2
 867.1875 123.4375 825 81.25 773.4375 81.25 c 2
 125 81.25 l 2
 73.4375 81.25 31.25 123.4375 31.25 175 c 2
 31.25 425 l 2
 31.25 476.5625 73.4375 518.75 125 518.75 c 2
 773.4375 518.75 l 2
812.5 175 m 2
 812.5 425 l 2
 812.5 446.484375 794.921875 464.0625 773.4375 464.0625 c 2
 125 464.0625 l 2
 103.515625 464.0625 85.9375 446.484375 85.9375 425 c 2
 85.9375 175 l 2
 85.9375 153.515625 103.515625 135.9375 125 135.9375 c 2
 773.4375 135.9375 l 2
 794.921875 135.9375 812.5 153.515625 812.5 175 c 2
906.25 400.390625 m 1
 937.5 400.390625 968.75 346.2890625 968.75 300 c 0
 968.75 253.7109375 937.5 199.609375 906.25 199.609375 c 1
 906.25 400.390625 l 1
425.78125 425 m 2
 438.671875 425 449.21875 414.453125 449.21875 401.5625 c 2
 449.21875 198.4375 l 2
 449.21875 185.546875 438.671875 175 425.78125 175 c 2
 148.4375 175 l 2
 135.546875 175 125 185.546875 125 198.4375 c 2
 125 401.5625 l 2
 125 414.453125 135.546875 425 148.4375 425 c 2
 425.78125 425 l 2
427.34375 198.4375 m 1
 515.625 317.578125 l 1
 462.5 317.578125 l 1
 478.90625 401.5625 l 1
 390.625 282.421875 l 1
 443.75 282.421875 l 1
 427.34375 198.4375 l 1
EndSplineSet
Validated: 1
Ligature2: "'liga' Standard Ligatures lookup 0-1" b a t t e r y underscore five zero underscore c h a r g i n g
Ligature2: "'liga' Standard Ligatures lookup 0-1" b a t t e r y underscore five one underscore c h a r g i n g
Ligature2: "'liga' Standard Ligatures lookup 0-1" b a t t e r y underscore five two underscore c h a r g i n g
Ligature2: "'liga' Standard Ligatures lookup 0-1" b a t t e r y underscore five three underscore c h a r g i n g
Ligature2: "'liga' Standard Ligatures lookup 0-1" b a t t e r y underscore five four underscore c h a r g i n g
Ligature2: "'liga' Standard Ligatures lookup 0-1" b a t t e r y underscore five five underscore c h a r g i n g
Ligature2: "'liga' Standard Ligatures lookup 0-1" b a t t e r y underscore five six underscore c h a r g i n g
Ligature2: "'liga' Standard Ligatures lookup 0-1" b a t t e r y underscore five seven underscore c h a r g i n g
Ligature2: "'liga' Standard Ligatures lookup 0-1" b a t t e r y underscore five eight underscore c h a r g i n g
Ligature2: "'liga' Standard Ligatures lookup 0-1" b a t t e r y underscore five nine underscore c h a r g i n g
Ligature2: "'liga' Standard Ligatures lookup 0-1" b a t t e r y underscore five zero percent underscore c h a r g i n g
Ligature2: "'liga' Standard Ligatures lookup 0-1" b a t t e r y underscore five one percent underscore c h a r g i n g
Ligature2: "'liga' Standard Ligatures lookup 0-1" b a t t e r y underscore five two percent underscore c h a r g i n g
Ligature2: "'liga' Standard Ligatures lookup 0-1" b a t t e r y underscore five three percent underscore c h a r g i n g
Ligature2: "'liga' Standard Ligatures lookup 0-1" b a t t e r y underscore five four percent underscore c h a r g i n g
Ligature2: "'liga' Standard Ligatures lookup 0-1" b a t t e r y underscore five five percent underscore c h a r g i n g
Ligature2: "'liga' Standard Ligatures lookup 0-1" b a t t e r y underscore five six percent underscore c h a r g i n g
Ligature2: "'liga' Standard Ligatures lookup 0-1" b a t t e r y underscore five seven percent underscore c h a r g i n g
Ligature2: "'liga' Standard Ligatures lookup 0-1" b a t t e r y underscore five eight percent underscore c h a r g i n g
Ligature2: "'liga' Standard Ligatures lookup 0-1" b a t t e r y underscore five nine percent underscore c h a r g i n g
EndChar

StartChar: battery_30
Encoding: 44 983219 6
Width: 1000
VWidth: 0
HStem: 81.25 54.6875<90.7125 807.725> 175 250<125.069 319.463> 464.062 54.6875<90.7125 807.725>
VStem: 31.25 54.6875<140.713 459.287> 125 194.531<175.069 424.931> 812.5 54.6875<140.713 459.287> 906.25 62.5<260.467 339.533>
CounterMasks: 1 e0
LayerCount: 2
Fore
SplineSet
773.4375 518.75 m 2
 825 518.75 867.1875 476.5625 867.1875 425 c 2
 867.1875 175 l 2
 867.1875 123.4375 825 81.25 773.4375 81.25 c 2
 125 81.25 l 2
 73.4375 81.25 31.25 123.4375 31.25 175 c 2
 31.25 425 l 2
 31.25 476.5625 73.4375 518.75 125 518.75 c 2
 773.4375 518.75 l 2
812.5 175 m 2
 812.5 425 l 2
 812.5 446.484375 794.921875 464.0625 773.4375 464.0625 c 2
 125 464.0625 l 2
 103.515625 464.0625 85.9375 446.484375 85.9375 425 c 2
 85.9375 175 l 2
 85.9375 153.515625 103.515625 135.9375 125 135.9375 c 2
 773.4375 135.9375 l 2
 794.921875 135.9375 812.5 153.515625 812.5 175 c 2
906.25 400.390625 m 1
 937.5 400.390625 968.75 346.2890625 968.75 300 c 0
 968.75 253.7109375 937.5 199.609375 906.25 199.609375 c 1
 906.25 400.390625 l 1
296.09375 425 m 2
 308.984375 425 319.53125 414.453125 319.53125 401.5625 c 2
 319.53125 198.4375 l 2
 319.53125 185.546875 308.984375 175 296.09375 175 c 2
 148.4375 175 l 2
 135.546875 175 125 185.546875 125 198.4375 c 2
 125 401.5625 l 2
 125 414.453125 135.546875 425 148.4375 425 c 2
 296.09375 425 l 2
EndSplineSet
Validated: 1
Ligature2: "'liga' Standard Ligatures lookup 0-1" b a t t e r y underscore three zero
Ligature2: "'liga' Standard Ligatures lookup 0-1" b a t t e r y underscore three one
Ligature2: "'liga' Standard Ligatures lookup 0-1" b a t t e r y underscore three two
Ligature2: "'liga' Standard Ligatures lookup 0-1" b a t t e r y underscore three three
Ligature2: "'liga' Standard Ligatures lookup 0-1" b a t t e r y underscore three four
Ligature2: "'liga' Standard Ligatures lookup 0-1" b a t t e r y underscore three five
Ligature2: "'liga' Standard Ligatures lookup 0-1" b a t t e r y underscore three six
Ligature2: "'liga' Standard Ligatures lookup 0-1" b a t t e r y underscore three seven
Ligature2: "'liga' Standard Ligatures lookup 0-1" b a t t e r y underscore three eight
Ligature2: "'liga' Standard Ligatures lookup 0-1" b a t t e r y underscore three nine
Ligature2: "'liga' Standard Ligatures lookup 0-1" b a t t e r y underscore three zero percent
Ligature2: "'liga' Standard Ligatures lookup 0-1" b a t t e r y underscore three one percent
Ligature2: "'liga' Standard Ligatures lookup 0-1" b a t t e r y underscore three two percent
Ligature2: "'liga' Standard Ligatures lookup 0-1" b a t t e r y underscore three three percent
Ligature2: "'liga' Standard Ligatures lookup 0-1" b a t t e r y underscore three four percent
Ligature2: "'liga' Standard Ligatures lookup 0-1" b a t t e r y underscore three five percent
Ligature2: "'liga' Standard Ligatures lookup 0-1" b a t t e r y underscore three six percent
Ligature2: "'liga' Standard Ligatures lookup 0-1" b a t t e r y underscore three seven percent
Ligature2: "'liga' Standard Ligatures lookup 0-1" b a t t e r y underscore three eight percent
Ligature2: "'liga' Standard Ligatures lookup 0-1" b a t t e r y underscore three nine percent
EndChar

StartChar: battery_30_charging
Encoding: 45 983235 7
Width: 1000
VWidth: 0
HStem: 81.25 54.6875<90.7125 807.725> 175 250<125.069 319.463> 464.062 54.6875<90.7125 807.725>
VStem: 31.25 54.6875<140.713 459.287> 125 194.531<175.069 424.931> 812.5 54.6875<140.713 459.287> 906.25 62.5<260.467 339.533>
CounterMasks: 1 e0
LayerCount: 2
Fore
SplineSet
773.4375 518.75 m 2
 825 518.75 867.1875 476.5625 867.1875 425 c 2
 867.1875 175 l 2
 867.1875 123.4375 825 81.25 773.4375 81.25 c 2
 125 81.25 l 2
 73.4375 81.25 31.25 123.4375 31.25 175 c 2
 31.25 425 l 2
 31.25 476.5625 73.4375 518.75 125 518.75 c 2
 773.4375 518.75 l 2
812.5 175 m 2
 812.5 425 l 2
 812.5 446.484375 794.921875 464.0625 773.4375 464.0625 c 2
 125 464.0625 l 2
 103.515625 464.0625 85.9375 446.484375 85.9375 425 c 2
 85.9375 175 l 2
 85.9375 153.515625 103.515625 135.9375 125 135.9375 c 2
 773.4375 135.9375 l 2
 794.921875 135.9375 812.5 153.515625 812.5 175 c 2
906.25 400.390625 m 1
 937.5 400.390625 968.75 346.2890625 968.75 300 c 0
 968.75 253.7109375 937.5 199.609375 906.25 199.609375 c 1
 906.25 400.390625 l 1
296.09375 425 m 2
 308.984375 425 319.53125 414.453125 319.53125 401.5625 c 2
 319.53125 198.4375 l 2
 319.53125 185.546875 308.984375 175 296.09375 175 c 2
 148.4375 175 l 2
 135.546875 175 125 185.546875 125 198.4375 c 2
 125 401.5625 l 2
 125 414.453125 135.546875 425 148.4375 425 c 2
 296.09375 425 l 2
427.34375 198.4375 m 1
 443.75 282.421875 l 1
 390.625 282.421875 l 1
 478.90625 401.5625 l 1
 462.5 317.578125 l 1
 515.625 317.578125 l 1
 427.34375 198.4375 l 1
EndSplineSet
Validated: 1
Ligature2: "'liga' Standard Ligatures lookup 0-1" b a t t e r y underscore three zero underscore c h a r g i n g
Ligature2: "'liga' Standard Ligatures lookup 0-1" b a t t e r y underscore three one underscore c h a r g i n g
Ligature2: "'liga' Standard Ligatures lookup 0-1" b a t t e r y underscore three two underscore c h a r g i n g
Ligature2: "'liga' Standard Ligatures lookup 0-1" b a t t e r y underscore three three underscore c h a r g i n g
Ligature2: "'liga' Standard Ligatures lookup 0-1" b a t t e r y underscore three four underscore c h a r g i n g
Ligature2: "'liga' Standard Ligatures lookup 0-1" b a t t e r y underscore three five underscore c h a r g i n g
Ligature2: "'liga' Standard Ligatures lookup 0-1" b a t t e r y underscore three six underscore c h a r g i n g
Ligature2: "'liga' Standard Ligatures lookup 0-1" b a t t e r y underscore three seven underscore c h a r g i n g
Ligature2: "'liga' Standard Ligatures lookup 0-1" b a t t e r y underscore three eight underscore c h a r g i n g
Ligature2: "'liga' Standard Ligatures lookup 0-1" b a t t e r y underscore three nine underscore c h a r g i n g
Ligature2: "'liga' Standard Ligatures lookup 0-1" b a t t e r y underscore three zero percent underscore c h a r g i n g
Ligature2: "'liga' Standard Ligatures lookup 0-1" b a t t e r y underscore three one percent underscore c h a r g i n g
Ligature2: "'liga' Standard Ligatures lookup 0-1" b a t t e r y underscore three two percent underscore c h a r g i n g
Ligature2: "'liga' Standard Ligatures lookup 0-1" b a t t e r y underscore three three percent underscore c h a r g i n g
Ligature2: "'liga' Standard Ligatures lookup 0-1" b a t t e r y underscore three four percent underscore c h a r g i n g
Ligature2: "'liga' Standard Ligatures lookup 0-1" b a t t e r y underscore three five percent underscore c h a r g i n g
Ligature2: "'liga' Standard Ligatures lookup 0-1" b a t t e r y underscore three six percent underscore c h a r g i n g
Ligature2: "'liga' Standard Ligatures lookup 0-1" b a t t e r y underscore three seven percent underscore c h a r g i n g
Ligature2: "'liga' Standard Ligatures lookup 0-1" b a t t e r y underscore three eight percent underscore c h a r g i n g
Ligature2: "'liga' Standard Ligatures lookup 0-1" b a t t e r y underscore three nine percent underscore c h a r g i n g
EndChar

StartChar: battery_100
Encoding: 46 983226 8
Width: 1000
VWidth: 0
HStem: 81.25 54.6875<90.7125 807.725> 175 250<125.069 773.369> 464.062 54.6875<90.7125 807.725>
VStem: 31.25 54.6875<140.713 459.287> 812.5 54.6875<140.713 459.287> 906.25 62.5<260.467 339.533>
CounterMasks: 1 e0
LayerCount: 2
Fore
SplineSet
773.4375 518.75 m 2
 825 518.75 867.1875 476.5625 867.1875 425 c 2
 867.1875 175 l 2
 867.1875 123.4375 825 81.25 773.4375 81.25 c 2
 125 81.25 l 2
 73.4375 81.25 31.25 123.4375 31.25 175 c 2
 31.25 425 l 2
 31.25 476.5625 73.4375 518.75 125 518.75 c 2
 773.4375 518.75 l 2
812.5 175 m 2
 812.5 425 l 2
 812.5 446.484375 794.921875 464.0625 773.4375 464.0625 c 2
 125 464.0625 l 2
 103.515625 464.0625 85.9375 446.484375 85.9375 425 c 2
 85.9375 175 l 2
 85.9375 153.515625 103.515625 135.9375 125 135.9375 c 2
 773.4375 135.9375 l 2
 794.921875 135.9375 812.5 153.515625 812.5 175 c 2
906.25 400.390625 m 1
 937.5 400.390625 968.75 346.2890625 968.75 300 c 0
 968.75 253.7109375 937.5 199.609375 906.25 199.609375 c 1
 906.25 400.390625 l 1
750 425 m 2
 762.890625 425 773.4375 414.453125 773.4375 401.5625 c 2
 773.4375 198.4375 l 2
 773.4375 185.546875 762.890625 175 750 175 c 2
 148.4375 175 l 2
 135.546875 175 125 185.546875 125 198.4375 c 2
 125 401.5625 l 2
 125 414.453125 135.546875 425 148.4375 425 c 2
 750 425 l 2
EndSplineSet
Validated: 1
Ligature2: "'liga' Standard Ligatures lookup 0-1" b a t t e r y underscore one zero zero
Ligature2: "'liga' Standard Ligatures lookup 0-1" b a t t e r y underscore one zero zero percent
EndChar

StartChar: battery_100_charging
Encoding: 47 983242 9
Width: 1000
VWidth: 0
HStem: 81.25 54.6875<90.7125 807.725> 175 250<125.069 390.625 515.625 773.369> 464.062 54.6875<90.7125 807.725>
VStem: 31.25 54.6875<140.713 459.287> 812.5 54.6875<140.713 459.287> 906.25 62.5<260.467 339.533>
CounterMasks: 1 e0
LayerCount: 2
Fore
SplineSet
773.4375 518.75 m 2
 825 518.75 867.1875 476.5625 867.1875 425 c 2
 867.1875 175 l 2
 867.1875 123.4375 825 81.25 773.4375 81.25 c 2
 125 81.25 l 2
 73.4375 81.25 31.25 123.4375 31.25 175 c 2
 31.25 425 l 2
 31.25 476.5625 73.4375 518.75 125 518.75 c 2
 773.4375 518.75 l 2
812.5 175 m 2
 812.5 425 l 2
 812.5 446.484375 794.921875 464.0625 773.4375 464.0625 c 2
 125 464.0625 l 2
 103.515625 464.0625 85.9375 446.484375 85.9375 425 c 2
 85.9375 175 l 2
 85.9375 153.515625 103.515625 135.9375 125 135.9375 c 2
 773.4375 135.9375 l 2
 794.921875 135.9375 812.5 153.515625 812.5 175 c 2
906.25 400.390625 m 1
 937.5 400.390625 968.75 346.2890625 968.75 300 c 0
 968.75 253.7109375 937.5 199.609375 906.25 199.609375 c 1
 906.25 400.390625 l 1
750 425 m 2
 762.890625 425 773.4375 414.453125 773.4375 401.5625 c 2
 773.4375 198.4375 l 2
 773.4375 185.546875 762.890625 175 750 175 c 2
 148.4375 175 l 2
 135.546875 175 125 185.546875 125 198.4375 c 2
 125 401.5625 l 2
 125 414.453125 135.546875 425 148.4375 425 c 2
 750 425 l 2
427.34375 198.4375 m 1
 515.625 317.578125 l 1
 462.5 317.578125 l 1
 478.90625 401.5625 l 1
 390.625 282.421875 l 1
 443.75 282.421875 l 1
 427.34375 198.4375 l 1
EndSplineSet
Validated: 1
Ligature2: "'liga' Standard Ligatures lookup 0-1" b a t t e r y underscore one zero zero underscore c h a r g i n g
Ligature2: "'liga' Standard Ligatures lookup 0-1" b a t t e r y underscore one zero zero percent underscore c h a r g i n g
Ligature2: "'liga' Standard Ligatures lookup 0-1" b a t t e r y underscore one zero zero underscore f u l l
Ligature2: "'liga' Standard Ligatures lookup 0-1" b a t t e r y underscore one zero zero percent underscore f u l l
EndChar

StartChar: wifi_signal_1
Encoding: 48 983201 10
Width: 1000
VWidth: 0
LayerCount: 2
Fore
SplineSet
500.000976562 166.796875 m 0
 545.704101562 166.796875 587.110351562 147.4609375 616.016601562 116.9921875 c 0
 621.875976562 110.7421875 621.680664062 101.171875 615.625976562 95.1171875 c 2
 511.329101562 -7.8125 l 2
 505.079101562 -14.0625 494.922851562 -14.0625 488.672851562 -7.8125 c 2
 384.375976562 95.1171875 l 2
 378.321289062 101.171875 378.125976562 110.7421875 383.985351562 116.9921875 c 0
 412.891601562 147.65625 454.297851562 166.796875 500.000976562 166.796875 c 0
EndSplineSet
Validated: 1
Ligature2: "'liga' Standard Ligatures lookup 0-1" w i f i underscore s i g n a l underscore zero zero
Ligature2: "'liga' Standard Ligatures lookup 0-1" w i f i underscore s i g n a l underscore zero one
Ligature2: "'liga' Standard Ligatures lookup 0-1" w i f i underscore s i g n a l underscore zero two
Ligature2: "'liga' Standard Ligatures lookup 0-1" w i f i underscore s i g n a l underscore zero three
Ligature2: "'liga' Standard Ligatures lookup 0-1" w i f i underscore s i g n a l underscore zero four
Ligature2: "'liga' Standard Ligatures lookup 0-1" w i f i underscore s i g n a l underscore zero five
Ligature2: "'liga' Standard Ligatures lookup 0-1" w i f i underscore s i g n a l underscore zero six
Ligature2: "'liga' Standard Ligatures lookup 0-1" w i f i underscore s i g n a l underscore zero seven
Ligature2: "'liga' Standard Ligatures lookup 0-1" w i f i underscore s i g n a l underscore zero eight
Ligature2: "'liga' Standard Ligatures lookup 0-1" w i f i underscore s i g n a l underscore zero nine
Ligature2: "'liga' Standard Ligatures lookup 0-1" w i f i underscore s i g n a l underscore one zero
Ligature2: "'liga' Standard Ligatures lookup 0-1" w i f i underscore s i g n a l underscore one one
Ligature2: "'liga' Standard Ligatures lookup 0-1" w i f i underscore s i g n a l underscore one two
Ligature2: "'liga' Standard Ligatures lookup 0-1" w i f i underscore s i g n a l underscore one three
Ligature2: "'liga' Standard Ligatures lookup 0-1" w i f i underscore s i g n a l underscore one four
Ligature2: "'liga' Standard Ligatures lookup 0-1" w i f i underscore s i g n a l underscore one five
Ligature2: "'liga' Standard Ligatures lookup 0-1" w i f i underscore s i g n a l underscore one six
Ligature2: "'liga' Standard Ligatures lookup 0-1" w i f i underscore s i g n a l underscore one seven
Ligature2: "'liga' Standard Ligatures lookup 0-1" w i f i underscore s i g n a l underscore one eight
Ligature2: "'liga' Standard Ligatures lookup 0-1" w i f i underscore s i g n a l underscore one nine
Ligature2: "'liga' Standard Ligatures lookup 0-1" w i f i underscore s i g n a l underscore two zero
Ligature2: "'liga' Standard Ligatures lookup 0-1" w i f i underscore s i g n a l underscore two one
Ligature2: "'liga' Standard Ligatures lookup 0-1" w i f i underscore s i g n a l underscore two two
Ligature2: "'liga' Standard Ligatures lookup 0-1" w i f i underscore s i g n a l underscore two three
Ligature2: "'liga' Standard Ligatures lookup 0-1" w i f i underscore s i g n a l underscore two four
Ligature2: "'liga' Standard Ligatures lookup 0-1" w i f i underscore s i g n a l underscore two five
Ligature2: "'liga' Standard Ligatures lookup 0-1" w i f i underscore s i g n a l underscore two six
Ligature2: "'liga' Standard Ligatures lookup 0-1" w i f i underscore s i g n a l underscore two seven
Ligature2: "'liga' Standard Ligatures lookup 0-1" w i f i underscore s i g n a l underscore two eight
Ligature2: "'liga' Standard Ligatures lookup 0-1" w i f i underscore s i g n a l underscore two nine
Ligature2: "'liga' Standard Ligatures lookup 0-1" w i f i underscore s i g n a l underscore three zero
Ligature2: "'liga' Standard Ligatures lookup 0-1" w i f i underscore s i g n a l underscore three one
Ligature2: "'liga' Standard Ligatures lookup 0-1" w i f i underscore s i g n a l underscore three two
Ligature2: "'liga' Standard Ligatures lookup 0-1" w i f i underscore s i g n a l underscore three three
Ligature2: "'liga' Standard Ligatures lookup 0-1" w i f i underscore b a r underscore one
Ligature2: "'liga' Standard Ligatures lookup 0-1" w i f i underscore s i g n a l underscore zero zero percent
Ligature2: "'liga' Standard Ligatures lookup 0-1" w i f i underscore s i g n a l underscore zero one percent
Ligature2: "'liga' Standard Ligatures lookup 0-1" w i f i underscore s i g n a l underscore zero two percent
Ligature2: "'liga' Standard Ligatures lookup 0-1" w i f i underscore s i g n a l underscore zero three percent
Ligature2: "'liga' Standard Ligatures lookup 0-1" w i f i underscore s i g n a l underscore zero four percent
Ligature2: "'liga' Standard Ligatures lookup 0-1" w i f i underscore s i g n a l underscore zero five percent
Ligature2: "'liga' Standard Ligatures lookup 0-1" w i f i underscore s i g n a l underscore zero six percent
Ligature2: "'liga' Standard Ligatures lookup 0-1" w i f i underscore s i g n a l underscore zero seven percent
Ligature2: "'liga' Standard Ligatures lookup 0-1" w i f i underscore s i g n a l underscore zero eight percent
Ligature2: "'liga' Standard Ligatures lookup 0-1" w i f i underscore s i g n a l underscore zero nine percent
Ligature2: "'liga' Standard Ligatures lookup 0-1" w i f i underscore s i g n a l underscore one zero percent
Ligature2: "'liga' Standard Ligatures lookup 0-1" w i f i underscore s i g n a l underscore one one percent
Ligature2: "'liga' Standard Ligatures lookup 0-1" w i f i underscore s i g n a l underscore one two percent
Ligature2: "'liga' Standard Ligatures lookup 0-1" w i f i underscore s i g n a l underscore one three percent
Ligature2: "'liga' Standard Ligatures lookup 0-1" w i f i underscore s i g n a l underscore one four percent
Ligature2: "'liga' Standard Ligatures lookup 0-1" w i f i underscore s i g n a l underscore one five percent
Ligature2: "'liga' Standard Ligatures lookup 0-1" w i f i underscore s i g n a l underscore one six percent
Ligature2: "'liga' Standard Ligatures lookup 0-1" w i f i underscore s i g n a l underscore one seven percent
Ligature2: "'liga' Standard Ligatures lookup 0-1" w i f i underscore s i g n a l underscore one eight percent
Ligature2: "'liga' Standard Ligatures lookup 0-1" w i f i underscore s i g n a l underscore one nine percent
Ligature2: "'liga' Standard Ligatures lookup 0-1" w i f i underscore s i g n a l underscore two zero percent
Ligature2: "'liga' Standard Ligatures lookup 0-1" w i f i underscore s i g n a l underscore two one percent
Ligature2: "'liga' Standard Ligatures lookup 0-1" w i f i underscore s i g n a l underscore two two percent
Ligature2: "'liga' Standard Ligatures lookup 0-1" w i f i underscore s i g n a l underscore two three percent
Ligature2: "'liga' Standard Ligatures lookup 0-1" w i f i underscore s i g n a l underscore two four percent
Ligature2: "'liga' Standard Ligatures lookup 0-1" w i f i underscore s i g n a l underscore two five percent
Ligature2: "'liga' Standard Ligatures lookup 0-1" w i f i underscore s i g n a l underscore two six percent
Ligature2: "'liga' Standard Ligatures lookup 0-1" w i f i underscore s i g n a l underscore two seven percent
Ligature2: "'liga' Standard Ligatures lookup 0-1" w i f i underscore s i g n a l underscore two eight percent
Ligature2: "'liga' Standard Ligatures lookup 0-1" w i f i underscore s i g n a l underscore two nine percent
Ligature2: "'liga' Standard Ligatures lookup 0-1" w i f i underscore s i g n a l underscore three zero percent
Ligature2: "'liga' Standard Ligatures lookup 0-1" w i f i underscore s i g n a l underscore three one percent
Ligature2: "'liga' Standard Ligatures lookup 0-1" w i f i underscore s i g n a l underscore three two percent
Ligature2: "'liga' Standard Ligatures lookup 0-1" w i f i underscore s i g n a l underscore three three percent
EndChar

StartChar: wifi_signal_2
Encoding: 49 983202 11
Width: 1000
VWidth: 0
HStem: 278.125 109.375<388.58 610.836>
LayerCount: 2
Fore
SplineSet
221.094726562 258.0078125 m 2
 214.649414062 264.453125 214.844726562 274.8046875 221.290039062 280.859375 c 0
 294.532226562 347.0703125 392.383789062 387.5 499.610351562 387.5 c 0
 606.836914062 387.5 704.688476562 347.0703125 777.930664062 280.859375 c 0
 784.766601562 274.8046875 784.961914062 264.453125 778.516601562 258.0078125 c 2
 722.657226562 202.734375 l 2
 716.602539062 196.875 707.032226562 196.484375 700.782226562 202.1484375 c 0
 645.508789062 251.3671875 574.610351562 278.125 499.805664062 278.125 c 0
 425.000976562 278.125 354.102539062 251.171875 298.829101562 202.1484375 c 0
 292.579101562 196.484375 283.008789062 196.875 276.954101562 202.734375 c 2
 221.094726562 258.0078125 l 2
500.000976562 166.796875 m 0
 545.704101562 166.796875 587.110351562 147.4609375 616.016601562 116.9921875 c 0
 621.875976562 110.7421875 621.680664062 101.171875 615.625976562 95.1171875 c 2
 511.329101562 -7.8125 l 2
 505.079101562 -14.0625 494.922851562 -14.0625 488.672851562 -7.8125 c 2
 384.375976562 95.1171875 l 2
 378.321289062 101.171875 378.125976562 110.7421875 383.985351562 116.9921875 c 0
 412.891601562 147.65625 454.297851562 166.796875 500.000976562 166.796875 c 0
EndSplineSet
Validated: 1
Ligature2: "'liga' Standard Ligatures lookup 0-1" w i f i underscore s i g n a l underscore three four
Ligature2: "'liga' Standard Ligatures lookup 0-1" w i f i underscore s i g n a l underscore three five
Ligature2: "'liga' Standard Ligatures lookup 0-1" w i f i underscore s i g n a l underscore three six
Ligature2: "'liga' Standard Ligatures lookup 0-1" w i f i underscore s i g n a l underscore three seven
Ligature2: "'liga' Standard Ligatures lookup 0-1" w i f i underscore s i g n a l underscore three eight
Ligature2: "'liga' Standard Ligatures lookup 0-1" w i f i underscore s i g n a l underscore three nine
Ligature2: "'liga' Standard Ligatures lookup 0-1" w i f i underscore s i g n a l underscore four zero
Ligature2: "'liga' Standard Ligatures lookup 0-1" w i f i underscore s i g n a l underscore four one
Ligature2: "'liga' Standard Ligatures lookup 0-1" w i f i underscore s i g n a l underscore four two
Ligature2: "'liga' Standard Ligatures lookup 0-1" w i f i underscore s i g n a l underscore four three
Ligature2: "'liga' Standard Ligatures lookup 0-1" w i f i underscore s i g n a l underscore four four
Ligature2: "'liga' Standard Ligatures lookup 0-1" w i f i underscore s i g n a l underscore four five
Ligature2: "'liga' Standard Ligatures lookup 0-1" w i f i underscore s i g n a l underscore four six
Ligature2: "'liga' Standard Ligatures lookup 0-1" w i f i underscore s i g n a l underscore four seven
Ligature2: "'liga' Standard Ligatures lookup 0-1" w i f i underscore s i g n a l underscore four eight
Ligature2: "'liga' Standard Ligatures lookup 0-1" w i f i underscore s i g n a l underscore four nine
Ligature2: "'liga' Standard Ligatures lookup 0-1" w i f i underscore s i g n a l underscore five zero
Ligature2: "'liga' Standard Ligatures lookup 0-1" w i f i underscore s i g n a l underscore five one
Ligature2: "'liga' Standard Ligatures lookup 0-1" w i f i underscore s i g n a l underscore five two
Ligature2: "'liga' Standard Ligatures lookup 0-1" w i f i underscore s i g n a l underscore five three
Ligature2: "'liga' Standard Ligatures lookup 0-1" w i f i underscore s i g n a l underscore five four
Ligature2: "'liga' Standard Ligatures lookup 0-1" w i f i underscore s i g n a l underscore five five
Ligature2: "'liga' Standard Ligatures lookup 0-1" w i f i underscore s i g n a l underscore five six
Ligature2: "'liga' Standard Ligatures lookup 0-1" w i f i underscore s i g n a l underscore five seven
Ligature2: "'liga' Standard Ligatures lookup 0-1" w i f i underscore s i g n a l underscore five eight
Ligature2: "'liga' Standard Ligatures lookup 0-1" w i f i underscore s i g n a l underscore five nine
Ligature2: "'liga' Standard Ligatures lookup 0-1" w i f i underscore s i g n a l underscore six zero
Ligature2: "'liga' Standard Ligatures lookup 0-1" w i f i underscore s i g n a l underscore six one
Ligature2: "'liga' Standard Ligatures lookup 0-1" w i f i underscore s i g n a l underscore six two
Ligature2: "'liga' Standard Ligatures lookup 0-1" w i f i underscore s i g n a l underscore six three
Ligature2: "'liga' Standard Ligatures lookup 0-1" w i f i underscore s i g n a l underscore six four
Ligature2: "'liga' Standard Ligatures lookup 0-1" w i f i underscore s i g n a l underscore six five
Ligature2: "'liga' Standard Ligatures lookup 0-1" w i f i underscore s i g n a l underscore six six
Ligature2: "'liga' Standard Ligatures lookup 0-1" w i f i underscore s i g n a l underscore three four percent
Ligature2: "'liga' Standard Ligatures lookup 0-1" w i f i underscore s i g n a l underscore three five percent
Ligature2: "'liga' Standard Ligatures lookup 0-1" w i f i underscore s i g n a l underscore three six percent
Ligature2: "'liga' Standard Ligatures lookup 0-1" w i f i underscore s i g n a l underscore three seven percent
Ligature2: "'liga' Standard Ligatures lookup 0-1" w i f i underscore s i g n a l underscore three eight percent
Ligature2: "'liga' Standard Ligatures lookup 0-1" w i f i underscore s i g n a l underscore three nine percent
Ligature2: "'liga' Standard Ligatures lookup 0-1" w i f i underscore s i g n a l underscore four zero percent
Ligature2: "'liga' Standard Ligatures lookup 0-1" w i f i underscore s i g n a l underscore four one percent
Ligature2: "'liga' Standard Ligatures lookup 0-1" w i f i underscore s i g n a l underscore four two percent
Ligature2: "'liga' Standard Ligatures lookup 0-1" w i f i underscore s i g n a l underscore four three percent
Ligature2: "'liga' Standard Ligatures lookup 0-1" w i f i underscore s i g n a l underscore four four percent
Ligature2: "'liga' Standard Ligatures lookup 0-1" w i f i underscore s i g n a l underscore four five percent
Ligature2: "'liga' Standard Ligatures lookup 0-1" w i f i underscore s i g n a l underscore four six percent
Ligature2: "'liga' Standard Ligatures lookup 0-1" w i f i underscore s i g n a l underscore four seven percent
Ligature2: "'liga' Standard Ligatures lookup 0-1" w i f i underscore s i g n a l underscore four eight percent
Ligature2: "'liga' Standard Ligatures lookup 0-1" w i f i underscore s i g n a l underscore four nine percent
Ligature2: "'liga' Standard Ligatures lookup 0-1" w i f i underscore s i g n a l underscore five zero percent
Ligature2: "'liga' Standard Ligatures lookup 0-1" w i f i underscore s i g n a l underscore five one percent
Ligature2: "'liga' Standard Ligatures lookup 0-1" w i f i underscore s i g n a l underscore five two percent
Ligature2: "'liga' Standard Ligatures lookup 0-1" w i f i underscore s i g n a l underscore five three percent
Ligature2: "'liga' Standard Ligatures lookup 0-1" w i f i underscore s i g n a l underscore five four percent
Ligature2: "'liga' Standard Ligatures lookup 0-1" w i f i underscore s i g n a l underscore five five percent
Ligature2: "'liga' Standard Ligatures lookup 0-1" w i f i underscore s i g n a l underscore five six percent
Ligature2: "'liga' Standard Ligatures lookup 0-1" w i f i underscore s i g n a l underscore five seven percent
Ligature2: "'liga' Standard Ligatures lookup 0-1" w i f i underscore s i g n a l underscore five eight percent
Ligature2: "'liga' Standard Ligatures lookup 0-1" w i f i underscore s i g n a l underscore five nine percent
Ligature2: "'liga' Standard Ligatures lookup 0-1" w i f i underscore s i g n a l underscore six zero percent
Ligature2: "'liga' Standard Ligatures lookup 0-1" w i f i underscore s i g n a l underscore six one percent
Ligature2: "'liga' Standard Ligatures lookup 0-1" w i f i underscore s i g n a l underscore six two percent
Ligature2: "'liga' Standard Ligatures lookup 0-1" w i f i underscore s i g n a l underscore six three percent
Ligature2: "'liga' Standard Ligatures lookup 0-1" w i f i underscore s i g n a l underscore six four percent
Ligature2: "'liga' Standard Ligatures lookup 0-1" w i f i underscore s i g n a l underscore six five percent
Ligature2: "'liga' Standard Ligatures lookup 0-1" w i f i underscore s i g n a l underscore six six percent
Ligature2: "'liga' Standard Ligatures lookup 0-1" w i f i underscore b a r underscore two
EndChar

StartChar: wifi_signal_3
Encoding: 50 983203 12
Width: 1000
VWidth: 0
HStem: 278.125 109.375<388.58 610.836> 502.734 109.766<350.409 649.794>
LayerCount: 2
Fore
SplineSet
500.000976562 612.5 m 0
 659.180664062 612.5 818.360351562 546.875 933.008789062 440.0390625 c 0
 939.454101562 433.984375 939.649414062 424.0234375 933.594726562 417.7734375 c 2
 881.446289062 363.28125 l 2
 875.391601562 356.8359375 865.235351562 356.640625 858.790039062 362.6953125 c 0
 813.282226562 404.8828125 761.329101562 438.28125 703.907226562 462.3046875 c 0
 639.454101562 489.0625 570.899414062 502.734375 500.196289062 502.734375 c 0
 429.493164062 502.734375 360.938476562 489.2578125 296.485351562 462.3046875 c 0
 239.063476562 438.4765625 187.110351562 404.8828125 141.602539062 362.6953125 c 0
 135.157226562 356.640625 125.000976562 356.8359375 118.946289062 363.28125 c 2
 66.7978515625 417.7734375 l 2
 60.7431640625 424.21875 60.9384765625 434.1796875 67.3837890625 440.0390625 c 0
 181.641601562 546.875 340.821289062 612.5 500.000976562 612.5 c 0
221.094726562 258.0078125 m 2
 214.649414062 264.453125 214.844726562 274.8046875 221.290039062 280.859375 c 0
 294.532226562 347.0703125 392.383789062 387.5 499.610351562 387.5 c 0
 606.836914062 387.5 704.688476562 347.0703125 777.930664062 280.859375 c 0
 784.766601562 274.8046875 784.961914062 264.453125 778.516601562 258.0078125 c 2
 722.657226562 202.734375 l 2
 716.602539062 196.875 707.032226562 196.484375 700.782226562 202.1484375 c 0
 645.508789062 251.3671875 574.610351562 278.125 499.805664062 278.125 c 0
 425.000976562 278.125 354.102539062 251.171875 298.829101562 202.1484375 c 0
 292.579101562 196.484375 283.008789062 196.875 276.954101562 202.734375 c 2
 221.094726562 258.0078125 l 2
500.000976562 166.796875 m 0
 545.704101562 166.796875 587.110351562 147.4609375 616.016601562 116.9921875 c 0
 621.875976562 110.7421875 621.680664062 101.171875 615.625976562 95.1171875 c 2
 511.329101562 -7.8125 l 2
 505.079101562 -14.0625 494.922851562 -14.0625 488.672851562 -7.8125 c 2
 384.375976562 95.1171875 l 2
 378.321289062 101.171875 378.125976562 110.7421875 383.985351562 116.9921875 c 0
 412.891601562 147.65625 454.297851562 166.796875 500.000976562 166.796875 c 0
EndSplineSet
Validated: 1
Ligature2: "'liga' Standard Ligatures lookup 0-1" w i f i underscore s i g n a l underscore six seven
Ligature2: "'liga' Standard Ligatures lookup 0-1" w i f i underscore s i g n a l underscore six eight
Ligature2: "'liga' Standard Ligatures lookup 0-1" w i f i underscore s i g n a l underscore six nine
Ligature2: "'liga' Standard Ligatures lookup 0-1" w i f i underscore s i g n a l underscore seven zero
Ligature2: "'liga' Standard Ligatures lookup 0-1" w i f i underscore s i g n a l underscore seven one
Ligature2: "'liga' Standard Ligatures lookup 0-1" w i f i underscore s i g n a l underscore seven two
Ligature2: "'liga' Standard Ligatures lookup 0-1" w i f i underscore s i g n a l underscore seven three
Ligature2: "'liga' Standard Ligatures lookup 0-1" w i f i underscore s i g n a l underscore seven four
Ligature2: "'liga' Standard Ligatures lookup 0-1" w i f i underscore s i g n a l underscore seven five
Ligature2: "'liga' Standard Ligatures lookup 0-1" w i f i underscore s i g n a l underscore seven six
Ligature2: "'liga' Standard Ligatures lookup 0-1" w i f i underscore s i g n a l underscore seven seven
Ligature2: "'liga' Standard Ligatures lookup 0-1" w i f i underscore s i g n a l underscore seven eight
Ligature2: "'liga' Standard Ligatures lookup 0-1" w i f i underscore s i g n a l underscore seven nine
Ligature2: "'liga' Standard Ligatures lookup 0-1" w i f i underscore s i g n a l underscore eight zero
Ligature2: "'liga' Standard Ligatures lookup 0-1" w i f i underscore s i g n a l underscore eight one
Ligature2: "'liga' Standard Ligatures lookup 0-1" w i f i underscore s i g n a l underscore eight two
Ligature2: "'liga' Standard Ligatures lookup 0-1" w i f i underscore s i g n a l underscore eight three
Ligature2: "'liga' Standard Ligatures lookup 0-1" w i f i underscore s i g n a l underscore eight four
Ligature2: "'liga' Standard Ligatures lookup 0-1" w i f i underscore s i g n a l underscore eight five
Ligature2: "'liga' Standard Ligatures lookup 0-1" w i f i underscore s i g n a l underscore eight six
Ligature2: "'liga' Standard Ligatures lookup 0-1" w i f i underscore s i g n a l underscore eight seven
Ligature2: "'liga' Standard Ligatures lookup 0-1" w i f i underscore s i g n a l underscore eight eight
Ligature2: "'liga' Standard Ligatures lookup 0-1" w i f i underscore s i g n a l underscore eight nine
Ligature2: "'liga' Standard Ligatures lookup 0-1" w i f i underscore s i g n a l underscore nine zero
Ligature2: "'liga' Standard Ligatures lookup 0-1" w i f i underscore s i g n a l underscore nine one
Ligature2: "'liga' Standard Ligatures lookup 0-1" w i f i underscore s i g n a l underscore nine two
Ligature2: "'liga' Standard Ligatures lookup 0-1" w i f i underscore s i g n a l underscore nine three
Ligature2: "'liga' Standard Ligatures lookup 0-1" w i f i underscore s i g n a l underscore nine four
Ligature2: "'liga' Standard Ligatures lookup 0-1" w i f i underscore s i g n a l underscore nine five
Ligature2: "'liga' Standard Ligatures lookup 0-1" w i f i underscore s i g n a l underscore nine six
Ligature2: "'liga' Standard Ligatures lookup 0-1" w i f i underscore s i g n a l underscore nine seven
Ligature2: "'liga' Standard Ligatures lookup 0-1" w i f i underscore s i g n a l underscore nine eight
Ligature2: "'liga' Standard Ligatures lookup 0-1" w i f i underscore s i g n a l underscore nine nine
Ligature2: "'liga' Standard Ligatures lookup 0-1" w i f i underscore s i g n a l underscore one zero zero
Ligature2: "'liga' Standard Ligatures lookup 0-1" w i f i underscore s i g n a l underscore six seven percent
Ligature2: "'liga' Standard Ligatures lookup 0-1" w i f i underscore s i g n a l underscore six eight percent
Ligature2: "'liga' Standard Ligatures lookup 0-1" w i f i underscore s i g n a l underscore six nine percent
Ligature2: "'liga' Standard Ligatures lookup 0-1" w i f i underscore s i g n a l underscore seven zero percent
Ligature2: "'liga' Standard Ligatures lookup 0-1" w i f i underscore s i g n a l underscore seven one percent
Ligature2: "'liga' Standard Ligatures lookup 0-1" w i f i underscore s i g n a l underscore seven two percent
Ligature2: "'liga' Standard Ligatures lookup 0-1" w i f i underscore s i g n a l underscore seven three percent
Ligature2: "'liga' Standard Ligatures lookup 0-1" w i f i underscore s i g n a l underscore seven four percent
Ligature2: "'liga' Standard Ligatures lookup 0-1" w i f i underscore s i g n a l underscore seven five percent
Ligature2: "'liga' Standard Ligatures lookup 0-1" w i f i underscore s i g n a l underscore seven six percent
Ligature2: "'liga' Standard Ligatures lookup 0-1" w i f i underscore s i g n a l underscore seven seven percent
Ligature2: "'liga' Standard Ligatures lookup 0-1" w i f i underscore s i g n a l underscore seven eight percent
Ligature2: "'liga' Standard Ligatures lookup 0-1" w i f i underscore s i g n a l underscore seven nine percent
Ligature2: "'liga' Standard Ligatures lookup 0-1" w i f i underscore s i g n a l underscore eight zero percent
Ligature2: "'liga' Standard Ligatures lookup 0-1" w i f i underscore s i g n a l underscore eight one percent
Ligature2: "'liga' Standard Ligatures lookup 0-1" w i f i underscore s i g n a l underscore eight two percent
Ligature2: "'liga' Standard Ligatures lookup 0-1" w i f i underscore s i g n a l underscore eight three percent
Ligature2: "'liga' Standard Ligatures lookup 0-1" w i f i underscore s i g n a l underscore eight four percent
Ligature2: "'liga' Standard Ligatures lookup 0-1" w i f i underscore s i g n a l underscore eight five percent
Ligature2: "'liga' Standard Ligatures lookup 0-1" w i f i underscore s i g n a l underscore eight six percent
Ligature2: "'liga' Standard Ligatures lookup 0-1" w i f i underscore s i g n a l underscore eight seven percent
Ligature2: "'liga' Standard Ligatures lookup 0-1" w i f i underscore s i g n a l underscore eight eight percent
Ligature2: "'liga' Standard Ligatures lookup 0-1" w i f i underscore s i g n a l underscore eight nine percent
Ligature2: "'liga' Standard Ligatures lookup 0-1" w i f i underscore s i g n a l underscore nine zero percent
Ligature2: "'liga' Standard Ligatures lookup 0-1" w i f i underscore s i g n a l underscore nine one percent
Ligature2: "'liga' Standard Ligatures lookup 0-1" w i f i underscore s i g n a l underscore nine two percent
Ligature2: "'liga' Standard Ligatures lookup 0-1" w i f i underscore s i g n a l underscore nine three percent
Ligature2: "'liga' Standard Ligatures lookup 0-1" w i f i underscore s i g n a l underscore nine four percent
Ligature2: "'liga' Standard Ligatures lookup 0-1" w i f i underscore s i g n a l underscore nine five percent
Ligature2: "'liga' Standard Ligatures lookup 0-1" w i f i underscore s i g n a l underscore nine six percent
Ligature2: "'liga' Standard Ligatures lookup 0-1" w i f i underscore s i g n a l underscore nine seven percent
Ligature2: "'liga' Standard Ligatures lookup 0-1" w i f i underscore s i g n a l underscore nine eight percent
Ligature2: "'liga' Standard Ligatures lookup 0-1" w i f i underscore s i g n a l underscore nine nine percent
Ligature2: "'liga' Standard Ligatures lookup 0-1" w i f i underscore s i g n a l underscore one zero zero percent
Ligature2: "'liga' Standard Ligatures lookup 0-1" w i f i underscore b a r underscore three
EndChar

StartChar: wifi_off
Encoding: 51 983200 50
Width: 1000
VWidth: 0
HStem: 237.305 125.195<616.207 905.939> 251.367 99.2188<188.708 455.316>
LayerCount: 2
Fore
SplineSet
796.288085938 362.5 m 0x80
 883.006835938 362.5 937.499023438 334.375 937.499023438 299.8046875 c 0
 937.499023438 265.234375 882.811523438 237.3046875 796.288085938 237.3046875 c 0x80
 789.647460938 237.3046875 767.577148438 237.5 761.131835938 237.890625 c 2
 634.374023438 241.2109375 l 2
 633.006835938 241.2109375 631.834960938 240.625 631.053710938 239.453125 c 2
 440.819335938 -44.921875 l 2
 435.155273438 -53.90625 425.194335938 -59.375 414.452148438 -59.375 c 2
 368.163085938 -59.375 l 2
 357.225585938 -59.375 353.514648438 -48.4375 357.420898438 -38.28125 c 2
 455.272460938 240.8203125 l 2
 456.249023438 243.359375 454.491210938 245.8984375 451.756835938 246.09375 c 2
 214.061523438 251.3671875 l 2
 209.178710938 251.5625 204.295898438 249.21875 201.170898438 245.3125 c 2
 127.538085938 156.0546875 l 2
 121.678710938 148.6328125 112.499023438 144.140625 102.928710938 144.140625 c 2
 70.3115234375 144.140625 l 2
 64.8427734375 144.140625 61.1318359375 149.4140625 62.8896484375 154.4921875 c 2
 101.756835938 288.671875 l 2
 104.686523438 296.09375 104.686523438 304.4921875 101.756835938 311.9140625 c 2
 62.8896484375 446.09375 l 2
 61.1318359375 451.171875 64.8427734375 456.4453125 70.3115234375 456.4453125 c 2
 103.124023438 456.4453125 l 2
 112.694335938 456.4453125 121.874023438 452.1484375 127.733398438 444.53125 c 2
 199.999023438 356.640625 l 2
 203.124023438 352.734375 207.811523438 350.390625 212.889648438 350.5859375 c 2x40
 451.952148438 354.1015625 l 2
 454.686523438 354.1015625 456.444335938 356.8359375 455.467773438 359.375 c 2
 357.616210938 638.28125 l 2
 353.709960938 648.4375 357.420898438 659.375 368.358398438 659.375 c 2
 414.647460938 659.375 l 2
 425.194335938 659.375 435.350585938 653.90625 441.014648438 644.921875 c 2
 631.053710938 360.3515625 l 2
 631.639648438 359.1796875 633.006835938 358.59375 634.374023438 358.59375 c 2
 761.131835938 361.9140625 l 2
 767.381835938 362.3046875 789.647460938 362.5 796.288085938 362.5 c 0x80
EndSplineSet
Validated: 1
Ligature2: "'liga' Standard Ligatures lookup 0-1" a i r p l a n e underscore m o d e
Ligature2: "'liga' Standard Ligatures lookup 0-1" w i f i underscore o f f
EndChar

StartChar: mic
Encoding: 52 983265 51
Width: 1000
VWidth: 0
HStem: -106.25 54.6875<375.558 472.656 527.344 624.442> 49.8047 52.9297<420.579 472.656 527.344 579.421> 143.75 562.5<430.237 569.763>
VStem: 285.156 54.6875<185.431 424.442> 375 250<-105.692 -52.1206 198.987 651.013> 472.656 54.6875<-51.5625 53.2191> 660.156 54.6875<185.431 424.442>
LayerCount: 2
Fore
SplineSet
500 143.75 m 0xfa
 431.25 143.75 375 200 375 268.75 c 2
 375 581.25 l 2
 375 650 431.25 706.25 500 706.25 c 0
 568.75 706.25 625 650 625 581.25 c 2
 625 268.75 l 2
 625 200 568.75 143.75 500 143.75 c 0xfa
687.5 425 m 0
 702.5390625 425 714.84375 412.6953125 714.84375 397.65625 c 2
 714.84375 262.890625 l 2
 714.84375 153.7109375 633.0078125 63.28125 527.34375 49.8046875 c 1
 527.34375 -51.5625 l 1xf6
 597.65625 -51.5625 l 2
 612.6953125 -51.5625 625 -63.8671875 625 -78.90625 c 0
 625 -93.9453125 612.6953125 -106.25 597.65625 -106.25 c 2
 402.34375 -106.25 l 2
 387.3046875 -106.25 375 -93.9453125 375 -78.90625 c 0xfa
 375 -63.8671875 387.3046875 -51.5625 402.34375 -51.5625 c 2
 472.65625 -51.5625 l 1
 472.65625 49.8046875 l 1xf6
 366.9921875 63.28125 285.15625 153.7109375 285.15625 262.890625 c 2
 285.15625 397.65625 l 2
 285.15625 412.6953125 297.4609375 425 312.5 425 c 0
 327.5390625 425 339.84375 412.6953125 339.84375 397.65625 c 2
 339.84375 262.890625 l 2
 339.84375 174.609375 411.71875 102.734375 500 102.734375 c 0
 588.28125 102.734375 660.15625 174.609375 660.15625 262.890625 c 2
 660.15625 397.65625 l 2
 660.15625 412.6953125 672.4609375 425 687.5 425 c 0
EndSplineSet
Validated: 1
Ligature2: "'liga' Standard Ligatures lookup 0-1" m i c
EndChar

StartChar: mic_mute
Encoding: 53 983264 52
Width: 1000
VWidth: 0
HStem: -106.25 54.6875<375.557 472.655 527.343 624.441>
VStem: 285.155 54.6875<185.431 424.442> 472.655 54.6875<-51.5625 53.2191> 660.155 54.6875<182.76 424.442>
CounterMasks: 1 70
LayerCount: 2
Fore
SplineSet
722.264648438 -106.25 m 0
 712.694335938 -106.25 703.319335938 -101.3671875 698.241210938 -92.578125 c 2
 253.709960938 664.6484375 l 2
 245.897460938 677.734375 250.389648438 694.7265625 263.670898438 702.34375 c 0
 276.952148438 709.9609375 293.944335938 705.6640625 301.756835938 692.3828125 c 2
 746.288085938 -64.84375 l 2
 754.100585938 -77.9296875 749.608398438 -94.921875 736.327148438 -102.5390625 c 0
 731.834960938 -105.078125 726.952148438 -106.25 722.264648438 -106.25 c 0
624.999023438 268.75 m 2
 624.999023438 251.5625 621.483398438 235.15625 615.233398438 220.3125 c 1
 381.053710938 619.3359375 l 1
 397.264648438 669.53125 444.530273438 706.25 499.999023438 706.25 c 0
 568.749023438 706.25 624.999023438 650 624.999023438 581.25 c 2
 624.999023438 268.75 l 2
374.999023438 268.75 m 2
 374.999023438 396.484375 l 1
 522.069335938 145.703125 l 1
 514.842773438 144.53125 507.616210938 143.75 499.999023438 143.75 c 0
 431.249023438 143.75 374.999023438 200 374.999023438 268.75 c 2
714.842773438 262.890625 m 2
 714.842773438 212.5 697.459960938 166.2109375 668.358398438 129.6875 c 1
 637.889648438 181.640625 l 1
 651.952148438 205.46875 660.155273438 233.203125 660.155273438 262.890625 c 2
 660.155273438 397.65625 l 2
 660.155273438 412.6953125 672.459960938 425 687.499023438 425 c 0
 702.538085938 425 714.842773438 412.6953125 714.842773438 397.65625 c 2
 714.842773438 262.890625 l 2
499.999023438 102.734375 m 0
 515.233398438 102.734375 529.881835938 104.8828125 543.749023438 108.984375 c 1
 572.069335938 60.546875 l 1
 557.811523438 55.46875 542.772460938 51.7578125 527.342773438 49.8046875 c 1
 527.342773438 -51.5625 l 1
 597.655273438 -51.5625 l 2
 612.694335938 -51.5625 624.999023438 -63.8671875 624.999023438 -78.90625 c 0
 624.999023438 -93.9453125 612.694335938 -106.25 597.655273438 -106.25 c 2
 402.342773438 -106.25 l 2
 387.303710938 -106.25 374.999023438 -93.9453125 374.999023438 -78.90625 c 0
 374.999023438 -63.8671875 387.303710938 -51.5625 402.342773438 -51.5625 c 2
 472.655273438 -51.5625 l 1
 472.655273438 49.8046875 l 1
 366.991210938 63.28125 285.155273438 153.7109375 285.155273438 262.890625 c 2
 285.155273438 397.65625 l 2
 285.155273438 412.6953125 297.459960938 425 312.499023438 425 c 0
 327.538085938 425 339.842773438 412.6953125 339.842773438 397.65625 c 2
 339.842773438 262.890625 l 2
 339.842773438 174.609375 411.717773438 102.734375 499.999023438 102.734375 c 0
EndSplineSet
Validated: 33
Ligature2: "'liga' Standard Ligatures lookup 0-1" m i c underscore o f f
Ligature2: "'liga' Standard Ligatures lookup 0-1" m i c underscore m u t e
EndChar

StartChar: volume_mute
Encoding: 54 983248 53
Width: 1000
VWidth: 0
HStem: 190.625 218.749<345.161 478.125>
VStem: 343.75 312.5<192.036 407.963>
LayerCount: 2
Fore
SplineSet
638.4765625 515.819335938 m 0
 649.4140625 510.545898438 656.25 499.608398438 656.25 487.499023438 c 2
 656.25 112.5 l 2
 656.25 100.5859375 649.4140625 89.6484375 638.4765625 84.375 c 0
 634.1796875 82.2265625 629.4921875 81.25 625 81.25 c 0
 618.1640625 81.25 611.1328125 83.59375 605.46875 88.0859375 c 2
 478.125 190.625 l 1
 375 190.625 l 2
 357.8125 190.625 343.75 204.6875 343.75 221.875 c 2
 343.75 378.124023438 l 2
 343.75 395.311523438 357.8125 409.374023438 375 409.374023438 c 2
 478.125 409.374023438 l 1
 605.46875 512.108398438 l 2
 611.1328125 516.600585938 617.96875 518.944335938 625 518.944335938 c 0
 629.4921875 518.944335938 634.1796875 517.967773438 638.4765625 515.819335938 c 0
EndSplineSet
Validated: 1
LCarets2: 10 0 0 0 0 0 0 0 0 0 0
Ligature2: "'liga' Standard Ligatures lookup 0-1" v o l u m e underscore b a r underscore zero
Ligature2: "'liga' Standard Ligatures lookup 0-1" v o l u m e underscore zero
Ligature2: "'liga' Standard Ligatures lookup 0-1" v o l u m e underscore zero percent
Ligature2: "'liga' Standard Ligatures lookup 0-1" v o l u m e underscore o f f
Ligature2: "'liga' Standard Ligatures lookup 0-1" v o l u m e underscore m u t e
EndChar

StartChar: volume_1
Encoding: 55 983249 54
Width: 1000
VWidth: 0
HStem: 190.625 218.749<254.536 387.5>
VStem: 253.125 312.5<192.036 407.963> 700.194 46.6797<219.85 380.034>
LayerCount: 2
Fore
SplineSet
547.8515625 515.819335938 m 0
 558.7890625 510.545898438 565.625 499.608398438 565.625 487.499023438 c 2
 565.625 112.5 l 2
 565.625 100.5859375 558.7890625 89.6484375 547.8515625 84.375 c 0
 543.5546875 82.2265625 538.8671875 81.25 534.375 81.25 c 0
 527.5390625 81.25 520.5078125 83.59375 514.84375 88.0859375 c 2
 387.5 190.625 l 1
 284.375 190.625 l 2
 267.1875 190.625 253.125 204.6875 253.125 221.875 c 2
 253.125 378.124023438 l 2
 253.125 395.311523438 267.1875 409.374023438 284.375 409.374023438 c 2
 387.5 409.374023438 l 1
 514.84375 512.108398438 l 2
 520.5078125 516.600585938 527.34375 518.944335938 534.375 518.944335938 c 0
 538.8671875 518.944335938 543.5546875 517.967773438 547.8515625 515.819335938 c 0
688.670898438 443.553710938 m 0
 726.366210938 405.272460938 747.069335938 354.296875 746.874023438 299.8046875 c 0
 746.874023438 245.5078125 726.170898438 194.7265625 688.475585938 156.4453125 c 0
 683.983398438 151.7578125 677.928710938 149.4140625 671.874023438 149.4140625 c 0
 666.014648438 149.4140625 659.959960938 151.7578125 655.467773438 156.25 c 0
 646.288085938 165.4296875 646.092773438 180.2734375 655.272460938 189.453125 c 0
 684.178710938 218.9453125 700.194335938 258.203125 700.194335938 300 c 0
 700.194335938 341.9921875 684.178710938 381.249023438 655.272460938 410.545898438 c 0
 646.092773438 419.725585938 646.288085938 434.569335938 655.467773438 443.749023438 c 0
 664.647460938 452.928710938 679.491210938 452.733398438 688.670898438 443.553710938 c 0
EndSplineSet
Validated: 33
Ligature2: "'liga' Standard Ligatures lookup 0-1" v o l u m e underscore b a r underscore one
Ligature2: "'liga' Standard Ligatures lookup 0-1" v o l u m e underscore one
Ligature2: "'liga' Standard Ligatures lookup 0-1" v o l u m e underscore two
Ligature2: "'liga' Standard Ligatures lookup 0-1" v o l u m e underscore three
Ligature2: "'liga' Standard Ligatures lookup 0-1" v o l u m e underscore four
Ligature2: "'liga' Standard Ligatures lookup 0-1" v o l u m e underscore five
Ligature2: "'liga' Standard Ligatures lookup 0-1" v o l u m e underscore six
Ligature2: "'liga' Standard Ligatures lookup 0-1" v o l u m e underscore seven
Ligature2: "'liga' Standard Ligatures lookup 0-1" v o l u m e underscore eight
Ligature2: "'liga' Standard Ligatures lookup 0-1" v o l u m e underscore nine
Ligature2: "'liga' Standard Ligatures lookup 0-1" v o l u m e underscore one zero
Ligature2: "'liga' Standard Ligatures lookup 0-1" v o l u m e underscore one one
Ligature2: "'liga' Standard Ligatures lookup 0-1" v o l u m e underscore one two
Ligature2: "'liga' Standard Ligatures lookup 0-1" v o l u m e underscore one three
Ligature2: "'liga' Standard Ligatures lookup 0-1" v o l u m e underscore one four
Ligature2: "'liga' Standard Ligatures lookup 0-1" v o l u m e underscore one five
Ligature2: "'liga' Standard Ligatures lookup 0-1" v o l u m e underscore one six
Ligature2: "'liga' Standard Ligatures lookup 0-1" v o l u m e underscore one seven
Ligature2: "'liga' Standard Ligatures lookup 0-1" v o l u m e underscore one eight
Ligature2: "'liga' Standard Ligatures lookup 0-1" v o l u m e underscore one nine
Ligature2: "'liga' Standard Ligatures lookup 0-1" v o l u m e underscore two zero
Ligature2: "'liga' Standard Ligatures lookup 0-1" v o l u m e underscore two one
Ligature2: "'liga' Standard Ligatures lookup 0-1" v o l u m e underscore two two
Ligature2: "'liga' Standard Ligatures lookup 0-1" v o l u m e underscore two three
Ligature2: "'liga' Standard Ligatures lookup 0-1" v o l u m e underscore two four
Ligature2: "'liga' Standard Ligatures lookup 0-1" v o l u m e underscore two five
Ligature2: "'liga' Standard Ligatures lookup 0-1" v o l u m e underscore two six
Ligature2: "'liga' Standard Ligatures lookup 0-1" v o l u m e underscore two seven
Ligature2: "'liga' Standard Ligatures lookup 0-1" v o l u m e underscore two eight
Ligature2: "'liga' Standard Ligatures lookup 0-1" v o l u m e underscore two nine
Ligature2: "'liga' Standard Ligatures lookup 0-1" v o l u m e underscore three zero
Ligature2: "'liga' Standard Ligatures lookup 0-1" v o l u m e underscore three one
Ligature2: "'liga' Standard Ligatures lookup 0-1" v o l u m e underscore three two
Ligature2: "'liga' Standard Ligatures lookup 0-1" v o l u m e underscore three three
Ligature2: "'liga' Standard Ligatures lookup 0-1" v o l u m e underscore one percent
Ligature2: "'liga' Standard Ligatures lookup 0-1" v o l u m e underscore two percent
Ligature2: "'liga' Standard Ligatures lookup 0-1" v o l u m e underscore three percent
Ligature2: "'liga' Standard Ligatures lookup 0-1" v o l u m e underscore four percent
Ligature2: "'liga' Standard Ligatures lookup 0-1" v o l u m e underscore five percent
Ligature2: "'liga' Standard Ligatures lookup 0-1" v o l u m e underscore six percent
Ligature2: "'liga' Standard Ligatures lookup 0-1" v o l u m e underscore seven percent
Ligature2: "'liga' Standard Ligatures lookup 0-1" v o l u m e underscore eight percent
Ligature2: "'liga' Standard Ligatures lookup 0-1" v o l u m e underscore nine percent
Ligature2: "'liga' Standard Ligatures lookup 0-1" v o l u m e underscore one zero percent
Ligature2: "'liga' Standard Ligatures lookup 0-1" v o l u m e underscore one one percent
Ligature2: "'liga' Standard Ligatures lookup 0-1" v o l u m e underscore one two percent
Ligature2: "'liga' Standard Ligatures lookup 0-1" v o l u m e underscore one three percent
Ligature2: "'liga' Standard Ligatures lookup 0-1" v o l u m e underscore one four percent
Ligature2: "'liga' Standard Ligatures lookup 0-1" v o l u m e underscore one five percent
Ligature2: "'liga' Standard Ligatures lookup 0-1" v o l u m e underscore one six percent
Ligature2: "'liga' Standard Ligatures lookup 0-1" v o l u m e underscore one seven percent
Ligature2: "'liga' Standard Ligatures lookup 0-1" v o l u m e underscore one eight percent
Ligature2: "'liga' Standard Ligatures lookup 0-1" v o l u m e underscore one nine percent
Ligature2: "'liga' Standard Ligatures lookup 0-1" v o l u m e underscore two zero percent
Ligature2: "'liga' Standard Ligatures lookup 0-1" v o l u m e underscore two one percent
Ligature2: "'liga' Standard Ligatures lookup 0-1" v o l u m e underscore two two percent
Ligature2: "'liga' Standard Ligatures lookup 0-1" v o l u m e underscore two three percent
Ligature2: "'liga' Standard Ligatures lookup 0-1" v o l u m e underscore two four percent
Ligature2: "'liga' Standard Ligatures lookup 0-1" v o l u m e underscore two five percent
Ligature2: "'liga' Standard Ligatures lookup 0-1" v o l u m e underscore two six percent
Ligature2: "'liga' Standard Ligatures lookup 0-1" v o l u m e underscore two seven percent
Ligature2: "'liga' Standard Ligatures lookup 0-1" v o l u m e underscore two eight percent
Ligature2: "'liga' Standard Ligatures lookup 0-1" v o l u m e underscore two nine percent
Ligature2: "'liga' Standard Ligatures lookup 0-1" v o l u m e underscore three zero percent
Ligature2: "'liga' Standard Ligatures lookup 0-1" v o l u m e underscore three one percent
Ligature2: "'liga' Standard Ligatures lookup 0-1" v o l u m e underscore three two percent
Ligature2: "'liga' Standard Ligatures lookup 0-1" v o l u m e underscore three three percent
EndChar

StartChar: volume_2
Encoding: 56 983250 55
Width: 1000
VWidth: 0
HStem: 190.625 218.749<188.52 321.484>
VStem: 187.109 312.5<192.036 407.963> 634.18 46.6797<219.85 380.034> 766.016 46.875<192.775 407.012>
LayerCount: 2
Fore
SplineSet
481.8359375 515.819335938 m 0
 492.7734375 510.545898438 499.609375 499.608398438 499.609375 487.499023438 c 2
 499.609375 112.5 l 2
 499.609375 100.5859375 492.7734375 89.6484375 481.8359375 84.375 c 0
 477.5390625 82.2265625 472.8515625 81.25 468.359375 81.25 c 0
 461.5234375 81.25 454.4921875 83.59375 448.828125 88.0859375 c 2
 321.484375 190.625 l 1
 218.359375 190.625 l 2
 201.171875 190.625 187.109375 204.6875 187.109375 221.875 c 2
 187.109375 378.124023438 l 2
 187.109375 395.311523438 201.171875 409.374023438 218.359375 409.374023438 c 2
 321.484375 409.374023438 l 1
 448.828125 512.108398438 l 2
 454.4921875 516.600585938 461.328125 518.944335938 468.359375 518.944335938 c 0
 472.8515625 518.944335938 477.5390625 517.967773438 481.8359375 515.819335938 c 0
812.890625 300 m 0
 812.890625 215.0390625 780.2734375 135.3515625 721.2890625 75.1953125 c 0
 716.796875 70.5078125 710.7421875 68.1640625 704.6875 68.1640625 c 0
 698.828125 68.1640625 692.7734375 70.5078125 688.28125 75 c 0
 679.1015625 84.1796875 678.90625 99.0234375 688.0859375 108.203125 c 0
 738.28125 159.1796875 766.015625 227.1484375 766.015625 299.8046875 c 0
 766.015625 372.4609375 738.28125 440.428710938 688.0859375 491.405273438 c 0
 678.90625 500.584960938 679.1015625 515.428710938 688.28125 524.608398438 c 0
 697.4609375 533.788085938 712.3046875 533.592773438 721.484375 524.413085938 c 0
 780.46875 464.647460938 812.890625 384.959960938 812.890625 300 c 0
622.65625 443.553710938 m 0
 660.3515625 405.272460938 681.0546875 354.296875 680.859375 299.8046875 c 0
 680.859375 245.5078125 660.15625 194.7265625 622.4609375 156.4453125 c 0
 617.96875 151.7578125 611.9140625 149.4140625 605.859375 149.4140625 c 0
 600 149.4140625 593.9453125 151.7578125 589.453125 156.25 c 0
 580.2734375 165.4296875 580.078125 180.2734375 589.2578125 189.453125 c 0
 618.1640625 218.9453125 634.1796875 258.203125 634.1796875 300 c 0
 634.1796875 341.9921875 618.1640625 381.249023438 589.2578125 410.545898438 c 0
 580.078125 419.725585938 580.2734375 434.569335938 589.453125 443.749023438 c 0
 598.6328125 452.928710938 613.4765625 452.733398438 622.65625 443.553710938 c 0
EndSplineSet
Validated: 33
Ligature2: "'liga' Standard Ligatures lookup 0-1" v o l u m e underscore six six
Ligature2: "'liga' Standard Ligatures lookup 0-1" v o l u m e underscore six five
Ligature2: "'liga' Standard Ligatures lookup 0-1" v o l u m e underscore six four
Ligature2: "'liga' Standard Ligatures lookup 0-1" v o l u m e underscore six three
Ligature2: "'liga' Standard Ligatures lookup 0-1" v o l u m e underscore six two
Ligature2: "'liga' Standard Ligatures lookup 0-1" v o l u m e underscore six one
Ligature2: "'liga' Standard Ligatures lookup 0-1" v o l u m e underscore six zero
Ligature2: "'liga' Standard Ligatures lookup 0-1" v o l u m e underscore five nine
Ligature2: "'liga' Standard Ligatures lookup 0-1" v o l u m e underscore five eight
Ligature2: "'liga' Standard Ligatures lookup 0-1" v o l u m e underscore five seven
Ligature2: "'liga' Standard Ligatures lookup 0-1" v o l u m e underscore five six
Ligature2: "'liga' Standard Ligatures lookup 0-1" v o l u m e underscore five five
Ligature2: "'liga' Standard Ligatures lookup 0-1" v o l u m e underscore five four
Ligature2: "'liga' Standard Ligatures lookup 0-1" v o l u m e underscore five three
Ligature2: "'liga' Standard Ligatures lookup 0-1" v o l u m e underscore five two
Ligature2: "'liga' Standard Ligatures lookup 0-1" v o l u m e underscore five one
Ligature2: "'liga' Standard Ligatures lookup 0-1" v o l u m e underscore five zero
Ligature2: "'liga' Standard Ligatures lookup 0-1" v o l u m e underscore four nine
Ligature2: "'liga' Standard Ligatures lookup 0-1" v o l u m e underscore four eight
Ligature2: "'liga' Standard Ligatures lookup 0-1" v o l u m e underscore four seven
Ligature2: "'liga' Standard Ligatures lookup 0-1" v o l u m e underscore four six
Ligature2: "'liga' Standard Ligatures lookup 0-1" v o l u m e underscore four five
Ligature2: "'liga' Standard Ligatures lookup 0-1" v o l u m e underscore four four
Ligature2: "'liga' Standard Ligatures lookup 0-1" v o l u m e underscore four three
Ligature2: "'liga' Standard Ligatures lookup 0-1" v o l u m e underscore four two
Ligature2: "'liga' Standard Ligatures lookup 0-1" v o l u m e underscore four one
Ligature2: "'liga' Standard Ligatures lookup 0-1" v o l u m e underscore four zero
Ligature2: "'liga' Standard Ligatures lookup 0-1" v o l u m e underscore three nine
Ligature2: "'liga' Standard Ligatures lookup 0-1" v o l u m e underscore three eight
Ligature2: "'liga' Standard Ligatures lookup 0-1" v o l u m e underscore three seven
Ligature2: "'liga' Standard Ligatures lookup 0-1" v o l u m e underscore three six
Ligature2: "'liga' Standard Ligatures lookup 0-1" v o l u m e underscore three five
Ligature2: "'liga' Standard Ligatures lookup 0-1" v o l u m e underscore three four
Ligature2: "'liga' Standard Ligatures lookup 0-1" v o l u m e underscore b a r underscore two
Ligature2: "'liga' Standard Ligatures lookup 0-1" v o l u m e underscore six six percent
Ligature2: "'liga' Standard Ligatures lookup 0-1" v o l u m e underscore six five percent
Ligature2: "'liga' Standard Ligatures lookup 0-1" v o l u m e underscore six four percent
Ligature2: "'liga' Standard Ligatures lookup 0-1" v o l u m e underscore six three percent
Ligature2: "'liga' Standard Ligatures lookup 0-1" v o l u m e underscore six two percent
Ligature2: "'liga' Standard Ligatures lookup 0-1" v o l u m e underscore six one percent
Ligature2: "'liga' Standard Ligatures lookup 0-1" v o l u m e underscore six zero percent
Ligature2: "'liga' Standard Ligatures lookup 0-1" v o l u m e underscore five nine percent
Ligature2: "'liga' Standard Ligatures lookup 0-1" v o l u m e underscore five eight percent
Ligature2: "'liga' Standard Ligatures lookup 0-1" v o l u m e underscore five seven percent
Ligature2: "'liga' Standard Ligatures lookup 0-1" v o l u m e underscore five six percent
Ligature2: "'liga' Standard Ligatures lookup 0-1" v o l u m e underscore five five percent
Ligature2: "'liga' Standard Ligatures lookup 0-1" v o l u m e underscore five four percent
Ligature2: "'liga' Standard Ligatures lookup 0-1" v o l u m e underscore five three percent
Ligature2: "'liga' Standard Ligatures lookup 0-1" v o l u m e underscore five two percent
Ligature2: "'liga' Standard Ligatures lookup 0-1" v o l u m e underscore five one percent
Ligature2: "'liga' Standard Ligatures lookup 0-1" v o l u m e underscore five zero percent
Ligature2: "'liga' Standard Ligatures lookup 0-1" v o l u m e underscore four nine percent
Ligature2: "'liga' Standard Ligatures lookup 0-1" v o l u m e underscore four eight percent
Ligature2: "'liga' Standard Ligatures lookup 0-1" v o l u m e underscore four seven percent
Ligature2: "'liga' Standard Ligatures lookup 0-1" v o l u m e underscore four six percent
Ligature2: "'liga' Standard Ligatures lookup 0-1" v o l u m e underscore four five percent
Ligature2: "'liga' Standard Ligatures lookup 0-1" v o l u m e underscore four four percent
Ligature2: "'liga' Standard Ligatures lookup 0-1" v o l u m e underscore four three percent
Ligature2: "'liga' Standard Ligatures lookup 0-1" v o l u m e underscore four two percent
Ligature2: "'liga' Standard Ligatures lookup 0-1" v o l u m e underscore four one percent
Ligature2: "'liga' Standard Ligatures lookup 0-1" v o l u m e underscore four zero percent
Ligature2: "'liga' Standard Ligatures lookup 0-1" v o l u m e underscore three nine percent
Ligature2: "'liga' Standard Ligatures lookup 0-1" v o l u m e underscore three eight percent
Ligature2: "'liga' Standard Ligatures lookup 0-1" v o l u m e underscore three seven percent
Ligature2: "'liga' Standard Ligatures lookup 0-1" v o l u m e underscore three six percent
Ligature2: "'liga' Standard Ligatures lookup 0-1" v o l u m e underscore three five percent
Ligature2: "'liga' Standard Ligatures lookup 0-1" v o l u m e underscore three four percent
EndChar

StartChar: volume_3
Encoding: 57 983251 56
Width: 1000
VWidth: 0
HStem: 190.625 218.749<127.388 260.352>
VStem: 125.977 312.5<192.036 407.963> 573.047 46.6797<219.85 380.034> 704.883 46.875<192.775 407.012> 826.953 47.0703<174.035 425.938>
LayerCount: 2
Fore
SplineSet
420.703125 515.819335938 m 0
 431.640625 510.545898438 438.4765625 499.608398438 438.4765625 487.499023438 c 2
 438.4765625 112.5 l 2
 438.4765625 100.5859375 431.640625 89.6484375 420.703125 84.375 c 0
 416.40625 82.2265625 411.71875 81.25 407.2265625 81.25 c 0
 400.390625 81.25 393.359375 83.59375 387.6953125 88.0859375 c 2
 260.3515625 190.625 l 1
 157.2265625 190.625 l 2
 140.0390625 190.625 125.9765625 204.6875 125.9765625 221.875 c 2
 125.9765625 378.124023438 l 2
 125.9765625 395.311523438 140.0390625 409.374023438 157.2265625 409.374023438 c 2
 260.3515625 409.374023438 l 1
 387.6953125 512.108398438 l 2
 393.359375 516.600585938 400.1953125 518.944335938 407.2265625 518.944335938 c 0
 411.71875 518.944335938 416.40625 517.967773438 420.703125 515.819335938 c 0
874.0234375 300 m 0
 874.0234375 184.1796875 828.7109375 75.5859375 746.09375 -5.6640625 c 0
 741.6015625 -10.15625 735.546875 -12.5 729.6875 -12.5 c 0
 723.6328125 -12.5 717.578125 -10.15625 713.0859375 -5.46875 c 0
 703.90625 3.7109375 704.1015625 18.5546875 713.28125 27.734375 c 0
 786.5234375 100.1953125 826.953125 196.875 826.953125 300 c 0
 826.953125 403.124023438 786.71875 499.803710938 713.28125 572.264648438 c 0
 704.1015625 581.444335938 703.90625 596.288085938 713.0859375 605.467773438 c 0
 722.265625 614.647460938 737.109375 614.842773438 746.2890625 605.663085938 c 0
 828.7109375 524.217773438 874.0234375 415.819335938 874.0234375 300 c 0
751.7578125 300 m 0
 751.7578125 215.0390625 719.140625 135.3515625 660.15625 75.1953125 c 0
 655.6640625 70.5078125 649.609375 68.1640625 643.5546875 68.1640625 c 0
 637.6953125 68.1640625 631.640625 70.5078125 627.1484375 75 c 0
 617.96875 84.1796875 617.7734375 99.0234375 626.953125 108.203125 c 0
 677.1484375 159.1796875 704.8828125 227.1484375 704.8828125 299.8046875 c 0
 704.8828125 372.4609375 677.1484375 440.428710938 626.953125 491.405273438 c 0
 617.7734375 500.584960938 617.96875 515.428710938 627.1484375 524.608398438 c 0
 636.328125 533.788085938 651.171875 533.592773438 660.3515625 524.413085938 c 0
 719.3359375 464.647460938 751.7578125 384.959960938 751.7578125 300 c 0
561.5234375 443.553710938 m 0
 599.21875 405.272460938 619.921875 354.296875 619.7265625 299.8046875 c 0
 619.7265625 245.5078125 599.0234375 194.7265625 561.328125 156.4453125 c 0
 556.8359375 151.7578125 550.78125 149.4140625 544.7265625 149.4140625 c 0
 538.8671875 149.4140625 532.8125 151.7578125 528.3203125 156.25 c 0
 519.140625 165.4296875 518.9453125 180.2734375 528.125 189.453125 c 0
 557.03125 218.9453125 573.046875 258.203125 573.046875 300 c 0
 573.046875 341.9921875 557.03125 381.249023438 528.125 410.545898438 c 0
 518.9453125 419.725585938 519.140625 434.569335938 528.3203125 443.749023438 c 0
 537.5 452.928710938 552.34375 452.733398438 561.5234375 443.553710938 c 0
EndSplineSet
Validated: 33
Ligature2: "'liga' Standard Ligatures lookup 0-1" v o l u m e underscore b a r underscore three
Ligature2: "'liga' Standard Ligatures lookup 0-1" v o l u m e underscore six seven
Ligature2: "'liga' Standard Ligatures lookup 0-1" v o l u m e underscore six eight
Ligature2: "'liga' Standard Ligatures lookup 0-1" v o l u m e underscore six nine
Ligature2: "'liga' Standard Ligatures lookup 0-1" v o l u m e underscore seven zero
Ligature2: "'liga' Standard Ligatures lookup 0-1" v o l u m e underscore seven one
Ligature2: "'liga' Standard Ligatures lookup 0-1" v o l u m e underscore seven two
Ligature2: "'liga' Standard Ligatures lookup 0-1" v o l u m e underscore seven three
Ligature2: "'liga' Standard Ligatures lookup 0-1" v o l u m e underscore seven four
Ligature2: "'liga' Standard Ligatures lookup 0-1" v o l u m e underscore seven five
Ligature2: "'liga' Standard Ligatures lookup 0-1" v o l u m e underscore seven six
Ligature2: "'liga' Standard Ligatures lookup 0-1" v o l u m e underscore seven seven
Ligature2: "'liga' Standard Ligatures lookup 0-1" v o l u m e underscore seven eight
Ligature2: "'liga' Standard Ligatures lookup 0-1" v o l u m e underscore seven nine
Ligature2: "'liga' Standard Ligatures lookup 0-1" v o l u m e underscore eight zero
Ligature2: "'liga' Standard Ligatures lookup 0-1" v o l u m e underscore eight one
Ligature2: "'liga' Standard Ligatures lookup 0-1" v o l u m e underscore eight two
Ligature2: "'liga' Standard Ligatures lookup 0-1" v o l u m e underscore eight three
Ligature2: "'liga' Standard Ligatures lookup 0-1" v o l u m e underscore eight four
Ligature2: "'liga' Standard Ligatures lookup 0-1" v o l u m e underscore eight five
Ligature2: "'liga' Standard Ligatures lookup 0-1" v o l u m e underscore eight six
Ligature2: "'liga' Standard Ligatures lookup 0-1" v o l u m e underscore eight seven
Ligature2: "'liga' Standard Ligatures lookup 0-1" v o l u m e underscore eight eight
Ligature2: "'liga' Standard Ligatures lookup 0-1" v o l u m e underscore eight nine
Ligature2: "'liga' Standard Ligatures lookup 0-1" v o l u m e underscore nine zero
Ligature2: "'liga' Standard Ligatures lookup 0-1" v o l u m e underscore nine one
Ligature2: "'liga' Standard Ligatures lookup 0-1" v o l u m e underscore nine two
Ligature2: "'liga' Standard Ligatures lookup 0-1" v o l u m e underscore nine three
Ligature2: "'liga' Standard Ligatures lookup 0-1" v o l u m e underscore nine four
Ligature2: "'liga' Standard Ligatures lookup 0-1" v o l u m e underscore nine five
Ligature2: "'liga' Standard Ligatures lookup 0-1" v o l u m e underscore nine six
Ligature2: "'liga' Standard Ligatures lookup 0-1" v o l u m e underscore nine seven
Ligature2: "'liga' Standard Ligatures lookup 0-1" v o l u m e underscore nine eight
Ligature2: "'liga' Standard Ligatures lookup 0-1" v o l u m e underscore nine nine
Ligature2: "'liga' Standard Ligatures lookup 0-1" v o l u m e underscore six seven percent
Ligature2: "'liga' Standard Ligatures lookup 0-1" v o l u m e underscore six eight percent
Ligature2: "'liga' Standard Ligatures lookup 0-1" v o l u m e underscore six nine percent
Ligature2: "'liga' Standard Ligatures lookup 0-1" v o l u m e underscore seven zero percent
Ligature2: "'liga' Standard Ligatures lookup 0-1" v o l u m e underscore seven one percent
Ligature2: "'liga' Standard Ligatures lookup 0-1" v o l u m e underscore seven two percent
Ligature2: "'liga' Standard Ligatures lookup 0-1" v o l u m e underscore seven three percent
Ligature2: "'liga' Standard Ligatures lookup 0-1" v o l u m e underscore seven four percent
Ligature2: "'liga' Standard Ligatures lookup 0-1" v o l u m e underscore seven five percent
Ligature2: "'liga' Standard Ligatures lookup 0-1" v o l u m e underscore seven six percent
Ligature2: "'liga' Standard Ligatures lookup 0-1" v o l u m e underscore seven seven percent
Ligature2: "'liga' Standard Ligatures lookup 0-1" v o l u m e underscore seven eight percent
Ligature2: "'liga' Standard Ligatures lookup 0-1" v o l u m e underscore seven nine percent
Ligature2: "'liga' Standard Ligatures lookup 0-1" v o l u m e underscore eight zero percent
Ligature2: "'liga' Standard Ligatures lookup 0-1" v o l u m e underscore eight one percent
Ligature2: "'liga' Standard Ligatures lookup 0-1" v o l u m e underscore eight two percent
Ligature2: "'liga' Standard Ligatures lookup 0-1" v o l u m e underscore eight three percent
Ligature2: "'liga' Standard Ligatures lookup 0-1" v o l u m e underscore eight four percent
Ligature2: "'liga' Standard Ligatures lookup 0-1" v o l u m e underscore eight five percent
Ligature2: "'liga' Standard Ligatures lookup 0-1" v o l u m e underscore eight six percent
Ligature2: "'liga' Standard Ligatures lookup 0-1" v o l u m e underscore eight seven percent
Ligature2: "'liga' Standard Ligatures lookup 0-1" v o l u m e underscore eight eight percent
Ligature2: "'liga' Standard Ligatures lookup 0-1" v o l u m e underscore eight nine percent
Ligature2: "'liga' Standard Ligatures lookup 0-1" v o l u m e underscore nine zero percent
Ligature2: "'liga' Standard Ligatures lookup 0-1" v o l u m e underscore nine one percent
Ligature2: "'liga' Standard Ligatures lookup 0-1" v o l u m e underscore nine two percent
Ligature2: "'liga' Standard Ligatures lookup 0-1" v o l u m e underscore nine three percent
Ligature2: "'liga' Standard Ligatures lookup 0-1" v o l u m e underscore nine four percent
Ligature2: "'liga' Standard Ligatures lookup 0-1" v o l u m e underscore nine five percent
Ligature2: "'liga' Standard Ligatures lookup 0-1" v o l u m e underscore nine six percent
Ligature2: "'liga' Standard Ligatures lookup 0-1" v o l u m e underscore nine seven percent
Ligature2: "'liga' Standard Ligatures lookup 0-1" v o l u m e underscore nine eight percent
Ligature2: "'liga' Standard Ligatures lookup 0-1" v o l u m e underscore nine nine percent
Ligature2: "'liga' Standard Ligatures lookup 0-1" v o l u m e underscore one zero zero percent
Ligature2: "'liga' Standard Ligatures lookup 0-1" v o l u m e underscore one zero zero
EndChar

StartChar: battery_20
Encoding: 58 983218 58
Width: 1000
VWidth: 0
HStem: 81.25 54.6875<90.7125 807.725> 464.062 54.6875<90.7125 807.725>
VStem: 31.25 54.6875<140.713 459.287> 125 129.688<175.069 424.931> 812.5 54.6875<140.713 459.287> 906.25 62.5<260.467 339.533>
LayerCount: 2
Fore
SplineSet
773.4375 518.75 m 2
 825 518.75 867.1875 476.5625 867.1875 425 c 2
 867.1875 175 l 2
 867.1875 123.4375 825 81.25 773.4375 81.25 c 2
 125 81.25 l 2
 73.4375 81.25 31.25 123.4375 31.25 175 c 2
 31.25 425 l 2
 31.25 476.5625 73.4375 518.75 125 518.75 c 2
 773.4375 518.75 l 2
812.5 175 m 2
 812.5 425 l 2
 812.5 446.484375 794.921875 464.0625 773.4375 464.0625 c 2
 125 464.0625 l 2
 103.515625 464.0625 85.9375 446.484375 85.9375 425 c 2
 85.9375 175 l 2
 85.9375 153.515625 103.515625 135.9375 125 135.9375 c 2
 773.4375 135.9375 l 2
 794.921875 135.9375 812.5 153.515625 812.5 175 c 2
906.25 400.390625 m 1
 937.5 400.390625 968.75 346.2890625 968.75 300 c 0
 968.75 253.7109375 937.5 199.609375 906.25 199.609375 c 1
 906.25 400.390625 l 1
231.25 425 m 2
 244.140625 425 254.6875 414.453125 254.6875 401.5625 c 2
 254.6875 198.4375 l 2
 254.6875 185.546875 244.140625 175 231.25 175 c 2
 148.4375 175 l 2
 135.546875 175 125 185.546875 125 198.4375 c 2
 125 401.5625 l 2
 125 414.453125 135.546875 425 148.4375 425 c 2
 231.25 425 l 2
EndSplineSet
Validated: 1
Ligature2: "'liga' Standard Ligatures lookup 0-1" b a t t e r y underscore two zero
Ligature2: "'liga' Standard Ligatures lookup 0-1" b a t t e r y underscore two one
Ligature2: "'liga' Standard Ligatures lookup 0-1" b a t t e r y underscore two two
Ligature2: "'liga' Standard Ligatures lookup 0-1" b a t t e r y underscore two three
Ligature2: "'liga' Standard Ligatures lookup 0-1" b a t t e r y underscore two four
Ligature2: "'liga' Standard Ligatures lookup 0-1" b a t t e r y underscore two five
Ligature2: "'liga' Standard Ligatures lookup 0-1" b a t t e r y underscore two six
Ligature2: "'liga' Standard Ligatures lookup 0-1" b a t t e r y underscore two seven
Ligature2: "'liga' Standard Ligatures lookup 0-1" b a t t e r y underscore two eight
Ligature2: "'liga' Standard Ligatures lookup 0-1" b a t t e r y underscore two nine
Ligature2: "'liga' Standard Ligatures lookup 0-1" b a t t e r y underscore two zero percent
Ligature2: "'liga' Standard Ligatures lookup 0-1" b a t t e r y underscore two one percent
Ligature2: "'liga' Standard Ligatures lookup 0-1" b a t t e r y underscore two two percent
Ligature2: "'liga' Standard Ligatures lookup 0-1" b a t t e r y underscore two three percent
Ligature2: "'liga' Standard Ligatures lookup 0-1" b a t t e r y underscore two four percent
Ligature2: "'liga' Standard Ligatures lookup 0-1" b a t t e r y underscore two five percent
Ligature2: "'liga' Standard Ligatures lookup 0-1" b a t t e r y underscore two six percent
Ligature2: "'liga' Standard Ligatures lookup 0-1" b a t t e r y underscore two seven percent
Ligature2: "'liga' Standard Ligatures lookup 0-1" b a t t e r y underscore two eight percent
Ligature2: "'liga' Standard Ligatures lookup 0-1" b a t t e r y underscore two nine percent
EndChar

StartChar: battery_20_charging
Encoding: 59 983234 59
Width: 1000
VWidth: 0
HStem: 81.25 54.6875<90.7125 807.725> 464.062 54.6875<90.7125 807.725>
VStem: 31.25 54.6875<140.713 459.287> 125 129.688<175.069 424.931> 812.5 54.6875<140.713 459.287> 906.25 62.5<260.467 339.533>
LayerCount: 2
Fore
SplineSet
773.4375 518.75 m 2
 825 518.75 867.1875 476.5625 867.1875 425 c 2
 867.1875 175 l 2
 867.1875 123.4375 825 81.25 773.4375 81.25 c 2
 125 81.25 l 2
 73.4375 81.25 31.25 123.4375 31.25 175 c 2
 31.25 425 l 2
 31.25 476.5625 73.4375 518.75 125 518.75 c 2
 773.4375 518.75 l 2
812.5 175 m 2
 812.5 425 l 2
 812.5 446.484375 794.921875 464.0625 773.4375 464.0625 c 2
 125 464.0625 l 2
 103.515625 464.0625 85.9375 446.484375 85.9375 425 c 2
 85.9375 175 l 2
 85.9375 153.515625 103.515625 135.9375 125 135.9375 c 2
 773.4375 135.9375 l 2
 794.921875 135.9375 812.5 153.515625 812.5 175 c 2
906.25 400.390625 m 1
 937.5 400.390625 968.75 346.2890625 968.75 300 c 0
 968.75 253.7109375 937.5 199.609375 906.25 199.609375 c 1
 906.25 400.390625 l 1
231.25 425 m 2
 244.140625 425 254.6875 414.453125 254.6875 401.5625 c 2
 254.6875 198.4375 l 2
 254.6875 185.546875 244.140625 175 231.25 175 c 2
 148.4375 175 l 2
 135.546875 175 125 185.546875 125 198.4375 c 2
 125 401.5625 l 2
 125 414.453125 135.546875 425 148.4375 425 c 2
 231.25 425 l 2
427.34375 198.4375 m 1
 443.75 282.421875 l 1
 390.625 282.421875 l 1
 478.90625 401.5625 l 1
 462.5 317.578125 l 1
 515.625 317.578125 l 1
 427.34375 198.4375 l 1
EndSplineSet
Validated: 1
Ligature2: "'liga' Standard Ligatures lookup 0-1" b a t t e r y underscore two zero underscore c h a r g i n g
Ligature2: "'liga' Standard Ligatures lookup 0-1" b a t t e r y underscore two one underscore c h a r g i n g
Ligature2: "'liga' Standard Ligatures lookup 0-1" b a t t e r y underscore two two underscore c h a r g i n g
Ligature2: "'liga' Standard Ligatures lookup 0-1" b a t t e r y underscore two three underscore c h a r g i n g
Ligature2: "'liga' Standard Ligatures lookup 0-1" b a t t e r y underscore two four underscore c h a r g i n g
Ligature2: "'liga' Standard Ligatures lookup 0-1" b a t t e r y underscore two five underscore c h a r g i n g
Ligature2: "'liga' Standard Ligatures lookup 0-1" b a t t e r y underscore two six underscore c h a r g i n g
Ligature2: "'liga' Standard Ligatures lookup 0-1" b a t t e r y underscore two seven underscore c h a r g i n g
Ligature2: "'liga' Standard Ligatures lookup 0-1" b a t t e r y underscore two eight underscore c h a r g i n g
Ligature2: "'liga' Standard Ligatures lookup 0-1" b a t t e r y underscore two nine underscore c h a r g i n g
Ligature2: "'liga' Standard Ligatures lookup 0-1" b a t t e r y underscore two zero percent underscore c h a r g i n g
Ligature2: "'liga' Standard Ligatures lookup 0-1" b a t t e r y underscore two one percent underscore c h a r g i n g
Ligature2: "'liga' Standard Ligatures lookup 0-1" b a t t e r y underscore two two percent underscore c h a r g i n g
Ligature2: "'liga' Standard Ligatures lookup 0-1" b a t t e r y underscore two three percent underscore c h a r g i n g
Ligature2: "'liga' Standard Ligatures lookup 0-1" b a t t e r y underscore two four percent underscore c h a r g i n g
Ligature2: "'liga' Standard Ligatures lookup 0-1" b a t t e r y underscore two five percent underscore c h a r g i n g
Ligature2: "'liga' Standard Ligatures lookup 0-1" b a t t e r y underscore two six percent underscore c h a r g i n g
Ligature2: "'liga' Standard Ligatures lookup 0-1" b a t t e r y underscore two seven percent underscore c h a r g i n g
Ligature2: "'liga' Standard Ligatures lookup 0-1" b a t t e r y underscore two eight percent underscore c h a r g i n g
Ligature2: "'liga' Standard Ligatures lookup 0-1" b a t t e r y underscore two nine percent underscore c h a r g i n g
EndChar

StartChar: battery_40
Encoding: 60 983220 60
Width: 1000
VWidth: 0
HStem: 81.25 54.6875<90.7125 807.725> 175 250<125.069 384.306> 464.062 54.6875<90.7125 807.725>
VStem: 31.25 54.6875<140.713 459.287> 125 259.375<175.069 424.931> 812.5 54.6875<140.713 459.287> 906.25 62.5<260.467 339.533>
CounterMasks: 1 e0
LayerCount: 2
Fore
SplineSet
773.4375 518.75 m 2
 825 518.75 867.1875 476.5625 867.1875 425 c 2
 867.1875 175 l 2
 867.1875 123.4375 825 81.25 773.4375 81.25 c 2
 125 81.25 l 2
 73.4375 81.25 31.25 123.4375 31.25 175 c 2
 31.25 425 l 2
 31.25 476.5625 73.4375 518.75 125 518.75 c 2
 773.4375 518.75 l 2
812.5 175 m 2
 812.5 425 l 2
 812.5 446.484375 794.921875 464.0625 773.4375 464.0625 c 2
 125 464.0625 l 2
 103.515625 464.0625 85.9375 446.484375 85.9375 425 c 2
 85.9375 175 l 2
 85.9375 153.515625 103.515625 135.9375 125 135.9375 c 2
 773.4375 135.9375 l 2
 794.921875 135.9375 812.5 153.515625 812.5 175 c 2
906.25 400.390625 m 1
 937.5 400.390625 968.75 346.2890625 968.75 300 c 0
 968.75 253.7109375 937.5 199.609375 906.25 199.609375 c 1
 906.25 400.390625 l 1
360.9375 425 m 2
 373.828125 425 384.375 414.453125 384.375 401.5625 c 2
 384.375 198.4375 l 2
 384.375 185.546875 373.828125 175 360.9375 175 c 2
 148.4375 175 l 2
 135.546875 175 125 185.546875 125 198.4375 c 2
 125 401.5625 l 2
 125 414.453125 135.546875 425 148.4375 425 c 2
 360.9375 425 l 2
EndSplineSet
Validated: 1
Ligature2: "'liga' Standard Ligatures lookup 0-1" b a t t e r y underscore four zero
Ligature2: "'liga' Standard Ligatures lookup 0-1" b a t t e r y underscore four one
Ligature2: "'liga' Standard Ligatures lookup 0-1" b a t t e r y underscore four two
Ligature2: "'liga' Standard Ligatures lookup 0-1" b a t t e r y underscore four three
Ligature2: "'liga' Standard Ligatures lookup 0-1" b a t t e r y underscore four four
Ligature2: "'liga' Standard Ligatures lookup 0-1" b a t t e r y underscore four five
Ligature2: "'liga' Standard Ligatures lookup 0-1" b a t t e r y underscore four six
Ligature2: "'liga' Standard Ligatures lookup 0-1" b a t t e r y underscore four seven
Ligature2: "'liga' Standard Ligatures lookup 0-1" b a t t e r y underscore four eight
Ligature2: "'liga' Standard Ligatures lookup 0-1" b a t t e r y underscore four nine
Ligature2: "'liga' Standard Ligatures lookup 0-1" b a t t e r y underscore four zero percent
Ligature2: "'liga' Standard Ligatures lookup 0-1" b a t t e r y underscore four one percent
Ligature2: "'liga' Standard Ligatures lookup 0-1" b a t t e r y underscore four two percent
Ligature2: "'liga' Standard Ligatures lookup 0-1" b a t t e r y underscore four three percent
Ligature2: "'liga' Standard Ligatures lookup 0-1" b a t t e r y underscore four four percent
Ligature2: "'liga' Standard Ligatures lookup 0-1" b a t t e r y underscore four five percent
Ligature2: "'liga' Standard Ligatures lookup 0-1" b a t t e r y underscore four six percent
Ligature2: "'liga' Standard Ligatures lookup 0-1" b a t t e r y underscore four seven percent
Ligature2: "'liga' Standard Ligatures lookup 0-1" b a t t e r y underscore four eight percent
Ligature2: "'liga' Standard Ligatures lookup 0-1" b a t t e r y underscore four nine percent
EndChar

StartChar: battery_40_charging
Encoding: 61 983236 61
Width: 1000
VWidth: 0
HStem: 81.25 54.6875<90.7125 807.725> 175 250<125.069 384.306> 464.062 54.6875<90.7125 807.725>
VStem: 31.25 54.6875<140.713 459.287> 125 259.375<175.069 424.931> 812.5 54.6875<140.713 459.287> 906.25 62.5<260.467 339.533>
CounterMasks: 1 e0
LayerCount: 2
Fore
SplineSet
773.4375 518.75 m 2
 825 518.75 867.1875 476.5625 867.1875 425 c 2
 867.1875 175 l 2
 867.1875 123.4375 825 81.25 773.4375 81.25 c 2
 125 81.25 l 2
 73.4375 81.25 31.25 123.4375 31.25 175 c 2
 31.25 425 l 2
 31.25 476.5625 73.4375 518.75 125 518.75 c 2
 773.4375 518.75 l 2
812.5 175 m 2
 812.5 425 l 2
 812.5 446.484375 794.921875 464.0625 773.4375 464.0625 c 2
 125 464.0625 l 2
 103.515625 464.0625 85.9375 446.484375 85.9375 425 c 2
 85.9375 175 l 2
 85.9375 153.515625 103.515625 135.9375 125 135.9375 c 2
 773.4375 135.9375 l 2
 794.921875 135.9375 812.5 153.515625 812.5 175 c 2
906.25 400.390625 m 1
 937.5 400.390625 968.75 346.2890625 968.75 300 c 0
 968.75 253.7109375 937.5 199.609375 906.25 199.609375 c 1
 906.25 400.390625 l 1
360.9375 425 m 2
 373.828125 425 384.375 414.453125 384.375 401.5625 c 2
 384.375 198.4375 l 2
 384.375 185.546875 373.828125 175 360.9375 175 c 2
 148.4375 175 l 2
 135.546875 175 125 185.546875 125 198.4375 c 2
 125 401.5625 l 2
 125 414.453125 135.546875 425 148.4375 425 c 2
 360.9375 425 l 2
427.34375 198.4375 m 1
 443.75 282.421875 l 1
 390.625 282.421875 l 1
 478.90625 401.5625 l 1
 462.5 317.578125 l 1
 515.625 317.578125 l 1
 427.34375 198.4375 l 1
EndSplineSet
Validated: 1
Ligature2: "'liga' Standard Ligatures lookup 0-1" b a t t e r y underscore four zero underscore c h a r g i n g
Ligature2: "'liga' Standard Ligatures lookup 0-1" b a t t e r y underscore four one underscore c h a r g i n g
Ligature2: "'liga' Standard Ligatures lookup 0-1" b a t t e r y underscore four two underscore c h a r g i n g
Ligature2: "'liga' Standard Ligatures lookup 0-1" b a t t e r y underscore four three underscore c h a r g i n g
Ligature2: "'liga' Standard Ligatures lookup 0-1" b a t t e r y underscore four four underscore c h a r g i n g
Ligature2: "'liga' Standard Ligatures lookup 0-1" b a t t e r y underscore four five underscore c h a r g i n g
Ligature2: "'liga' Standard Ligatures lookup 0-1" b a t t e r y underscore four six underscore c h a r g i n g
Ligature2: "'liga' Standard Ligatures lookup 0-1" b a t t e r y underscore four seven underscore c h a r g i n g
Ligature2: "'liga' Standard Ligatures lookup 0-1" b a t t e r y underscore four eight underscore c h a r g i n g
Ligature2: "'liga' Standard Ligatures lookup 0-1" b a t t e r y underscore four nine underscore c h a r g i n g
Ligature2: "'liga' Standard Ligatures lookup 0-1" b a t t e r y underscore four zero percent underscore c h a r g i n g
Ligature2: "'liga' Standard Ligatures lookup 0-1" b a t t e r y underscore four one percent underscore c h a r g i n g
Ligature2: "'liga' Standard Ligatures lookup 0-1" b a t t e r y underscore four two percent underscore c h a r g i n g
Ligature2: "'liga' Standard Ligatures lookup 0-1" b a t t e r y underscore four three percent underscore c h a r g i n g
Ligature2: "'liga' Standard Ligatures lookup 0-1" b a t t e r y underscore four four percent underscore c h a r g i n g
Ligature2: "'liga' Standard Ligatures lookup 0-1" b a t t e r y underscore four five percent underscore c h a r g i n g
Ligature2: "'liga' Standard Ligatures lookup 0-1" b a t t e r y underscore four six percent underscore c h a r g i n g
Ligature2: "'liga' Standard Ligatures lookup 0-1" b a t t e r y underscore four seven percent underscore c h a r g i n g
Ligature2: "'liga' Standard Ligatures lookup 0-1" b a t t e r y underscore four eight percent underscore c h a r g i n g
Ligature2: "'liga' Standard Ligatures lookup 0-1" b a t t e r y underscore four nine percent underscore c h a r g i n g
EndChar

StartChar: battery_60
Encoding: 62 983222 62
Width: 1000
VWidth: 0
HStem: 81.25 54.6875<90.7125 807.725> 175 250<125.069 513.994> 464.062 54.6875<90.7125 807.725>
VStem: 31.25 54.6875<140.713 459.287> 812.5 54.6875<140.713 459.287> 906.25 62.5<260.467 339.533>
CounterMasks: 1 e0
LayerCount: 2
Fore
SplineSet
773.4375 518.75 m 2
 825 518.75 867.1875 476.5625 867.1875 425 c 2
 867.1875 175 l 2
 867.1875 123.4375 825 81.25 773.4375 81.25 c 2
 125 81.25 l 2
 73.4375 81.25 31.25 123.4375 31.25 175 c 2
 31.25 425 l 2
 31.25 476.5625 73.4375 518.75 125 518.75 c 2
 773.4375 518.75 l 2
812.5 175 m 2
 812.5 425 l 2
 812.5 446.484375 794.921875 464.0625 773.4375 464.0625 c 2
 125 464.0625 l 2
 103.515625 464.0625 85.9375 446.484375 85.9375 425 c 2
 85.9375 175 l 2
 85.9375 153.515625 103.515625 135.9375 125 135.9375 c 2
 773.4375 135.9375 l 2
 794.921875 135.9375 812.5 153.515625 812.5 175 c 2
906.25 400.390625 m 1
 937.5 400.390625 968.75 346.2890625 968.75 300 c 0
 968.75 253.7109375 937.5 199.609375 906.25 199.609375 c 1
 906.25 400.390625 l 1
490.625 425 m 2
 503.515625 425 514.0625 414.453125 514.0625 401.5625 c 2
 514.0625 198.4375 l 2
 514.0625 185.546875 503.515625 175 490.625 175 c 2
 148.4375 175 l 2
 135.546875 175 125 185.546875 125 198.4375 c 2
 125 401.5625 l 2
 125 414.453125 135.546875 425 148.4375 425 c 2
 490.625 425 l 2
EndSplineSet
Validated: 1
Ligature2: "'liga' Standard Ligatures lookup 0-1" b a t t e r y underscore six zero
Ligature2: "'liga' Standard Ligatures lookup 0-1" b a t t e r y underscore six one
Ligature2: "'liga' Standard Ligatures lookup 0-1" b a t t e r y underscore six two
Ligature2: "'liga' Standard Ligatures lookup 0-1" b a t t e r y underscore six three
Ligature2: "'liga' Standard Ligatures lookup 0-1" b a t t e r y underscore six four
Ligature2: "'liga' Standard Ligatures lookup 0-1" b a t t e r y underscore six five
Ligature2: "'liga' Standard Ligatures lookup 0-1" b a t t e r y underscore six six
Ligature2: "'liga' Standard Ligatures lookup 0-1" b a t t e r y underscore six seven
Ligature2: "'liga' Standard Ligatures lookup 0-1" b a t t e r y underscore six eight
Ligature2: "'liga' Standard Ligatures lookup 0-1" b a t t e r y underscore six nine
Ligature2: "'liga' Standard Ligatures lookup 0-1" b a t t e r y underscore six zero percent
Ligature2: "'liga' Standard Ligatures lookup 0-1" b a t t e r y underscore six one percent
Ligature2: "'liga' Standard Ligatures lookup 0-1" b a t t e r y underscore six two percent
Ligature2: "'liga' Standard Ligatures lookup 0-1" b a t t e r y underscore six three percent
Ligature2: "'liga' Standard Ligatures lookup 0-1" b a t t e r y underscore six four percent
Ligature2: "'liga' Standard Ligatures lookup 0-1" b a t t e r y underscore six five percent
Ligature2: "'liga' Standard Ligatures lookup 0-1" b a t t e r y underscore six six percent
Ligature2: "'liga' Standard Ligatures lookup 0-1" b a t t e r y underscore six seven percent
Ligature2: "'liga' Standard Ligatures lookup 0-1" b a t t e r y underscore six eight percent
Ligature2: "'liga' Standard Ligatures lookup 0-1" b a t t e r y underscore six nine percent
EndChar

StartChar: battery_60_charging
Encoding: 63 983238 63
Width: 1000
VWidth: 0
HStem: 81.25 54.6875<90.7125 807.725> 175 250<125.069 390.625 490.625 503.516> 464.062 54.6875<90.7125 807.725>
VStem: 31.25 54.6875<140.713 459.287> 812.5 54.6875<140.713 459.287> 906.25 62.5<260.467 339.533>
CounterMasks: 1 e0
LayerCount: 2
Fore
SplineSet
773.4375 518.75 m 2
 825 518.75 867.1875 476.5625 867.1875 425 c 2
 867.1875 175 l 2
 867.1875 123.4375 825 81.25 773.4375 81.25 c 2
 125 81.25 l 2
 73.4375 81.25 31.25 123.4375 31.25 175 c 2
 31.25 425 l 2
 31.25 476.5625 73.4375 518.75 125 518.75 c 2
 773.4375 518.75 l 2
812.5 175 m 2
 812.5 425 l 2
 812.5 446.484375 794.921875 464.0625 773.4375 464.0625 c 2
 125 464.0625 l 2
 103.515625 464.0625 85.9375 446.484375 85.9375 425 c 2
 85.9375 175 l 2
 85.9375 153.515625 103.515625 135.9375 125 135.9375 c 2
 773.4375 135.9375 l 2
 794.921875 135.9375 812.5 153.515625 812.5 175 c 2
906.25 400.390625 m 1
 937.5 400.390625 968.75 346.2890625 968.75 300 c 0
 968.75 253.7109375 937.5 199.609375 906.25 199.609375 c 1
 906.25 400.390625 l 1
490.625 425 m 2
 503.515625 425 514.0625 414.453125 514.0625 401.5625 c 2
 514.0625 198.4375 l 2
 514.0625 185.546875 503.515625 175 490.625 175 c 2
 148.4375 175 l 2
 135.546875 175 125 185.546875 125 198.4375 c 2
 125 401.5625 l 2
 125 414.453125 135.546875 425 148.4375 425 c 2
 490.625 425 l 2
427.34375 198.4375 m 1
 515.625 317.578125 l 1
 462.5 317.578125 l 1
 478.90625 401.5625 l 1
 390.625 282.421875 l 1
 443.75 282.421875 l 1
 427.34375 198.4375 l 1
EndSplineSet
Validated: 1
Ligature2: "'liga' Standard Ligatures lookup 0-1" b a t t e r y underscore six zero underscore c h a r g i n g
Ligature2: "'liga' Standard Ligatures lookup 0-1" b a t t e r y underscore six one underscore c h a r g i n g
Ligature2: "'liga' Standard Ligatures lookup 0-1" b a t t e r y underscore six two underscore c h a r g i n g
Ligature2: "'liga' Standard Ligatures lookup 0-1" b a t t e r y underscore six three underscore c h a r g i n g
Ligature2: "'liga' Standard Ligatures lookup 0-1" b a t t e r y underscore six four underscore c h a r g i n g
Ligature2: "'liga' Standard Ligatures lookup 0-1" b a t t e r y underscore six five underscore c h a r g i n g
Ligature2: "'liga' Standard Ligatures lookup 0-1" b a t t e r y underscore six six underscore c h a r g i n g
Ligature2: "'liga' Standard Ligatures lookup 0-1" b a t t e r y underscore six seven underscore c h a r g i n g
Ligature2: "'liga' Standard Ligatures lookup 0-1" b a t t e r y underscore six eight underscore c h a r g i n g
Ligature2: "'liga' Standard Ligatures lookup 0-1" b a t t e r y underscore six nine underscore c h a r g i n g
Ligature2: "'liga' Standard Ligatures lookup 0-1" b a t t e r y underscore six zero percent underscore c h a r g i n g
Ligature2: "'liga' Standard Ligatures lookup 0-1" b a t t e r y underscore six one percent underscore c h a r g i n g
Ligature2: "'liga' Standard Ligatures lookup 0-1" b a t t e r y underscore six two percent underscore c h a r g i n g
Ligature2: "'liga' Standard Ligatures lookup 0-1" b a t t e r y underscore six three percent underscore c h a r g i n g
Ligature2: "'liga' Standard Ligatures lookup 0-1" b a t t e r y underscore six four percent underscore c h a r g i n g
Ligature2: "'liga' Standard Ligatures lookup 0-1" b a t t e r y underscore six five percent underscore c h a r g i n g
Ligature2: "'liga' Standard Ligatures lookup 0-1" b a t t e r y underscore six six percent underscore c h a r g i n g
Ligature2: "'liga' Standard Ligatures lookup 0-1" b a t t e r y underscore six seven percent underscore c h a r g i n g
Ligature2: "'liga' Standard Ligatures lookup 0-1" b a t t e r y underscore six eight percent underscore c h a r g i n g
Ligature2: "'liga' Standard Ligatures lookup 0-1" b a t t e r y underscore six nine percent underscore c h a r g i n g
EndChar

StartChar: battery_70
Encoding: 64 983223 64
Width: 1000
VWidth: 0
HStem: 81.25 54.6875<90.7125 807.725> 175 250<125.069 578.838> 464.062 54.6875<90.7125 807.725>
VStem: 31.25 54.6875<140.713 459.287> 812.5 54.6875<140.713 459.287> 906.25 62.5<260.467 339.533>
CounterMasks: 1 e0
LayerCount: 2
Fore
SplineSet
773.4375 518.75 m 2
 825 518.75 867.1875 476.5625 867.1875 425 c 2
 867.1875 175 l 2
 867.1875 123.4375 825 81.25 773.4375 81.25 c 2
 125 81.25 l 2
 73.4375 81.25 31.25 123.4375 31.25 175 c 2
 31.25 425 l 2
 31.25 476.5625 73.4375 518.75 125 518.75 c 2
 773.4375 518.75 l 2
812.5 175 m 2
 812.5 425 l 2
 812.5 446.484375 794.921875 464.0625 773.4375 464.0625 c 2
 125 464.0625 l 2
 103.515625 464.0625 85.9375 446.484375 85.9375 425 c 2
 85.9375 175 l 2
 85.9375 153.515625 103.515625 135.9375 125 135.9375 c 2
 773.4375 135.9375 l 2
 794.921875 135.9375 812.5 153.515625 812.5 175 c 2
906.25 400.390625 m 1
 937.5 400.390625 968.75 346.2890625 968.75 300 c 0
 968.75 253.7109375 937.5 199.609375 906.25 199.609375 c 1
 906.25 400.390625 l 1
555.46875 425 m 2
 568.359375 425 578.90625 414.453125 578.90625 401.5625 c 2
 578.90625 198.4375 l 2
 578.90625 185.546875 568.359375 175 555.46875 175 c 2
 148.4375 175 l 2
 135.546875 175 125 185.546875 125 198.4375 c 2
 125 401.5625 l 2
 125 414.453125 135.546875 425 148.4375 425 c 2
 555.46875 425 l 2
EndSplineSet
Validated: 1
Ligature2: "'liga' Standard Ligatures lookup 0-1" b a t t e r y underscore seven zero
Ligature2: "'liga' Standard Ligatures lookup 0-1" b a t t e r y underscore seven one
Ligature2: "'liga' Standard Ligatures lookup 0-1" b a t t e r y underscore seven two
Ligature2: "'liga' Standard Ligatures lookup 0-1" b a t t e r y underscore seven three
Ligature2: "'liga' Standard Ligatures lookup 0-1" b a t t e r y underscore seven four
Ligature2: "'liga' Standard Ligatures lookup 0-1" b a t t e r y underscore seven five
Ligature2: "'liga' Standard Ligatures lookup 0-1" b a t t e r y underscore seven six
Ligature2: "'liga' Standard Ligatures lookup 0-1" b a t t e r y underscore seven seven
Ligature2: "'liga' Standard Ligatures lookup 0-1" b a t t e r y underscore seven eight
Ligature2: "'liga' Standard Ligatures lookup 0-1" b a t t e r y underscore seven nine
Ligature2: "'liga' Standard Ligatures lookup 0-1" b a t t e r y underscore seven zero percent
Ligature2: "'liga' Standard Ligatures lookup 0-1" b a t t e r y underscore seven one percent
Ligature2: "'liga' Standard Ligatures lookup 0-1" b a t t e r y underscore seven two percent
Ligature2: "'liga' Standard Ligatures lookup 0-1" b a t t e r y underscore seven three percent
Ligature2: "'liga' Standard Ligatures lookup 0-1" b a t t e r y underscore seven four percent
Ligature2: "'liga' Standard Ligatures lookup 0-1" b a t t e r y underscore seven five percent
Ligature2: "'liga' Standard Ligatures lookup 0-1" b a t t e r y underscore seven six percent
Ligature2: "'liga' Standard Ligatures lookup 0-1" b a t t e r y underscore seven seven percent
Ligature2: "'liga' Standard Ligatures lookup 0-1" b a t t e r y underscore seven eight percent
Ligature2: "'liga' Standard Ligatures lookup 0-1" b a t t e r y underscore seven nine percent
EndChar

StartChar: battery_70_charging
Encoding: 65 983239 65
Width: 1000
VWidth: 0
HStem: 81.25 54.6875<90.7125 807.725> 175 250<125.069 390.625 515.625 578.838> 464.062 54.6875<90.7125 807.725>
VStem: 31.25 54.6875<140.713 459.287> 812.5 54.6875<140.713 459.287> 906.25 62.5<260.467 339.533>
CounterMasks: 1 e0
LayerCount: 2
Fore
SplineSet
773.4375 518.75 m 2
 825 518.75 867.1875 476.5625 867.1875 425 c 2
 867.1875 175 l 2
 867.1875 123.4375 825 81.25 773.4375 81.25 c 2
 125 81.25 l 2
 73.4375 81.25 31.25 123.4375 31.25 175 c 2
 31.25 425 l 2
 31.25 476.5625 73.4375 518.75 125 518.75 c 2
 773.4375 518.75 l 2
812.5 175 m 2
 812.5 425 l 2
 812.5 446.484375 794.921875 464.0625 773.4375 464.0625 c 2
 125 464.0625 l 2
 103.515625 464.0625 85.9375 446.484375 85.9375 425 c 2
 85.9375 175 l 2
 85.9375 153.515625 103.515625 135.9375 125 135.9375 c 2
 773.4375 135.9375 l 2
 794.921875 135.9375 812.5 153.515625 812.5 175 c 2
906.25 400.390625 m 1
 937.5 400.390625 968.75 346.2890625 968.75 300 c 0
 968.75 253.7109375 937.5 199.609375 906.25 199.609375 c 1
 906.25 400.390625 l 1
555.46875 425 m 2
 568.359375 425 578.90625 414.453125 578.90625 401.5625 c 2
 578.90625 198.4375 l 2
 578.90625 185.546875 568.359375 175 555.46875 175 c 2
 148.4375 175 l 2
 135.546875 175 125 185.546875 125 198.4375 c 2
 125 401.5625 l 2
 125 414.453125 135.546875 425 148.4375 425 c 2
 555.46875 425 l 2
427.34375 198.4375 m 1
 515.625 317.578125 l 1
 462.5 317.578125 l 1
 478.90625 401.5625 l 1
 390.625 282.421875 l 1
 443.75 282.421875 l 1
 427.34375 198.4375 l 1
EndSplineSet
Validated: 1
Ligature2: "'liga' Standard Ligatures lookup 0-1" b a t t e r y underscore seven zero underscore c h a r g i n g
Ligature2: "'liga' Standard Ligatures lookup 0-1" b a t t e r y underscore seven one underscore c h a r g i n g
Ligature2: "'liga' Standard Ligatures lookup 0-1" b a t t e r y underscore seven two underscore c h a r g i n g
Ligature2: "'liga' Standard Ligatures lookup 0-1" b a t t e r y underscore seven three underscore c h a r g i n g
Ligature2: "'liga' Standard Ligatures lookup 0-1" b a t t e r y underscore seven four underscore c h a r g i n g
Ligature2: "'liga' Standard Ligatures lookup 0-1" b a t t e r y underscore seven five underscore c h a r g i n g
Ligature2: "'liga' Standard Ligatures lookup 0-1" b a t t e r y underscore seven six underscore c h a r g i n g
Ligature2: "'liga' Standard Ligatures lookup 0-1" b a t t e r y underscore seven seven underscore c h a r g i n g
Ligature2: "'liga' Standard Ligatures lookup 0-1" b a t t e r y underscore seven eight underscore c h a r g i n g
Ligature2: "'liga' Standard Ligatures lookup 0-1" b a t t e r y underscore seven nine underscore c h a r g i n g
Ligature2: "'liga' Standard Ligatures lookup 0-1" b a t t e r y underscore seven zero percent underscore c h a r g i n g
Ligature2: "'liga' Standard Ligatures lookup 0-1" b a t t e r y underscore seven one percent underscore c h a r g i n g
Ligature2: "'liga' Standard Ligatures lookup 0-1" b a t t e r y underscore seven two percent underscore c h a r g i n g
Ligature2: "'liga' Standard Ligatures lookup 0-1" b a t t e r y underscore seven three percent underscore c h a r g i n g
Ligature2: "'liga' Standard Ligatures lookup 0-1" b a t t e r y underscore seven four percent underscore c h a r g i n g
Ligature2: "'liga' Standard Ligatures lookup 0-1" b a t t e r y underscore seven five percent underscore c h a r g i n g
Ligature2: "'liga' Standard Ligatures lookup 0-1" b a t t e r y underscore seven six percent underscore c h a r g i n g
Ligature2: "'liga' Standard Ligatures lookup 0-1" b a t t e r y underscore seven seven percent underscore c h a r g i n g
Ligature2: "'liga' Standard Ligatures lookup 0-1" b a t t e r y underscore seven eight percent underscore c h a r g i n g
Ligature2: "'liga' Standard Ligatures lookup 0-1" b a t t e r y underscore seven nine percent underscore c h a r g i n g
EndChar

StartChar: battery_80
Encoding: 66 983224 66
Width: 1000
VWidth: 0
HStem: 81.25 54.6875<90.7125 807.725> 175 250<125.069 643.681> 464.062 54.6875<90.7125 807.725>
VStem: 31.25 54.6875<140.713 459.287> 812.5 54.6875<140.713 459.287> 906.25 62.5<260.467 339.533>
CounterMasks: 1 e0
LayerCount: 2
Fore
SplineSet
773.4375 518.75 m 2
 825 518.75 867.1875 476.5625 867.1875 425 c 2
 867.1875 175 l 2
 867.1875 123.4375 825 81.25 773.4375 81.25 c 2
 125 81.25 l 2
 73.4375 81.25 31.25 123.4375 31.25 175 c 2
 31.25 425 l 2
 31.25 476.5625 73.4375 518.75 125 518.75 c 2
 773.4375 518.75 l 2
812.5 175 m 2
 812.5 425 l 2
 812.5 446.484375 794.921875 464.0625 773.4375 464.0625 c 2
 125 464.0625 l 2
 103.515625 464.0625 85.9375 446.484375 85.9375 425 c 2
 85.9375 175 l 2
 85.9375 153.515625 103.515625 135.9375 125 135.9375 c 2
 773.4375 135.9375 l 2
 794.921875 135.9375 812.5 153.515625 812.5 175 c 2
906.25 400.390625 m 1
 937.5 400.390625 968.75 346.2890625 968.75 300 c 0
 968.75 253.7109375 937.5 199.609375 906.25 199.609375 c 1
 906.25 400.390625 l 1
620.3125 425 m 2
 633.203125 425 643.75 414.453125 643.75 401.5625 c 2
 643.75 198.4375 l 2
 643.75 185.546875 633.203125 175 620.3125 175 c 2
 148.4375 175 l 2
 135.546875 175 125 185.546875 125 198.4375 c 2
 125 401.5625 l 2
 125 414.453125 135.546875 425 148.4375 425 c 2
 620.3125 425 l 2
EndSplineSet
Validated: 1
Ligature2: "'liga' Standard Ligatures lookup 0-1" b a t t e r y underscore eight nine percent
Ligature2: "'liga' Standard Ligatures lookup 0-1" b a t t e r y underscore eight eight percent
Ligature2: "'liga' Standard Ligatures lookup 0-1" b a t t e r y underscore eight seven percent
Ligature2: "'liga' Standard Ligatures lookup 0-1" b a t t e r y underscore eight six percent
Ligature2: "'liga' Standard Ligatures lookup 0-1" b a t t e r y underscore eight five percent
Ligature2: "'liga' Standard Ligatures lookup 0-1" b a t t e r y underscore eight four percent
Ligature2: "'liga' Standard Ligatures lookup 0-1" b a t t e r y underscore eight three percent
Ligature2: "'liga' Standard Ligatures lookup 0-1" b a t t e r y underscore eight two percent
Ligature2: "'liga' Standard Ligatures lookup 0-1" b a t t e r y underscore eight one percent
Ligature2: "'liga' Standard Ligatures lookup 0-1" b a t t e r y underscore eight zero percent
Ligature2: "'liga' Standard Ligatures lookup 0-1" b a t t e r y underscore eight nine
Ligature2: "'liga' Standard Ligatures lookup 0-1" b a t t e r y underscore eight eight
Ligature2: "'liga' Standard Ligatures lookup 0-1" b a t t e r y underscore eight seven
Ligature2: "'liga' Standard Ligatures lookup 0-1" b a t t e r y underscore eight six
Ligature2: "'liga' Standard Ligatures lookup 0-1" b a t t e r y underscore eight five
Ligature2: "'liga' Standard Ligatures lookup 0-1" b a t t e r y underscore eight four
Ligature2: "'liga' Standard Ligatures lookup 0-1" b a t t e r y underscore eight three
Ligature2: "'liga' Standard Ligatures lookup 0-1" b a t t e r y underscore eight two
Ligature2: "'liga' Standard Ligatures lookup 0-1" b a t t e r y underscore eight one
Ligature2: "'liga' Standard Ligatures lookup 0-1" b a t t e r y underscore eight zero
EndChar

StartChar: battery_80_charging
Encoding: 67 983240 67
Width: 1000
VWidth: 0
HStem: 81.25 54.6875<90.7125 807.725> 175 250<125.069 390.625 515.625 643.681> 464.062 54.6875<90.7125 807.725>
VStem: 31.25 54.6875<140.713 459.287> 812.5 54.6875<140.713 459.287> 906.25 62.5<260.467 339.533>
CounterMasks: 1 e0
LayerCount: 2
Fore
SplineSet
773.4375 518.75 m 2
 825 518.75 867.1875 476.5625 867.1875 425 c 2
 867.1875 175 l 2
 867.1875 123.4375 825 81.25 773.4375 81.25 c 2
 125 81.25 l 2
 73.4375 81.25 31.25 123.4375 31.25 175 c 2
 31.25 425 l 2
 31.25 476.5625 73.4375 518.75 125 518.75 c 2
 773.4375 518.75 l 2
812.5 175 m 2
 812.5 425 l 2
 812.5 446.484375 794.921875 464.0625 773.4375 464.0625 c 2
 125 464.0625 l 2
 103.515625 464.0625 85.9375 446.484375 85.9375 425 c 2
 85.9375 175 l 2
 85.9375 153.515625 103.515625 135.9375 125 135.9375 c 2
 773.4375 135.9375 l 2
 794.921875 135.9375 812.5 153.515625 812.5 175 c 2
906.25 400.390625 m 1
 937.5 400.390625 968.75 346.2890625 968.75 300 c 0
 968.75 253.7109375 937.5 199.609375 906.25 199.609375 c 1
 906.25 400.390625 l 1
620.3125 425 m 2
 633.203125 425 643.75 414.453125 643.75 401.5625 c 2
 643.75 198.4375 l 2
 643.75 185.546875 633.203125 175 620.3125 175 c 2
 148.4375 175 l 2
 135.546875 175 125 185.546875 125 198.4375 c 2
 125 401.5625 l 2
 125 414.453125 135.546875 425 148.4375 425 c 2
 620.3125 425 l 2
427.34375 198.4375 m 1
 515.625 317.578125 l 1
 462.5 317.578125 l 1
 478.90625 401.5625 l 1
 390.625 282.421875 l 1
 443.75 282.421875 l 1
 427.34375 198.4375 l 1
EndSplineSet
Validated: 1
Ligature2: "'liga' Standard Ligatures lookup 0-1" b a t t e r y underscore eight nine percent underscore c h a r g i n g
Ligature2: "'liga' Standard Ligatures lookup 0-1" b a t t e r y underscore eight eight percent underscore c h a r g i n g
Ligature2: "'liga' Standard Ligatures lookup 0-1" b a t t e r y underscore eight seven percent underscore c h a r g i n g
Ligature2: "'liga' Standard Ligatures lookup 0-1" b a t t e r y underscore eight six percent underscore c h a r g i n g
Ligature2: "'liga' Standard Ligatures lookup 0-1" b a t t e r y underscore eight five percent underscore c h a r g i n g
Ligature2: "'liga' Standard Ligatures lookup 0-1" b a t t e r y underscore eight four percent underscore c h a r g i n g
Ligature2: "'liga' Standard Ligatures lookup 0-1" b a t t e r y underscore eight three percent underscore c h a r g i n g
Ligature2: "'liga' Standard Ligatures lookup 0-1" b a t t e r y underscore eight two percent underscore c h a r g i n g
Ligature2: "'liga' Standard Ligatures lookup 0-1" b a t t e r y underscore eight one percent underscore c h a r g i n g
Ligature2: "'liga' Standard Ligatures lookup 0-1" b a t t e r y underscore eight zero percent underscore c h a r g i n g
Ligature2: "'liga' Standard Ligatures lookup 0-1" b a t t e r y underscore eight nine underscore c h a r g i n g
Ligature2: "'liga' Standard Ligatures lookup 0-1" b a t t e r y underscore eight eight underscore c h a r g i n g
Ligature2: "'liga' Standard Ligatures lookup 0-1" b a t t e r y underscore eight seven underscore c h a r g i n g
Ligature2: "'liga' Standard Ligatures lookup 0-1" b a t t e r y underscore eight six underscore c h a r g i n g
Ligature2: "'liga' Standard Ligatures lookup 0-1" b a t t e r y underscore eight five underscore c h a r g i n g
Ligature2: "'liga' Standard Ligatures lookup 0-1" b a t t e r y underscore eight four underscore c h a r g i n g
Ligature2: "'liga' Standard Ligatures lookup 0-1" b a t t e r y underscore eight three underscore c h a r g i n g
Ligature2: "'liga' Standard Ligatures lookup 0-1" b a t t e r y underscore eight two underscore c h a r g i n g
Ligature2: "'liga' Standard Ligatures lookup 0-1" b a t t e r y underscore eight one underscore c h a r g i n g
Ligature2: "'liga' Standard Ligatures lookup 0-1" b a t t e r y underscore eight zero underscore c h a r g i n g
EndChar

StartChar: battery_90
Encoding: 68 983225 68
Width: 1000
VWidth: 0
HStem: 81.25 54.6875<90.7125 807.725> 175 250<125.069 708.525> 464.062 54.6875<90.7125 807.725>
VStem: 31.25 54.6875<140.713 459.287> 812.5 54.6875<140.713 459.287> 906.25 62.5<260.467 339.533>
CounterMasks: 1 e0
LayerCount: 2
Fore
SplineSet
773.4375 518.75 m 2
 825 518.75 867.1875 476.5625 867.1875 425 c 2
 867.1875 175 l 2
 867.1875 123.4375 825 81.25 773.4375 81.25 c 2
 125 81.25 l 2
 73.4375 81.25 31.25 123.4375 31.25 175 c 2
 31.25 425 l 2
 31.25 476.5625 73.4375 518.75 125 518.75 c 2
 773.4375 518.75 l 2
812.5 175 m 2
 812.5 425 l 2
 812.5 446.484375 794.921875 464.0625 773.4375 464.0625 c 2
 125 464.0625 l 2
 103.515625 464.0625 85.9375 446.484375 85.9375 425 c 2
 85.9375 175 l 2
 85.9375 153.515625 103.515625 135.9375 125 135.9375 c 2
 773.4375 135.9375 l 2
 794.921875 135.9375 812.5 153.515625 812.5 175 c 2
906.25 400.390625 m 1
 937.5 400.390625 968.75 346.2890625 968.75 300 c 0
 968.75 253.7109375 937.5 199.609375 906.25 199.609375 c 1
 906.25 400.390625 l 1
685.15625 425 m 2
 698.046875 425 708.59375 414.453125 708.59375 401.5625 c 2
 708.59375 198.4375 l 2
 708.59375 185.546875 698.046875 175 685.15625 175 c 2
 148.4375 175 l 2
 135.546875 175 125 185.546875 125 198.4375 c 2
 125 401.5625 l 2
 125 414.453125 135.546875 425 148.4375 425 c 2
 685.15625 425 l 2
EndSplineSet
Validated: 1
Ligature2: "'liga' Standard Ligatures lookup 0-1" b a t t e r y underscore nine zero
Ligature2: "'liga' Standard Ligatures lookup 0-1" b a t t e r y underscore nine one
Ligature2: "'liga' Standard Ligatures lookup 0-1" b a t t e r y underscore nine two
Ligature2: "'liga' Standard Ligatures lookup 0-1" b a t t e r y underscore nine three
Ligature2: "'liga' Standard Ligatures lookup 0-1" b a t t e r y underscore nine four
Ligature2: "'liga' Standard Ligatures lookup 0-1" b a t t e r y underscore nine five
Ligature2: "'liga' Standard Ligatures lookup 0-1" b a t t e r y underscore nine six
Ligature2: "'liga' Standard Ligatures lookup 0-1" b a t t e r y underscore nine seven
Ligature2: "'liga' Standard Ligatures lookup 0-1" b a t t e r y underscore nine eight
Ligature2: "'liga' Standard Ligatures lookup 0-1" b a t t e r y underscore nine nine
Ligature2: "'liga' Standard Ligatures lookup 0-1" b a t t e r y underscore nine zero percent
Ligature2: "'liga' Standard Ligatures lookup 0-1" b a t t e r y underscore nine one percent
Ligature2: "'liga' Standard Ligatures lookup 0-1" b a t t e r y underscore nine two percent
Ligature2: "'liga' Standard Ligatures lookup 0-1" b a t t e r y underscore nine three percent
Ligature2: "'liga' Standard Ligatures lookup 0-1" b a t t e r y underscore nine four percent
Ligature2: "'liga' Standard Ligatures lookup 0-1" b a t t e r y underscore nine five percent
Ligature2: "'liga' Standard Ligatures lookup 0-1" b a t t e r y underscore nine six percent
Ligature2: "'liga' Standard Ligatures lookup 0-1" b a t t e r y underscore nine seven percent
Ligature2: "'liga' Standard Ligatures lookup 0-1" b a t t e r y underscore nine eight percent
Ligature2: "'liga' Standard Ligatures lookup 0-1" b a t t e r y underscore nine nine percent
EndChar

StartChar: battery_90_charging
Encoding: 69 983241 69
Width: 1000
VWidth: 0
HStem: 81.25 54.6875<90.7125 807.725> 175 250<125.069 390.625 515.625 708.525> 464.062 54.6875<90.7125 807.725>
VStem: 31.25 54.6875<140.713 459.287> 812.5 54.6875<140.713 459.287> 906.25 62.5<260.467 339.533>
CounterMasks: 1 e0
LayerCount: 2
Fore
SplineSet
773.4375 518.75 m 2
 825 518.75 867.1875 476.5625 867.1875 425 c 2
 867.1875 175 l 2
 867.1875 123.4375 825 81.25 773.4375 81.25 c 2
 125 81.25 l 2
 73.4375 81.25 31.25 123.4375 31.25 175 c 2
 31.25 425 l 2
 31.25 476.5625 73.4375 518.75 125 518.75 c 2
 773.4375 518.75 l 2
812.5 175 m 2
 812.5 425 l 2
 812.5 446.484375 794.921875 464.0625 773.4375 464.0625 c 2
 125 464.0625 l 2
 103.515625 464.0625 85.9375 446.484375 85.9375 425 c 2
 85.9375 175 l 2
 85.9375 153.515625 103.515625 135.9375 125 135.9375 c 2
 773.4375 135.9375 l 2
 794.921875 135.9375 812.5 153.515625 812.5 175 c 2
906.25 400.390625 m 1
 937.5 400.390625 968.75 346.2890625 968.75 300 c 0
 968.75 253.7109375 937.5 199.609375 906.25 199.609375 c 1
 906.25 400.390625 l 1
685.15625 425 m 2
 698.046875 425 708.59375 414.453125 708.59375 401.5625 c 2
 708.59375 198.4375 l 2
 708.59375 185.546875 698.046875 175 685.15625 175 c 2
 148.4375 175 l 2
 135.546875 175 125 185.546875 125 198.4375 c 2
 125 401.5625 l 2
 125 414.453125 135.546875 425 148.4375 425 c 2
 685.15625 425 l 2
427.34375 198.4375 m 1
 515.625 317.578125 l 1
 462.5 317.578125 l 1
 478.90625 401.5625 l 1
 390.625 282.421875 l 1
 443.75 282.421875 l 1
 427.34375 198.4375 l 1
EndSplineSet
Validated: 1
Ligature2: "'liga' Standard Ligatures lookup 0-1" b a t t e r y underscore nine nine percent underscore c h a r g i n g
Ligature2: "'liga' Standard Ligatures lookup 0-1" b a t t e r y underscore nine eight percent underscore c h a r g i n g
Ligature2: "'liga' Standard Ligatures lookup 0-1" b a t t e r y underscore nine seven percent underscore c h a r g i n g
Ligature2: "'liga' Standard Ligatures lookup 0-1" b a t t e r y underscore nine six percent underscore c h a r g i n g
Ligature2: "'liga' Standard Ligatures lookup 0-1" b a t t e r y underscore nine five percent underscore c h a r g i n g
Ligature2: "'liga' Standard Ligatures lookup 0-1" b a t t e r y underscore nine four percent underscore c h a r g i n g
Ligature2: "'liga' Standard Ligatures lookup 0-1" b a t t e r y underscore nine three percent underscore c h a r g i n g
Ligature2: "'liga' Standard Ligatures lookup 0-1" b a t t e r y underscore nine two percent underscore c h a r g i n g
Ligature2: "'liga' Standard Ligatures lookup 0-1" b a t t e r y underscore nine one percent underscore c h a r g i n g
Ligature2: "'liga' Standard Ligatures lookup 0-1" b a t t e r y underscore nine zero percent underscore c h a r g i n g
Ligature2: "'liga' Standard Ligatures lookup 0-1" b a t t e r y underscore nine nine underscore c h a r g i n g
Ligature2: "'liga' Standard Ligatures lookup 0-1" b a t t e r y underscore nine eight underscore c h a r g i n g
Ligature2: "'liga' Standard Ligatures lookup 0-1" b a t t e r y underscore nine seven underscore c h a r g i n g
Ligature2: "'liga' Standard Ligatures lookup 0-1" b a t t e r y underscore nine six underscore c h a r g i n g
Ligature2: "'liga' Standard Ligatures lookup 0-1" b a t t e r y underscore nine five underscore c h a r g i n g
Ligature2: "'liga' Standard Ligatures lookup 0-1" b a t t e r y underscore nine four underscore c h a r g i n g
Ligature2: "'liga' Standard Ligatures lookup 0-1" b a t t e r y underscore nine three underscore c h a r g i n g
Ligature2: "'liga' Standard Ligatures lookup 0-1" b a t t e r y underscore nine two underscore c h a r g i n g
Ligature2: "'liga' Standard Ligatures lookup 0-1" b a t t e r y underscore nine one underscore c h a r g i n g
Ligature2: "'liga' Standard Ligatures lookup 0-1" b a t t e r y underscore nine zero underscore c h a r g i n g
EndChar

StartChar: notifications
Encoding: 70 983280 70
Width: 1000
HStem: -90.625 103.516<461.599 537.903>
VStem: 452.539 95.3125<623.773 682.605>
LayerCount: 2
Fore
SplineSet
499.8046875 -90.625 m 0
 438.8671875 -90.625 405.6640625 -47.65625 405.6640625 12.890625 c 1
 593.75 12.890625 l 1
 593.75 -47.65625 560.546875 -90.625 499.8046875 -90.625 c 0
804.6875 112.109375 m 0
 824.0234375 86.71875 805.6640625 50 773.828125 50 c 2
 500.9765625 50 l 1
 226.7578125 50 l 2
 194.7265625 50 176.3671875 86.5234375 195.703125 112.109375 c 0
 225.78125 151.953125 284.9609375 175 284.9609375 352.5390625 c 0
 284.9609375 534.765625 365.234375 607.8125 440.4296875 625.5859375 c 0
 447.4609375 627.34375 452.5390625 629.8828125 452.5390625 637.109375 c 2
 452.5390625 642.7734375 l 2
 452.5390625 668.9453125 474.0234375 691.2109375 500.1953125 690.8203125 c 0
 526.3671875 691.015625 547.8515625 668.9453125 547.8515625 642.7734375 c 2
 547.8515625 637.109375 l 2
 547.8515625 629.6875 552.9296875 627.34375 559.9609375 625.5859375 c 0
 634.9609375 608.0078125 715.4296875 534.765625 715.4296875 352.5390625 c 0
 715.4296875 175 774.609375 151.7578125 804.6875 112.109375 c 0
EndSplineSet
Ligature2: "'liga' Standard Ligatures lookup 0-1" n o t i f i c a t i o n s
LCarets2: 12 0 0 0 0 0 0 0 0 0 0 0 0
EndChar

StartChar: notifications_off
Encoding: 71 983281 71
Width: 1000
HStem: -90.625 103.516<461.599 537.903>
VStem: 452.539 95.3125<623.773 682.605>
LayerCount: 2
Fore
SplineSet
499.8046875 -90.625 m 0
 438.8671875 -90.625 405.6640625 -47.65625 405.6640625 12.890625 c 1
 593.75 12.890625 l 1
 593.75 -47.65625 560.546875 -90.625 499.8046875 -90.625 c 0
301.7578125 692.578125 m 2
 746.2890625 -64.84375 l 2
 754.1015625 -77.9296875 749.609375 -94.921875 736.328125 -102.5390625 c 0
 731.8359375 -105.078125 726.953125 -106.25 722.265625 -106.25 c 0
 712.6953125 -106.25 703.3203125 -101.3671875 698.2421875 -92.578125 c 2
 253.90625 664.84375 l 2
 246.09375 677.9296875 250.5859375 694.921875 263.8671875 702.5390625 c 0
 268.1640625 704.8828125 272.8515625 706.25 277.34375 706.25 c 0
 277.5390625 706.25 277.734375 706.25 277.9296875 706.25 c 0
 278.515625 706.25 279.1015625 706.25 279.6875 706.25 c 1
 279.4921875 706.25 279.296875 706.25 279.1015625 706.25 c 1
 288.0859375 705.859375 296.875 700.9765625 301.7578125 692.578125 c 2
578.3203125 50 m 1
 500.5859375 50 l 1
 226.3671875 50 l 2
 194.3359375 50 175.9765625 86.5234375 195.3125 112.109375 c 0
 225.390625 151.953125 284.5703125 175 284.5703125 352.5390625 c 0
 284.5703125 416.2109375 294.53125 466.6015625 310.546875 506.0546875 c 1
 578.3203125 50 l 1
804.6875 112.109375 m 0
 824.0234375 86.71875 805.6640625 50 773.4375 50 c 2
 715.0390625 50 l 1
 389.84375 604.4921875 l 1
 406.25 614.84375 423.4375 621.6796875 440.4296875 625.5859375 c 0
 447.4609375 627.34375 452.5390625 629.8828125 452.5390625 637.109375 c 2
 452.5390625 642.7734375 l 2
 452.5390625 668.9453125 474.0234375 691.2109375 500.1953125 690.8203125 c 0
 526.3671875 691.015625 547.8515625 668.9453125 547.8515625 642.7734375 c 2
 547.8515625 637.109375 l 2
 547.8515625 629.6875 552.9296875 627.34375 559.9609375 625.5859375 c 0
 634.9609375 608.0078125 715.4296875 534.765625 715.4296875 352.5390625 c 0
 715.4296875 175 774.609375 151.7578125 804.6875 112.109375 c 0
EndSplineSet
Ligature2: "'liga' Standard Ligatures lookup 0-1" n o t i f i c a t i o n s underscore m u t e
Ligature2: "'liga' Standard Ligatures lookup 0-1" n o t i f i c a t i o n s underscore o f f
EndChar

StartChar: notifications_none
Encoding: 72 983282 72
Width: 1000
Flags: H
LayerCount: 2
Fore
SplineSet
565.8203125 12.890625 m 1
 565.8203125 12.890625 l 1
 582.03125 12.890625 594.140625 -2.34375 590.625 -18.1640625 c 0
 580.859375 -61.9140625 549.609375 -90.625 499.8046875 -90.625 c 0
 450 -90.625 418.75 -61.71875 408.984375 -18.1640625 c 0
 405.46875 -2.34375 417.3828125 12.890625 433.7890625 12.890625 c 1
 433.7890625 12.890625 l 1
 445.703125 12.890625 456.0546875 4.6875 458.59375 -7.03125 c 0
 460.546875 -15.8203125 463.8671875 -23.046875 468.359375 -28.3203125 c 0
 470.8984375 -31.0546875 478.3203125 -39.84375 499.8046875 -39.84375 c 0
 521.2890625 -39.84375 528.7109375 -31.25 531.25 -28.3203125 c 0
 535.7421875 -23.046875 539.0625 -15.8203125 541.015625 -7.03125 c 0
 543.5546875 4.6875 553.90625 12.890625 565.8203125 12.890625 c 1
804.6875 112.109375 m 0
 823.828125 86.71875 805.6640625 50 774.21875 50 c 2
 501.3671875 50 l 1
 227.1484375 50 l 2
 195.1171875 50 176.7578125 86.5234375 196.09375 112.109375 c 0
 226.171875 151.953125 285.3515625 175 285.3515625 352.5390625 c 0
 285.3515625 534.765625 365.625 607.8125 440.8203125 625.5859375 c 0
 447.8515625 627.34375 452.9296875 629.8828125 452.9296875 637.109375 c 2
 452.9296875 642.7734375 l 2
 452.9296875 668.75 474.0234375 690.8203125 499.8046875 690.8203125 c 0
 500 690.8203125 500.1953125 690.8203125 500.390625 690.8203125 c 0
 500.5859375 690.8203125 500.78125 690.8203125 500.9765625 690.8203125 c 0
 526.7578125 690.8203125 547.8515625 668.75 547.8515625 642.7734375 c 2
 547.8515625 637.109375 l 2
 547.8515625 629.6875 552.9296875 627.34375 559.9609375 625.5859375 c 0
 634.9609375 608.0078125 715.4296875 534.765625 715.4296875 352.5390625 c 0
 715.4296875 175 774.609375 151.7578125 804.6875 112.109375 c 0
728.515625 100.78125 m 2
 735.3515625 100.78125 738.8671875 108.7890625 734.5703125 114.0625 c 0
 720.703125 129.6875 705.2734375 150.5859375 692.578125 180.2734375 c 0
 673.828125 224.4140625 664.6484375 280.859375 664.6484375 352.5390625 c 0
 664.6484375 425.390625 650.9765625 482.421875 623.828125 522.0703125 c 0
 599.609375 557.6171875 569.3359375 571.09375 548.2421875 575.9765625 c 0
 534.9609375 579.1015625 521.484375 585.7421875 511.5234375 596.875 c 0
 505.2734375 603.90625 494.53125 603.515625 488.28125 596.484375 c 0
 480.078125 587.3046875 468.359375 579.8828125 451.953125 575.9765625 c 0
 430.859375 571.09375 400.5859375 557.6171875 376.3671875 522.0703125 c 0
 349.21875 482.421875 335.546875 425.390625 335.546875 352.5390625 c 0
 335.546875 280.859375 326.3671875 224.4140625 307.6171875 180.2734375 c 0
 295.3125 151.171875 280.2734375 130.6640625 266.6015625 115.0390625 c 0
 261.71875 109.375 265.625 100.78125 273.046875 100.78125 c 2
 728.515625 100.78125 l 2
565.8203125 12.890625 m 1
 565.8203125 12.890625 l 1
 582.03125 12.890625 594.140625 -2.34375 590.625 -18.1640625 c 0
 580.859375 -61.9140625 549.609375 -90.625 499.8046875 -90.625 c 0
 450 -90.625 418.75 -61.71875 408.984375 -18.1640625 c 0
 405.46875 -2.34375 417.3828125 12.890625 433.7890625 12.890625 c 1
 433.7890625 12.890625 l 1
 445.703125 12.890625 456.0546875 4.6875 458.59375 -7.03125 c 0
 460.546875 -15.8203125 463.8671875 -23.046875 468.359375 -28.3203125 c 0
 470.8984375 -31.0546875 478.3203125 -39.84375 499.8046875 -39.84375 c 0
 521.2890625 -39.84375 528.7109375 -31.25 531.25 -28.3203125 c 0
 535.7421875 -23.046875 539.0625 -15.8203125 541.015625 -7.03125 c 0
 543.5546875 4.6875 553.90625 12.890625 565.8203125 12.890625 c 1
804.6875 112.109375 m 0
 823.828125 86.71875 805.6640625 50 774.21875 50 c 2
 501.3671875 50 l 1
 227.1484375 50 l 2
 195.1171875 50 176.7578125 86.5234375 196.09375 112.109375 c 0
 226.171875 151.953125 285.3515625 175 285.3515625 352.5390625 c 0
 285.3515625 534.765625 365.625 607.8125 440.8203125 625.5859375 c 0
 447.8515625 627.34375 452.9296875 629.8828125 452.9296875 637.109375 c 2
 452.9296875 642.7734375 l 2
 452.9296875 668.75 474.0234375 690.8203125 499.8046875 690.8203125 c 0
 500 690.8203125 500.1953125 690.8203125 500.390625 690.8203125 c 0
 500.5859375 690.8203125 500.78125 690.8203125 500.9765625 690.8203125 c 0
 526.7578125 690.8203125 547.8515625 668.75 547.8515625 642.7734375 c 2
 547.8515625 637.109375 l 2
 547.8515625 629.6875 552.9296875 627.34375 559.9609375 625.5859375 c 0
 634.9609375 608.0078125 715.4296875 534.765625 715.4296875 352.5390625 c 0
 715.4296875 175 774.609375 151.7578125 804.6875 112.109375 c 0
728.515625 100.78125 m 2
 735.3515625 100.78125 738.8671875 108.7890625 734.5703125 114.0625 c 0
 720.703125 129.6875 705.2734375 150.5859375 692.578125 180.2734375 c 0
 673.828125 224.4140625 664.6484375 280.859375 664.6484375 352.5390625 c 0
 664.6484375 425.390625 650.9765625 482.421875 623.828125 522.0703125 c 0
 599.609375 557.6171875 569.3359375 571.09375 548.2421875 575.9765625 c 0
 534.9609375 579.1015625 521.484375 585.7421875 511.5234375 596.875 c 0
 505.2734375 603.90625 494.53125 603.515625 488.28125 596.484375 c 0
 480.078125 587.3046875 468.359375 579.8828125 451.953125 575.9765625 c 0
 430.859375 571.09375 400.5859375 557.6171875 376.3671875 522.0703125 c 0
 349.21875 482.421875 335.546875 425.390625 335.546875 352.5390625 c 0
 335.546875 280.859375 326.3671875 224.4140625 307.6171875 180.2734375 c 0
 295.3125 151.171875 280.2734375 130.6640625 266.6015625 115.0390625 c 0
 261.71875 109.375 265.625 100.78125 273.046875 100.78125 c 2
 728.515625 100.78125 l 2
EndSplineSet
Ligature2: "'liga' Standard Ligatures lookup 0-1" n o t i f i c a t i o n s underscore n o n e
LCarets2: 4 0 0 0 0
EndChar

StartChar: moon
Encoding: 73 1044480 73
Width: 1000
Flags: H
LayerCount: 2
Fore
SplineSet
783.984375 108.203125 m 0
 801.171875 108.984375 817.96875 109.1796875 834.5703125 112.5 c 0
 841.2109375 113.671875 846.09375 106.4453125 842.578125 100.5859375 c 0
 833.0078125 84.9609375 822.265625 72.0703125 810.546875 58.0078125 c 0
 742.3828125 -23.4375 640.8203125 -75 527.5390625 -75 c 0
 322.4609375 -75 156.25 93.75 156.25 301.953125 c 0
 156.25 470.5078125 263.8671875 613.4765625 415.8203125 661.71875 c 0
 440.234375 669.3359375 458.203125 673.2421875 469.921875 675 c 0
 476.5625 676.171875 481.25 668.75 477.5390625 663.0859375 c 0
 469.140625 649.8046875 457.03125 630.2734375 450.9765625 617.3828125 c 0
 428.7109375 570.1171875 416.796875 517.7734375 416.796875 463.671875 c 0
 416.796875 368.5546875 453.125 279.296875 519.3359375 212.109375 c 0
 585.3515625 144.7265625 673.4375 107.8125 766.9921875 107.8125 c 0
 772.65625 107.8125 778.3203125 108.0078125 783.984375 108.203125 c 0
EndSplineSet
Ligature2: "'liga' Standard Ligatures lookup 0-1" m o o n
EndChar

StartChar: infinite
Encoding: 74 1044481 74
Width: 1000
Flags: H
LayerCount: 2
Fore
SplineSet
892.1875 443.75 m 0
 931.4453125 405.46875 953.125 354.296875 952.734375 299.8046875 c 0
 952.734375 245.3125 931.0546875 194.3359375 891.6015625 156.0546875 c 0
 852.5390625 117.7734375 800.390625 96.6796875 744.7265625 96.6796875 c 0
 689.453125 96.6796875 637.3046875 117.7734375 597.8515625 156.0546875 c 2
 352.734375 395.3125 l 2
 326.3671875 420.8984375 291.6015625 434.9609375 254.4921875 434.9609375 c 0
 217.3828125 434.9609375 182.6171875 420.8984375 156.25 395.3125 c 0
 130.2734375 369.921875 115.8203125 336.1328125 115.8203125 300.1953125 c 0
 115.8203125 264.0625 130.078125 230.078125 156.25 204.4921875 c 0
 182.6171875 178.90625 217.3828125 164.84375 254.4921875 164.84375 c 0
 291.6015625 164.84375 326.3671875 178.90625 352.734375 204.4921875 c 2
 413.28125 262.890625 l 2
 416.40625 265.8203125 421.2890625 265.8203125 424.21875 262.890625 c 2
 462.109375 225.9765625 l 2
 465.234375 223.046875 465.234375 217.96875 462.109375 214.84375 c 2
 401.5625 156.25 l 2
 362.5 117.96875 310.3515625 96.875 254.6875 96.875 c 0
 199.21875 96.875 146.875 117.96875 107.8125 156.25 c 0
 68.5546875 194.53125 46.875 245.703125 46.875 300 c 0
 46.875 354.4921875 68.5546875 405.46875 107.8125 443.75 c 0
 146.875 482.03125 199.0234375 503.125 254.6875 503.125 c 0
 309.9609375 503.125 362.109375 482.03125 401.5625 443.75 c 2
 646.875 204.6875 l 2
 673.2421875 179.1015625 708.0078125 165.0390625 745.1171875 165.0390625 c 0
 782.2265625 165.0390625 816.9921875 179.1015625 843.359375 204.6875 c 0
 869.3359375 229.8828125 883.7890625 263.8671875 883.7890625 299.8046875 c 0
 883.7890625 335.9375 869.53125 369.921875 843.359375 395.5078125 c 0
 816.9921875 421.09375 782.2265625 435.15625 745.1171875 435.15625 c 0
 708.0078125 435.15625 673.2421875 421.09375 646.875 395.5078125 c 2
 586.328125 336.71875 l 2
 583.203125 333.7890625 578.3203125 333.7890625 575.390625 336.71875 c 2
 537.5 374.0234375 l 2
 534.375 376.953125 534.375 382.03125 537.5 385.15625 c 2
 598.4375 443.75 l 2
 637.5 482.03125 689.6484375 503.125 745.3125 503.125 c 0
 800.78125 503.125 853.125 482.03125 892.1875 443.75 c 0
EndSplineSet
Ligature2: "'liga' Standard Ligatures lookup 0-1" i n f i n i t e
EndChar

StartChar: eye
Encoding: 75 1044482 75
Width: 1000
Flags: H
LayerCount: 2
Fore
SplineSet
499.609375 581.25 m 0
 686.5234375 581.25 828.125 444.921875 930.46875 320.8984375 c 0
 940.4296875 308.984375 939.84375 291.796875 929.4921875 280.46875 c 0
 829.1015625 170.5078125 687.890625 18.75 499.609375 18.75 c 0
 308.984375 18.75 197.265625 139.2578125 70.5078125 279.296875 c 0
 59.765625 291.2109375 59.9609375 308.984375 70.703125 320.8984375 c 0
 218.75 482.421875 342.578125 581.25 499.609375 581.25 c 0
508.203125 124.4140625 m 0
 598.4375 128.515625 671.484375 201.5625 675.5859375 291.796875 c 0
 680.46875 395.1171875 595.3125 480.2734375 491.796875 475.5859375 c 0
 401.5625 471.484375 328.515625 398.4375 324.4140625 308.203125 c 0
 319.53125 204.8828125 404.6875 119.7265625 508.203125 124.4140625 c 0
500 391.796875 m 0
 500 341.2109375 540.0390625 300 589.2578125 300 c 0
 601.953125 300 613.8671875 302.734375 624.8046875 307.6171875 c 1
 624.8046875 305.078125 625 302.5390625 625 300 c 0
 625 227.9296875 563.671875 169.921875 490.4296875 175.390625 c 0
 429.296875 180.078125 380.078125 229.296875 375.390625 290.4296875 c 0
 369.921875 363.671875 427.9296875 425 500 425 c 0
 502.1484375 425 504.1015625 424.8046875 506.0546875 424.8046875 c 1
 502.1484375 414.6484375 500 403.515625 500 391.796875 c 0
EndSplineSet
Ligature2: "'liga' Standard Ligatures lookup 0-1" e y e
LCarets2: 2 0 0
EndChar

StartChar: eye_off
Encoding: 76 1044483 76
Width: 1000
Flags: H
LayerCount: 2
Fore
SplineSet
172.4609375 666.9921875 m 2
 866.796875 -27.734375 l 2
 877.5390625 -38.4765625 877.5390625 -56.0546875 866.796875 -66.796875 c 0
 863.28125 -70.3125 858.984375 -72.8515625 854.296875 -74.0234375 c 0
 845.1171875 -76.5625 834.765625 -74.21875 827.5390625 -66.9921875 c 2
 133.203125 627.734375 l 2
 122.4609375 638.4765625 122.4609375 656.0546875 133.203125 666.796875 c 0
 143.9453125 677.734375 161.5234375 677.734375 172.4609375 666.9921875 c 2
508.203125 124.4140625 m 0
 532.03125 125.5859375 554.6875 131.4453125 575.390625 141.2109375 c 1
 660.3515625 56.25 l 1
 611.1328125 33.203125 557.6171875 18.75 499.609375 18.75 c 0
 308.984375 18.75 197.265625 139.2578125 70.5078125 279.296875 c 0
 59.765625 291.2109375 59.9609375 308.984375 70.703125 320.8984375 c 0
 128.7109375 384.1796875 182.8125 437.890625 236.9140625 479.6875 c 1
 341.2109375 375.1953125 l 1
 331.4453125 354.6875 325.5859375 332.03125 324.4140625 308.203125 c 0
 319.53125 204.8828125 404.6875 119.7265625 508.203125 124.4140625 c 0
929.296875 280.46875 m 0
 883.0078125 229.4921875 827.734375 169.7265625 763.28125 120.3125 c 1
 658.7890625 224.8046875 l 1
 668.5546875 245.3125 674.4140625 267.96875 675.5859375 291.796875 c 0
 680.46875 395.1171875 595.3125 480.2734375 491.796875 475.5859375 c 0
 467.96875 474.609375 445.3125 468.5546875 424.8046875 458.7890625 c 1
 339.453125 544.140625 l 1
 390.234375 568.359375 442.7734375 581.25 499.609375 581.25 c 0
 686.5234375 581.25 828.125 444.921875 930.2734375 320.8984375 c 0
 940.234375 308.984375 939.6484375 291.796875 929.296875 280.46875 c 0
375.390625 290.4296875 m 0
 374.21875 306.4453125 375.9765625 321.875 380.2734375 336.328125 c 1
 536.1328125 180.46875 l 1
 521.875 175.9765625 506.4453125 174.21875 490.4296875 175.390625 c 0
 429.296875 180.078125 380.078125 229.296875 375.390625 290.4296875 c 0
625 300 m 0
 625 287.5 623.046875 275.1953125 619.53125 263.671875 c 1
 583.203125 300.1953125 l 1
 585.15625 300 587.109375 300 589.2578125 300 c 0
 601.953125 300 613.8671875 302.734375 624.8046875 307.6171875 c 1
 624.8046875 305.078125 625 302.5390625 625 300 c 0
500 391.796875 m 0
 500 388.8671875 500.1953125 385.9375 500.390625 383.0078125 c 1
 463.8671875 419.53125 l 1
 475.390625 423.046875 487.5 425 500 425 c 0
 502.1484375 425 504.1015625 424.8046875 506.0546875 424.8046875 c 1
 502.1484375 414.6484375 500 403.515625 500 391.796875 c 0
EndSplineSet
Ligature2: "'liga' Standard Ligatures lookup 0-1" e y e underscore o f f
EndChar

StartChar: mail
Encoding: 77 983283 77
Width: 1000
Flags: H
LayerCount: 2
Fore
SplineSet
899.609375 512.3046875 m 2
 901.953125 514.6484375 906.25 513.0859375 906.25 509.5703125 c 2
 906.25 81.25 l 2
 906.25 46.875 878.125 18.75 843.75 18.75 c 2
 156.25 18.75 l 2
 121.875 18.75 93.75 46.875 93.75 81.25 c 2
 93.75 509.5703125 l 2
 93.75 513.0859375 97.8515625 514.84375 100.390625 512.3046875 c 2
 310.7421875 298.2421875 l 2
 312.109375 296.6796875 312.109375 294.3359375 310.7421875 292.7734375 c 2
 163.671875 136.1328125 l 2
 153.7109375 126.171875 153.7109375 110.15625 163.671875 100.1953125 c 0
 168.5546875 95.3125 175.1953125 92.7734375 181.640625 92.7734375 c 0
 188.0859375 92.7734375 194.7265625 95.3125 199.609375 100.1953125 c 2
 346.09375 256.25 l 2
 347.65625 257.8125 350.1953125 257.8125 351.7578125 256.25 c 2
 386.1328125 221.2890625 l 2
 416.40625 190.625 457.421875 172.4609375 500.5859375 172.65625 c 0
 543.1640625 172.8515625 582.8125 189.6484375 612.6953125 219.921875 c 2
 648.4375 256.25 l 2
 650 257.8125 652.5390625 257.8125 654.1015625 256.25 c 2
 800.5859375 100.1953125 l 2
 805.46875 95.3125 812.109375 92.7734375 818.5546875 92.7734375 c 0
 825 92.7734375 831.640625 95.3125 836.5234375 100.1953125 c 0
 846.484375 110.15625 846.484375 126.171875 836.5234375 136.1328125 c 2
 689.453125 292.7734375 l 2
 687.890625 294.3359375 687.890625 296.6796875 689.453125 298.2421875 c 2
 899.609375 512.3046875 l 2
500 223.6328125 m 0
 471.09375 223.6328125 443.9453125 235.15625 423.828125 255.6640625 c 2
 117.3828125 567.578125 l 1
 127.9296875 576.171875 141.40625 581.25 156.0546875 581.25 c 2
 844.140625 581.25 l 2
 858.7890625 581.25 872.0703125 576.171875 882.8125 567.578125 c 1
 576.3671875 255.6640625 l 2
 556.0546875 234.9609375 528.90625 223.6328125 500 223.6328125 c 0
EndSplineSet
Ligature2: "'liga' Standard Ligatures lookup 0-1" m a i l
EndChar

StartChar: mail_unread
Encoding: 78 983284 78
Width: 1000
Flags: H
LayerCount: 2
Fore
SplineSet
718.75 503.125 m 0
 718.75 554.901367188 760.723632812 596.875 812.5 596.875 c 0
 864.276367188 596.875 906.25 554.901367188 906.25 503.125 c 0
 906.25 451.348632812 864.276367188 409.375 812.5 409.375 c 0
 760.723632812 409.375 718.75 451.348632812 718.75 503.125 c 0
812.5 373.2421875 m 0
 849.4140625 373.2421875 882.6171875 388.671875 906.25 413.28125 c 1
 906.25 65.625 l 2
 906.25 31.25 878.125 3.125 843.75 3.125 c 2
 156.25 3.125 l 2
 121.875 3.125 93.75 31.25 93.75 65.625 c 2
 93.75 493.9453125 l 2
 93.75 497.4609375 97.8515625 499.21875 100.390625 496.6796875 c 2
 310.7421875 282.6171875 l 2
 312.109375 281.0546875 312.109375 278.7109375 310.7421875 277.1484375 c 2
 163.671875 120.5078125 l 2
 153.7109375 110.546875 153.7109375 94.53125 163.671875 84.5703125 c 0
 168.5546875 79.6875 175.1953125 77.1484375 181.640625 77.1484375 c 0
 188.0859375 77.1484375 194.7265625 79.6875 199.609375 84.5703125 c 2
 346.09375 240.625 l 2
 347.65625 242.1875 350.1953125 242.1875 351.7578125 240.625 c 2
 386.1328125 205.6640625 l 2
 416.40625 175 457.421875 156.8359375 500.5859375 157.03125 c 0
 543.1640625 157.2265625 582.8125 174.0234375 612.6953125 204.296875 c 2
 648.4375 240.625 l 2
 650 242.1875 652.5390625 242.1875 654.1015625 240.625 c 2
 800.5859375 84.5703125 l 2
 805.46875 79.6875 812.109375 77.1484375 818.5546875 77.1484375 c 0
 825 77.1484375 831.640625 79.6875 836.5234375 84.5703125 c 0
 846.484375 94.53125 846.484375 110.546875 836.5234375 120.5078125 c 2
 689.453125 277.1484375 l 2
 687.890625 278.7109375 687.890625 281.0546875 689.453125 282.6171875 c 2
 782.03125 376.953125 l 1
 791.796875 374.609375 801.953125 373.2421875 812.5 373.2421875 c 0
682.6171875 503.125 m 0
 682.6171875 461.1328125 702.5390625 423.828125 733.7890625 400 c 1
 576.5625 240.0390625 l 2
 556.25 219.3359375 529.1015625 208.0078125 500.1953125 208.0078125 c 0
 471.2890625 208.0078125 444.140625 219.3359375 423.828125 240.0390625 c 2
 117.3828125 551.953125 l 1
 127.9296875 560.546875 141.40625 565.625 156.0546875 565.625 c 2
 698.6328125 565.625 l 1
 688.4765625 547.0703125 682.6171875 525.78125 682.6171875 503.125 c 0
EndSplineSet
Ligature2: "'liga' Standard Ligatures lookup 0-1" m a i l underscore u n r e a d
EndChar

StartChar: mail_open
Encoding: 79 983285 79
Width: 1000
Flags: H
LayerCount: 2
Fore
SplineSet
885.7421875 390.234375 m 0
 893.359375 382.2265625 906.25 363.8671875 906.25 341.015625 c 0
 906.25 327.34375 906.25 -75 906.25 -75 c 2
 906.25 -109.375 878.125 -137.5 843.75 -137.5 c 2
 156.25 -137.5 l 2
 121.875 -137.5 93.75 -109.375 93.75 -75 c 2
 93.75 -75 93.75 322.8515625 93.75 339.0625 c 0
 93.75 361.1328125 105.2734375 380.6640625 114.2578125 390.0390625 c 0
 123.4375 399.609375 423.4375 705.2734375 423.4375 705.2734375 c 2
 443.75 726.171875 470.8984375 737.5 500 737.5 c 0
 529.1015625 737.5 556.25 726.171875 576.5625 705.46875 c 2
 576.5625 705.46875 877.9296875 398.046875 885.7421875 390.234375 c 0
847.8515625 307.6171875 m 2
 866.796875 326.7578125 849.0234375 377.9296875 816.796875 377.734375 c 0
 784.5703125 377.734375 219.3359375 377.734375 183.203125 377.734375 c 0
 147.0703125 377.734375 132.8125 327.1484375 151.7578125 307.8125 c 2
 310.7421875 142.1875 l 2
 312.109375 140.625 312.109375 138.28125 310.7421875 136.71875 c 2
 163.671875 -19.921875 l 2
 153.7109375 -29.8828125 153.7109375 -45.8984375 163.671875 -55.859375 c 0
 168.5546875 -60.7421875 175.1953125 -63.28125 181.640625 -63.28125 c 0
 188.0859375 -63.28125 194.7265625 -60.7421875 199.609375 -55.859375 c 2
 494.3359375 258.7890625 l 2
 497.265625 262.109375 502.5390625 262.109375 505.6640625 258.7890625 c 2
 800.5859375 -56.0546875 l 2
 805.46875 -60.9375 812.109375 -63.4765625 818.5546875 -63.4765625 c 0
 825 -63.4765625 831.640625 -60.9375 836.5234375 -56.0546875 c 0
 846.484375 -46.09375 846.484375 -30.078125 836.5234375 -20.1171875 c 2
 689.453125 136.5234375 l 2
 687.890625 138.0859375 687.890625 140.4296875 689.453125 141.9921875 c 2
 847.8515625 307.6171875 l 2
EndSplineSet
Ligature2: "'liga' Standard Ligatures lookup 0-1" m a i l underscore o p e n
EndChar

StartChar: bluetooth
Encoding: 80 983211 80
Width: 1000
Flags: H
LayerCount: 2
Fore
SplineSet
739.2578125 149.609375 m 2
 752.734375 137.6953125 753.7109375 117.578125 741.40625 104.6875 c 2
 513.4765625 -130.6640625 l 2
 509.1796875 -134.9609375 503.3203125 -137.5 497.0703125 -137.5 c 1
 497.0703125 -137.5 l 1
 484.5703125 -137.5 474.609375 -127.734375 474.609375 -115.625 c 2
 474.609375 216.015625 l 1
 308.59375 72.265625 l 2
 294.53125 60.15625 273.046875 61.5234375 260.7421875 75.1953125 c 2
 260.15625 75.78125 l 2
 247.65625 89.6484375 249.21875 110.546875 263.4765625 122.4609375 c 2
 474.609375 300 l 1
 262.109375 479.1015625 l 2
 247.65625 491.2109375 246.2890625 512.5 258.984375 526.171875 c 1
 258.984375 526.171875 l 1
 271.2890625 539.453125 292.1875 540.8203125 306.0546875 529.1015625 c 2
 474.609375 385.9375 l 1
 474.609375 716.40625 l 2
 474.609375 727.9296875 484.375 737.5 496.2890625 737.5 c 1
 496.2890625 737.5 l 1
 502.5390625 737.5 508.7890625 734.9609375 513.0859375 730.46875 c 2
 741.2109375 493.359375 l 2
 753.515625 480.46875 752.5390625 460.3515625 739.0625 448.6328125 c 2
 566.796875 300 l 1
 739.2578125 149.609375 l 2
545.703125 602.9296875 m 2
 543.359375 605.46875 538.8671875 603.90625 538.671875 600.1953125 c 2
 538.671875 367.96875 l 2
 538.671875 364.6484375 542.7734375 362.890625 545.3125 365.0390625 c 2
 667.7734375 468.5546875 l 2
 669.53125 470.1171875 669.7265625 472.65625 668.1640625 474.21875 c 2
 545.703125 602.9296875 l 2
538.8671875 -0.5859375 m 2
 538.8671875 -4.1015625 543.359375 -5.859375 545.8984375 -3.3203125 c 2
 668.359375 124.21875 l 2
 669.7265625 125.9765625 669.7265625 128.515625 667.96875 129.8828125 c 2
 545.5078125 233.3984375 l 2
 542.96875 235.546875 538.8671875 233.7890625 538.8671875 230.46875 c 2
 538.8671875 -0.5859375 l 2
EndSplineSet
Ligature2: "'liga' Standard Ligatures lookup 0-1" b l u e t o o t h
EndChar

StartChar: cellular
Encoding: 81 983212 81
Width: 1000
Flags: H
LayerCount: 2
Fore
SplineSet
797.65625 698.828125 m 0
 867.578125 633.203125 906.25 545.703125 906.25 452.1484375 c 1
 906.25 452.1484375 l 1
 906.25 451.953125 l 1
 906.25 451.953125 l 1
 906.25 358.3984375 867.7734375 270.703125 797.65625 205.078125 c 0
 792.578125 200.390625 785.9375 197.65625 778.7109375 197.65625 c 0
 771.2890625 197.65625 764.453125 200.390625 759.375 205.2734375 c 0
 754.1015625 210.3515625 751.3671875 216.9921875 751.3671875 224.0234375 c 0
 751.3671875 231.25 754.296875 237.890625 759.5703125 242.7734375 c 0
 818.9453125 298.6328125 851.5625 372.8515625 851.5625 451.953125 c 1
 851.5625 451.953125 l 1
 851.5625 531.25 818.9453125 605.46875 759.5703125 661.1328125 c 0
 754.296875 666.2109375 751.3671875 672.8515625 751.3671875 679.8828125 c 0
 751.3671875 686.9140625 754.1015625 693.5546875 759.375 698.6328125 c 0
 764.6484375 703.515625 771.484375 706.25 778.7109375 706.25 c 0
 785.7421875 706.25 792.578125 703.7109375 797.65625 698.828125 c 0
685.546875 610.9375 m 0
 730.078125 568.5546875 754.6875 512.3046875 754.6875 452.34375 c 1
 754.6875 452.34375 l 1
 754.6875 452.1484375 l 1
 754.6875 452.1484375 l 1
 754.6875 391.9921875 730.078125 335.7421875 685.546875 293.359375 c 0
 680.859375 289.0625 674.609375 286.5234375 667.96875 286.5234375 c 0
 661.328125 286.5234375 655.2734375 288.8671875 650.5859375 293.1640625 c 0
 645.703125 297.65625 642.96875 303.7109375 642.96875 310.15625 c 0
 642.96875 316.6015625 645.5078125 322.65625 650.390625 327.1484375 c 0
 685.3515625 360.3515625 704.6875 404.8828125 704.6875 452.1484375 c 1
 704.6875 452.1484375 l 1
 704.6875 499.4140625 685.546875 543.9453125 650.390625 577.1484375 c 0
 645.5078125 581.640625 642.96875 587.6953125 642.96875 594.140625 c 0
 642.96875 600.5859375 645.703125 606.640625 650.5859375 611.1328125 c 0
 655.2734375 615.4296875 661.5234375 617.7734375 667.96875 617.7734375 c 0
 674.609375 617.7734375 680.859375 615.4296875 685.546875 610.9375 c 0
240.4296875 661.1328125 m 0
 181.0546875 605.46875 148.2421875 531.25 148.4375 451.953125 c 1
 148.4375 451.953125 l 1
 148.4375 372.65625 181.0546875 298.4375 240.4296875 242.7734375 c 0
 245.703125 237.6953125 248.6328125 231.0546875 248.6328125 224.0234375 c 0
 248.6328125 216.9921875 245.8984375 210.3515625 240.625 205.2734375 c 0
 235.3515625 200.390625 228.515625 197.65625 221.2890625 197.65625 c 0
 214.2578125 197.65625 207.421875 200.1953125 202.34375 205.078125 c 0
 132.421875 270.703125 93.75 358.203125 93.75 451.5625 c 1
 93.75 451.5625 l 1
 93.75 451.953125 l 2
 93.75 545.5078125 132.2265625 633.203125 202.34375 698.828125 c 0
 207.421875 703.515625 214.0625 706.25 221.2890625 706.25 c 1
 221.2890625 706.25 l 1
 228.7109375 706.25 235.546875 703.515625 240.625 698.6328125 c 0
 245.8984375 693.5546875 248.6328125 686.9140625 248.6328125 679.8828125 c 0
 248.6328125 672.65625 245.703125 666.015625 240.4296875 661.1328125 c 0
349.609375 577.1484375 m 0
 314.453125 543.75 295.1171875 499.4140625 295.3125 452.1484375 c 1
 295.3125 452.1484375 l 1
 295.3125 404.8828125 314.453125 360.3515625 349.609375 327.1484375 c 0
 354.4921875 322.65625 357.03125 316.6015625 357.03125 310.15625 c 0
 357.03125 303.7109375 354.296875 297.65625 349.4140625 293.1640625 c 0
 344.7265625 288.8671875 338.4765625 286.5234375 332.03125 286.5234375 c 0
 325.390625 286.5234375 319.140625 288.8671875 314.453125 293.359375 c 0
 269.921875 335.546875 245.3125 391.796875 245.3125 451.953125 c 1
 245.3125 451.953125 l 1
 245.3125 452.1484375 l 2
 245.3125 512.3046875 269.921875 568.5546875 314.453125 610.9375 c 0
 319.140625 615.234375 325.390625 617.7734375 332.03125 617.7734375 c 0
 338.671875 617.7734375 344.7265625 615.4296875 349.4140625 611.1328125 c 0
 354.296875 606.640625 357.03125 600.5859375 357.03125 594.140625 c 0
 357.03125 587.6953125 354.4921875 581.640625 349.609375 577.1484375 c 0
500 559.375 m 0
 551.7578125 559.375 593.75 517.3828125 593.75 465.625 c 0
 593.75 423.4375 565.8203125 387.6953125 527.34375 375.9765625 c 1
 527.34375 -79.1015625 l 2
 527.34375 -94.140625 515.0390625 -106.25 500 -106.25 c 0
 484.9609375 -106.25 472.65625 -94.140625 472.65625 -79.1015625 c 2
 472.65625 375.9765625 l 1
 434.1796875 387.6953125 406.25 423.4375 406.25 465.625 c 0
 406.25 517.3828125 448.2421875 559.375 500 559.375 c 0
EndSplineSet
Ligature2: "'liga' Standard Ligatures lookup 0-1" c e l l u l a r
EndChar

StartChar: crop
Encoding: 82 983044 82
Width: 1000
Flags: H
LayerCount: 2
Fore
SplineSet
277.34375 675 m 1
 292.3828125 675 304.6875 662.6953125 304.6875 647.65625 c 2
 304.6875 608.59375 l 2
 304.6875 593.5546875 292.3828125 581.25 277.34375 581.25 c 1
 277.34375 581.25 l 1
 262.3046875 581.25 250 593.5546875 250 608.59375 c 2
 250 647.65625 l 2
 250 662.6953125 262.3046875 675 277.34375 675 c 1
 277.34375 675 l 1
304.6875 132.03125 m 2
 304.6875 116.9921875 316.9921875 104.6875 332.03125 104.6875 c 2
 628.90625 104.6875 l 2
 643.9453125 104.6875 656.25 92.3828125 656.25 77.34375 c 1
 656.25 77.34375 l 1
 656.25 62.3046875 643.9453125 50 628.90625 50 c 2
 304.6875 50 l 2
 274.4140625 50 250 74.4140625 250 104.6875 c 2
 250 428.90625 l 2
 250 443.9453125 262.3046875 456.25 277.34375 456.25 c 1
 277.34375 456.25 l 1
 292.3828125 456.25 304.6875 443.9453125 304.6875 428.90625 c 2
 304.6875 132.03125 l 2
847.65625 104.6875 m 2
 862.6953125 104.6875 875 92.3828125 875 77.34375 c 1
 875 77.34375 l 1
 875 62.3046875 862.6953125 50 847.65625 50 c 2
 808.59375 50 l 2
 793.5546875 50 781.25 62.3046875 781.25 77.34375 c 1
 781.25 77.34375 l 1
 781.25 92.3828125 793.5546875 104.6875 808.59375 104.6875 c 2
 847.65625 104.6875 l 2
125 522.65625 m 1
 125 537.6953125 137.3046875 550 152.34375 550 c 2
 695.3125 550 l 2
 725.5859375 550 750 525.5859375 750 495.3125 c 2
 750 -47.65625 l 2
 750 -62.6953125 737.6953125 -75 722.65625 -75 c 1
 722.65625 -75 l 1
 707.6171875 -75 695.3125 -62.6953125 695.3125 -47.65625 c 2
 695.3125 467.96875 l 2
 695.3125 483.0078125 683.0078125 495.3125 667.96875 495.3125 c 2
 152.34375 495.3125 l 2
 137.3046875 495.3125 125 507.6171875 125 522.65625 c 1
 125 522.65625 l 1
EndSplineSet
Ligature2: "'liga' Standard Ligatures lookup 0-1" c r o p
EndChar

StartChar: radio_button_on
Encoding: 83 983045 83
Width: 1000
Flags: H
LayerCount: 2
Fore
SplineSet
500 651.5625 m 0
 406.0546875 651.5625 317.7734375 615.0390625 251.3671875 548.6328125 c 0
 184.9609375 482.2265625 148.4375 393.9453125 148.4375 300 c 0
 148.4375 206.0546875 184.9609375 117.7734375 251.3671875 51.3671875 c 0
 317.7734375 -15.0390625 406.0546875 -51.5625 500 -51.5625 c 0
 593.9453125 -51.5625 682.2265625 -15.0390625 748.6328125 51.3671875 c 0
 815.0390625 117.7734375 851.5625 206.0546875 851.5625 300 c 0
 851.5625 393.9453125 815.0390625 482.2265625 748.6328125 548.6328125 c 0
 682.2265625 615.0390625 593.9453125 651.5625 500 651.5625 c 0
500 706.25 m 1
 500 706.25 l 1
 724.4140625 706.25 906.25 524.4140625 906.25 300 c 0
 906.25 75.5859375 724.4140625 -106.25 500 -106.25 c 0
 275.5859375 -106.25 93.75 75.5859375 93.75 300 c 0
 93.75 524.4140625 275.5859375 706.25 500 706.25 c 1
709.9609375 509.9609375 m 0
 766.015625 453.90625 796.875 379.296875 796.875 300 c 0
 796.875 220.703125 766.015625 146.09375 709.9609375 90.0390625 c 0
 653.90625 33.984375 579.296875 3.125 500 3.125 c 0
 420.703125 3.125 346.09375 33.984375 290.0390625 90.0390625 c 0
 233.984375 146.09375 203.125 220.703125 203.125 300 c 0
 203.125 379.296875 233.984375 453.90625 290.0390625 509.9609375 c 0
 346.09375 566.015625 420.703125 596.875 500 596.875 c 0
 579.296875 596.875 653.90625 566.015625 709.9609375 509.9609375 c 0
EndSplineSet
Ligature2: "'liga' Standard Ligatures lookup 0-1" r a d i o underscore b u t t o n underscore o n
EndChar

StartChar: radio_button_off
Encoding: 84 983046 84
Width: 1000
Flags: H
LayerCount: 2
Fore
SplineSet
500 651.5625 m 0
 406.0546875 651.5625 317.7734375 615.0390625 251.3671875 548.6328125 c 0
 184.9609375 482.2265625 148.4375 393.9453125 148.4375 300 c 0
 148.4375 206.0546875 184.9609375 117.7734375 251.3671875 51.3671875 c 0
 317.7734375 -15.0390625 406.0546875 -51.5625 500 -51.5625 c 0
 593.9453125 -51.5625 682.2265625 -15.0390625 748.6328125 51.3671875 c 0
 815.0390625 117.7734375 851.5625 206.0546875 851.5625 300 c 0
 851.5625 393.9453125 815.0390625 482.2265625 748.6328125 548.6328125 c 0
 682.2265625 615.0390625 593.9453125 651.5625 500 651.5625 c 0
500 706.25 m 1
 500 706.25 l 1
 724.4140625 706.25 906.25 524.4140625 906.25 300 c 0
 906.25 75.5859375 724.4140625 -106.25 500 -106.25 c 0
 275.5859375 -106.25 93.75 75.5859375 93.75 300 c 0
 93.75 524.4140625 275.5859375 706.25 500 706.25 c 1
EndSplineSet
Ligature2: "'liga' Standard Ligatures lookup 0-1" r a d i o underscore b u t t o n underscore o f f
EndChar

StartChar: skip_backward
Encoding: 85 983252 85
Width: 1000
Flags: H
LayerCount: 2
Fore
SplineSet
341.796875 604.6875 m 2
 341.796875 335.546875 l 1
 788.8671875 608.3984375 l 2
 799.21875 614.453125 812.5 607.03125 812.5 594.921875 c 2
 812.5 5.078125 l 2
 812.5 -7.03125 799.4140625 -14.453125 788.8671875 -8.3984375 c 2
 341.796875 264.453125 l 1
 341.796875 -4.6875 l 2
 341.796875 -8.984375 338.28125 -12.5 333.984375 -12.5 c 2
 195.3125 -12.5 l 2
 191.015625 -12.5 187.5 -8.984375 187.5 -4.6875 c 2
 187.5 604.6875 l 2
 187.5 608.984375 191.015625 612.5 195.3125 612.5 c 2
 333.984375 612.5 l 2
 338.28125 612.5 341.796875 608.984375 341.796875 604.6875 c 2
EndSplineSet
Ligature2: "'liga' Standard Ligatures lookup 0-1" s k i p underscore b a c k w a r d
EndChar

StartChar: skip_forward
Encoding: 86 983253 86
Width: 1000
Flags: H
LayerCount: 2
Fore
SplineSet
658.203125 604.6875 m 2
 658.203125 608.984375 661.71875 612.5 666.015625 612.5 c 2
 804.6875 612.5 l 2
 808.984375 612.5 812.5 608.984375 812.5 604.6875 c 2
 812.5 -4.6875 l 2
 812.5 -8.984375 808.984375 -12.5 804.6875 -12.5 c 2
 666.015625 -12.5 l 2
 661.71875 -12.5 658.203125 -8.984375 658.203125 -4.6875 c 2
 658.203125 264.453125 l 1
 211.1328125 -8.3984375 l 2
 200.5859375 -14.453125 187.5 -7.03125 187.5 5.078125 c 2
 187.5 594.921875 l 2
 187.5 607.03125 200.5859375 614.453125 211.1328125 608.3984375 c 2
 658.203125 335.546875 l 1
 658.203125 604.6875 l 2
EndSplineSet
Ligature2: "'liga' Standard Ligatures lookup 0-1" s k i p underscore f o r w a r d
LCarets2: 11 0 0 0 0 0 0 0 0 0 0 0
EndChar

StartChar: rewind
Encoding: 87 983254 87
Width: 1000
Flags: H
LayerCount: 2
Fore
SplineSet
70.1171875 313.0859375 m 2
 476.5625 547.8515625 l 2
 487.109375 553.90625 500.5859375 546.6796875 500.5859375 534.765625 c 2
 500.5859375 309.765625 l 1
 913.28125 547.8515625 l 2
 923.828125 553.90625 937.3046875 546.6796875 937.3046875 534.765625 c 2
 937.3046875 65.4296875 l 2
 937.3046875 53.515625 923.828125 46.2890625 913.28125 52.34375 c 2
 500.78125 290.234375 l 1
 500.78125 65.234375 l 2
 500.78125 53.3203125 487.3046875 46.09375 476.7578125 52.1484375 c 2
 70.1171875 286.9140625 l 2
 59.9609375 292.7734375 59.9609375 307.2265625 70.1171875 313.0859375 c 2
EndSplineSet
Ligature2: "'liga' Standard Ligatures lookup 0-1" r e w i n d
EndChar

StartChar: fastforward
Encoding: 88 983255 88
Width: 1000
Flags: H
LayerCount: 2
Fore
SplineSet
929.8828125 313.0859375 m 2
 940.0390625 307.2265625 940.0390625 292.7734375 929.6875 286.9140625 c 2
 523.2421875 52.1484375 l 2
 512.6953125 46.09375 499.21875 53.3203125 499.21875 65.234375 c 2
 499.21875 290.234375 l 1
 86.5234375 52.34375 l 2
 75.9765625 46.2890625 62.5 53.515625 62.5 65.4296875 c 2
 62.5 534.765625 l 2
 62.5 546.6796875 75.9765625 553.90625 86.5234375 547.8515625 c 2
 499.4140625 309.765625 l 1
 499.4140625 534.765625 l 2
 499.4140625 546.6796875 512.890625 553.90625 523.4375 547.8515625 c 2
 929.8828125 313.0859375 l 2
EndSplineSet
Ligature2: "'liga' Standard Ligatures lookup 0-1" f a s t f o r w a r d
EndChar

StartChar: pause
Encoding: 89 983256 89
Width: 1000
Flags: H
LayerCount: 2
Fore
SplineSet
390.4296875 -12.5 m 2
 265.8203125 -12.5 l 2
 257.03125 -12.5 250 -5.46875 250 3.125 c 2
 250 596.875 l 2
 250 605.46875 257.03125 612.5 265.8203125 612.5 c 2
 390.4296875 612.5 l 2
 399.21875 612.5 406.25 605.46875 406.25 596.875 c 2
 406.25 3.125 l 2
 406.25 -5.46875 399.21875 -12.5 390.4296875 -12.5 c 2
734.1796875 -12.5 m 2
 609.5703125 -12.5 l 2
 600.78125 -12.5 593.75 -5.46875 593.75 3.125 c 2
 593.75 596.875 l 2
 593.75 605.46875 600.78125 612.5 609.5703125 612.5 c 2
 734.1796875 612.5 l 2
 742.96875 612.5 750 605.46875 750 596.875 c 2
 750 3.125 l 2
 750 -5.46875 742.96875 -12.5 734.1796875 -12.5 c 2
EndSplineSet
Ligature2: "'liga' Standard Ligatures lookup 0-1" p a u s e
EndChar

StartChar: play
Encoding: 90 983257 90
Width: 1000
Flags: H
LayerCount: 2
Fore
SplineSet
250 596.2890625 m 2
 250 608.7890625 262.6953125 616.6015625 272.8515625 610.15625 c 2
 742.578125 313.8671875 l 2
 752.5390625 307.6171875 752.5390625 292.1875 742.578125 285.9375 c 2
 272.8515625 -10.3515625 l 2
 262.6953125 -16.6015625 250 -8.7890625 250 3.7109375 c 2
 250 596.2890625 l 2
EndSplineSet
Ligature2: "'liga' Standard Ligatures lookup 0-1" p l a y
EndChar

StartChar: stop
Encoding: 91 983258 91
Width: 1000
Flags: H
LayerCount: 2
Fore
SplineSet
757.8125 -12.5 m 2
 242.1875 -12.5 l 2
 212.109375 -12.5 187.5 12.109375 187.5 42.1875 c 2
 187.5 557.8125 l 2
 187.5 587.890625 212.109375 612.5 242.1875 612.5 c 2
 757.8125 612.5 l 2
 787.890625 612.5 812.5 587.890625 812.5 557.8125 c 2
 812.5 42.1875 l 2
 812.5 12.109375 787.890625 -12.5 757.8125 -12.5 c 2
EndSplineSet
Ligature2: "'liga' Standard Ligatures lookup 0-1" s t o p
EndChar

StartChar: shuffle
Encoding: 92 983259 92
Width: 1000
Flags: H
LayerCount: 2
Fore
SplineSet
792.7734375 237.3046875 m 2
 862.3046875 167.96875 l 2
 870.5078125 159.9609375 875 149.21875 875 137.6953125 c 0
 875 126.171875 870.5078125 115.4296875 862.3046875 107.421875 c 2
 796.6796875 42.1875 l 2
 791.40625 36.9140625 784.5703125 34.1796875 777.34375 34.1796875 c 0
 770.1171875 34.1796875 763.0859375 37.109375 758.0078125 42.1875 c 0
 752.9296875 47.4609375 750 54.296875 750 61.5234375 c 0
 750 68.9453125 752.734375 75.78125 758.0078125 80.859375 c 2
 789.84375 112.5 l 1
 625 112.5 l 2
 616.9921875 112.5 609.375 116.015625 604.1015625 122.265625 c 2
 603.90625 122.4609375 l 1
 500 252.9296875 l 1
 396.09375 122.4609375 l 1
 395.8984375 122.265625 l 2
 390.625 116.015625 383.0078125 112.5 375 112.5 c 2
 152.34375 112.5 l 2
 137.3046875 112.5 125 124.8046875 125 139.84375 c 0
 125 154.8828125 137.3046875 167.1875 152.34375 167.1875 c 2
 362.109375 167.1875 l 1
 464.6484375 296.09375 l 1
 362.109375 425 l 1
 152.34375 425 l 2
 137.3046875 425 125 437.3046875 125 452.34375 c 0
 125 467.3828125 137.3046875 479.6875 152.34375 479.6875 c 2
 375 479.6875 l 2
 383.0078125 479.6875 391.015625 475.9765625 396.09375 469.921875 c 2
 396.2890625 469.7265625 l 1
 638.4765625 166.9921875 l 1
 785.9375 166.9921875 l 1
 754.1015625 198.6328125 l 2
 749.0234375 203.90625 746.09375 210.7421875 746.09375 217.96875 c 0
 746.09375 225.1953125 748.828125 232.2265625 754.1015625 237.3046875 c 0
 759.375 242.578125 766.2109375 245.3125 773.4375 245.3125 c 0
 780.6640625 245.3125 787.6953125 242.3828125 792.7734375 237.3046875 c 2
545.703125 340.234375 m 2
 525.390625 364.2578125 l 2
 521.6796875 368.5546875 521.6796875 374.8046875 525.1953125 379.1015625 c 2
 603.90625 477.1484375 l 1
 604.1015625 477.34375 l 2
 609.375 483.59375 616.9921875 487.109375 625 487.109375 c 2
 789.84375 487.109375 l 1
 758.0078125 518.75 l 2
 752.9296875 524.0234375 750 530.859375 750 538.0859375 c 0
 750 545.3125 752.734375 552.34375 758.0078125 557.421875 c 0
 763.28125 562.6953125 770.1171875 565.4296875 777.34375 565.4296875 c 0
 784.5703125 565.4296875 791.6015625 562.5 796.6796875 557.421875 c 2
 862.3046875 492.1875 l 2
 870.5078125 484.1796875 875 473.4375 875 461.9140625 c 0
 875 450.5859375 870.5078125 439.6484375 862.3046875 431.640625 c 2
 792.7734375 362.5 l 2
 787.5 357.2265625 780.6640625 354.4921875 773.4375 354.4921875 c 0
 766.2109375 354.4921875 759.1796875 357.421875 754.1015625 362.5 c 0
 749.0234375 367.7734375 746.09375 374.609375 746.09375 381.8359375 c 0
 746.09375 389.2578125 748.828125 396.09375 754.1015625 401.171875 c 2
 785.9375 432.8125 l 1
 637.890625 432.8125 l 1
 563.8671875 340.4296875 l 2
 561.71875 337.6953125 558.3984375 336.1328125 554.8828125 336.1328125 c 0
 554.6875 336.1328125 554.6875 336.1328125 554.6875 336.1328125 c 2
 551.171875 336.1328125 547.8515625 337.5 545.703125 340.234375 c 2
EndSplineSet
Ligature2: "'liga' Standard Ligatures lookup 0-1" s h u f f l e
EndChar

StartChar: repeat
Encoding: 93 983260 93
Width: 1000
Flags: H
LayerCount: 2
Fore
SplineSet
657.421875 492.3828125 m 2
 665.4296875 484.375 669.921875 473.6328125 670.1171875 462.109375 c 0
 670.1171875 450.78125 665.625 439.84375 657.421875 431.8359375 c 2
 587.890625 362.6953125 l 2
 582.6171875 357.421875 575.78125 354.6875 568.5546875 354.6875 c 0
 561.328125 354.6875 554.296875 357.6171875 549.21875 362.6953125 c 0
 543.359375 368.5546875 540.4296875 376.5625 541.2109375 384.765625 c 0
 541.796875 391.2109375 544.921875 397.0703125 549.609375 401.7578125 c 2
 580.859375 432.8125 l 1
 277.34375 432.8125 l 2
 251.3671875 432.8125 226.953125 422.65625 208.3984375 404.1015625 c 0
 189.84375 385.546875 179.6875 361.1328125 179.6875 335.15625 c 2
 179.6875 303.90625 l 2
 179.6875 288.8671875 167.3828125 276.5625 152.34375 276.5625 c 1
 152.34375 276.5625 l 1
 137.3046875 276.5625 125 288.8671875 125 303.90625 c 2
 125 335.15625 l 2
 125 375.78125 140.8203125 413.8671875 169.7265625 442.578125 c 0
 198.6328125 471.484375 236.71875 487.3046875 277.34375 487.3046875 c 2
 584.765625 487.3046875 l 1
 553.515625 518.359375 l 2
 548.828125 523.2421875 545.5078125 529.4921875 545.1171875 536.1328125 c 0
 544.3359375 546.484375 549.21875 556.0546875 558.3984375 561.71875 c 0
 560.546875 563.0859375 562.890625 564.0625 565.234375 564.6484375 c 0
 575.1953125 567.1875 584.9609375 564.453125 591.796875 557.6171875 c 2
 657.421875 492.3828125 l 2
847.65625 323.4375 m 1
 862.6953125 323.4375 875 311.1328125 875 296.484375 c 2
 875 265.234375 l 2
 875 181.25 806.640625 112.890625 722.65625 112.890625 c 2
 415.234375 112.890625 l 1
 446.484375 81.8359375 l 2
 451.171875 76.953125 454.4921875 70.703125 454.8828125 64.0625 c 0
 455.6640625 53.7109375 450.78125 44.140625 441.6015625 38.4765625 c 0
 439.453125 37.109375 437.109375 36.1328125 434.765625 35.546875 c 0
 424.8046875 33.0078125 415.0390625 35.7421875 408.203125 42.578125 c 2
 342.578125 107.8125 l 2
 334.375 115.8203125 329.8828125 126.5625 329.8828125 138.0859375 c 0
 329.8828125 149.4140625 334.375 160.3515625 342.578125 168.359375 c 2
 412.109375 237.5 l 2
 417.3828125 242.7734375 424.21875 245.5078125 431.4453125 245.5078125 c 0
 438.671875 245.5078125 445.703125 242.578125 450.78125 237.5 c 0
 456.640625 231.640625 459.5703125 223.6328125 458.7890625 215.4296875 c 0
 458.203125 208.7890625 455.078125 202.9296875 450.390625 198.2421875 c 2
 419.140625 167.1875 l 1
 722.65625 167.1875 l 2
 748.6328125 167.1875 773.046875 177.34375 791.6015625 195.8984375 c 0
 810.15625 214.453125 820.3125 238.8671875 820.3125 264.84375 c 2
 820.3125 296.09375 l 2
 820.3125 311.1328125 832.6171875 323.4375 847.65625 323.4375 c 1
 847.65625 323.4375 l 1
EndSplineSet
Ligature2: "'liga' Standard Ligatures lookup 0-1" r e p e a t
EndChar

StartChar: cellular_bar_1
Encoding: 94 983297 94
Width: 1000
Flags: HW
LayerCount: 2
Fore
SplineSet
164 -52 m 2
 68 -52 l 2
 41.5078125 -52 20 -30.4921875 20 -4 c 2
 20 188 l 2
 20 214.4921875 41.5078125 236 68 236 c 2
 164 236 l 2
 190.4921875 236 212 214.4921875 212 188 c 2
 212 -4 l 2
 212 -30.4921875 190.4921875 -52 164 -52 c 2
EndSplineSet
LCarets2: 13 0 0 0 0 0 0 0 0 0 0 0 0 0
Ligature2: "'liga' Standard Ligatures lookup 0-1" c e l l u l a r underscore b a r underscore one
Ligature2: "'liga' Standard Ligatures lookup 0-1" c e l l u l a r underscore s i g n a l underscore zero one
Ligature2: "'liga' Standard Ligatures lookup 0-1" c e l l u l a r underscore s i g n a l underscore zero two
Ligature2: "'liga' Standard Ligatures lookup 0-1" c e l l u l a r underscore s i g n a l underscore zero three
Ligature2: "'liga' Standard Ligatures lookup 0-1" c e l l u l a r underscore s i g n a l underscore zero four
Ligature2: "'liga' Standard Ligatures lookup 0-1" c e l l u l a r underscore s i g n a l underscore zero five
Ligature2: "'liga' Standard Ligatures lookup 0-1" c e l l u l a r underscore s i g n a l underscore zero six
Ligature2: "'liga' Standard Ligatures lookup 0-1" c e l l u l a r underscore s i g n a l underscore zero seven
Ligature2: "'liga' Standard Ligatures lookup 0-1" c e l l u l a r underscore s i g n a l underscore zero eight
Ligature2: "'liga' Standard Ligatures lookup 0-1" c e l l u l a r underscore s i g n a l underscore zero nine
Ligature2: "'liga' Standard Ligatures lookup 0-1" c e l l u l a r underscore s i g n a l underscore one
Ligature2: "'liga' Standard Ligatures lookup 0-1" c e l l u l a r underscore s i g n a l underscore two
Ligature2: "'liga' Standard Ligatures lookup 0-1" c e l l u l a r underscore s i g n a l underscore three
Ligature2: "'liga' Standard Ligatures lookup 0-1" c e l l u l a r underscore s i g n a l underscore four
Ligature2: "'liga' Standard Ligatures lookup 0-1" c e l l u l a r underscore s i g n a l underscore five
Ligature2: "'liga' Standard Ligatures lookup 0-1" c e l l u l a r underscore s i g n a l underscore six
Ligature2: "'liga' Standard Ligatures lookup 0-1" c e l l u l a r underscore s i g n a l underscore seven
Ligature2: "'liga' Standard Ligatures lookup 0-1" c e l l u l a r underscore s i g n a l underscore eight
Ligature2: "'liga' Standard Ligatures lookup 0-1" c e l l u l a r underscore s i g n a l underscore nine
Ligature2: "'liga' Standard Ligatures lookup 0-1" c e l l u l a r underscore s i g n a l underscore one zero
Ligature2: "'liga' Standard Ligatures lookup 0-1" c e l l u l a r underscore s i g n a l underscore one one
Ligature2: "'liga' Standard Ligatures lookup 0-1" c e l l u l a r underscore s i g n a l underscore one two
Ligature2: "'liga' Standard Ligatures lookup 0-1" c e l l u l a r underscore s i g n a l underscore one three
Ligature2: "'liga' Standard Ligatures lookup 0-1" c e l l u l a r underscore s i g n a l underscore one four
Ligature2: "'liga' Standard Ligatures lookup 0-1" c e l l u l a r underscore s i g n a l underscore one five
Ligature2: "'liga' Standard Ligatures lookup 0-1" c e l l u l a r underscore s i g n a l underscore one six
Ligature2: "'liga' Standard Ligatures lookup 0-1" c e l l u l a r underscore s i g n a l underscore one seven
Ligature2: "'liga' Standard Ligatures lookup 0-1" c e l l u l a r underscore s i g n a l underscore one eight
Ligature2: "'liga' Standard Ligatures lookup 0-1" c e l l u l a r underscore s i g n a l underscore one nine
Ligature2: "'liga' Standard Ligatures lookup 0-1" c e l l u l a r underscore s i g n a l underscore two zero
Ligature2: "'liga' Standard Ligatures lookup 0-1" c e l l u l a r underscore s i g n a l underscore two one
Ligature2: "'liga' Standard Ligatures lookup 0-1" c e l l u l a r underscore s i g n a l underscore two two
Ligature2: "'liga' Standard Ligatures lookup 0-1" c e l l u l a r underscore s i g n a l underscore two three
Ligature2: "'liga' Standard Ligatures lookup 0-1" c e l l u l a r underscore s i g n a l underscore two four
Ligature2: "'liga' Standard Ligatures lookup 0-1" c e l l u l a r underscore s i g n a l underscore two five
EndChar

StartChar: cellular_bar_2
Encoding: 95 983298 95
Width: 1000
Flags: H
LayerCount: 2
Fore
SplineSet
420 -52 m 2
 324 -52 l 2
 297.5078125 -52 276 -30.4921875 276 -4 c 2
 276 316 l 2
 276 342.4921875 297.5078125 364 324 364 c 2
 420 364 l 2
 446.4921875 364 468 342.4921875 468 316 c 2
 468 -4 l 2
 468 -30.4921875 446.4921875 -52 420 -52 c 2
164 -52 m 2
 68 -52 l 2
 41.5078125 -52 20 -30.4921875 20 -4 c 2
 20 188 l 2
 20 214.4921875 41.5078125 236 68 236 c 2
 164 236 l 2
 190.4921875 236 212 214.4921875 212 188 c 2
 212 -4 l 2
 212 -30.4921875 190.4921875 -52 164 -52 c 2
EndSplineSet
LCarets2: 13 0 0 0 0 0 0 0 0 0 0 0 0 0
Ligature2: "'liga' Standard Ligatures lookup 0-1" c e l l u l a r underscore b a r underscore two
Ligature2: "'liga' Standard Ligatures lookup 0-1" c e l l u l a r underscore s i g n a l underscore two six
Ligature2: "'liga' Standard Ligatures lookup 0-1" c e l l u l a r underscore s i g n a l underscore two seven
Ligature2: "'liga' Standard Ligatures lookup 0-1" c e l l u l a r underscore s i g n a l underscore two eight
Ligature2: "'liga' Standard Ligatures lookup 0-1" c e l l u l a r underscore s i g n a l underscore two nine
Ligature2: "'liga' Standard Ligatures lookup 0-1" c e l l u l a r underscore s i g n a l underscore three zero
Ligature2: "'liga' Standard Ligatures lookup 0-1" c e l l u l a r underscore s i g n a l underscore three one
Ligature2: "'liga' Standard Ligatures lookup 0-1" c e l l u l a r underscore s i g n a l underscore three two
Ligature2: "'liga' Standard Ligatures lookup 0-1" c e l l u l a r underscore s i g n a l underscore three three
Ligature2: "'liga' Standard Ligatures lookup 0-1" c e l l u l a r underscore s i g n a l underscore three four
Ligature2: "'liga' Standard Ligatures lookup 0-1" c e l l u l a r underscore s i g n a l underscore three five
Ligature2: "'liga' Standard Ligatures lookup 0-1" c e l l u l a r underscore s i g n a l underscore three six
Ligature2: "'liga' Standard Ligatures lookup 0-1" c e l l u l a r underscore s i g n a l underscore three seven
Ligature2: "'liga' Standard Ligatures lookup 0-1" c e l l u l a r underscore s i g n a l underscore three eight
Ligature2: "'liga' Standard Ligatures lookup 0-1" c e l l u l a r underscore s i g n a l underscore three nine
Ligature2: "'liga' Standard Ligatures lookup 0-1" c e l l u l a r underscore s i g n a l underscore four zero
Ligature2: "'liga' Standard Ligatures lookup 0-1" c e l l u l a r underscore s i g n a l underscore four one
Ligature2: "'liga' Standard Ligatures lookup 0-1" c e l l u l a r underscore s i g n a l underscore four two
Ligature2: "'liga' Standard Ligatures lookup 0-1" c e l l u l a r underscore s i g n a l underscore four three
Ligature2: "'liga' Standard Ligatures lookup 0-1" c e l l u l a r underscore s i g n a l underscore four four
Ligature2: "'liga' Standard Ligatures lookup 0-1" c e l l u l a r underscore s i g n a l underscore four five
Ligature2: "'liga' Standard Ligatures lookup 0-1" c e l l u l a r underscore s i g n a l underscore four six
Ligature2: "'liga' Standard Ligatures lookup 0-1" c e l l u l a r underscore s i g n a l underscore four seven
Ligature2: "'liga' Standard Ligatures lookup 0-1" c e l l u l a r underscore s i g n a l underscore four eight
Ligature2: "'liga' Standard Ligatures lookup 0-1" c e l l u l a r underscore s i g n a l underscore four nine
Ligature2: "'liga' Standard Ligatures lookup 0-1" c e l l u l a r underscore s i g n a l underscore five zero
EndChar

StartChar: cellular_bar_3
Encoding: 96 983299 96
Width: 1000
Flags: H
LayerCount: 2
Fore
SplineSet
676 -52 m 2
 580 -52 l 2
 553.5078125 -52 532 -30.4921875 532 -4 c 2
 532 444 l 2
 532 470.4921875 553.5078125 492 580 492 c 2
 676 492 l 2
 702.4921875 492 724 470.4921875 724 444 c 2
 724 -4 l 2
 724 -30.4921875 702.4921875 -52 676 -52 c 2
420 -52 m 2
 324 -52 l 2
 297.5078125 -52 276 -30.4921875 276 -4 c 2
 276 316 l 2
 276 342.4921875 297.5078125 364 324 364 c 2
 420 364 l 2
 446.4921875 364 468 342.4921875 468 316 c 2
 468 -4 l 2
 468 -30.4921875 446.4921875 -52 420 -52 c 2
164 -52 m 2
 68 -52 l 2
 41.5078125 -52 20 -30.4921875 20 -4 c 2
 20 188 l 2
 20 214.4921875 41.5078125 236 68 236 c 2
 164 236 l 2
 190.4921875 236 212 214.4921875 212 188 c 2
 212 -4 l 2
 212 -30.4921875 190.4921875 -52 164 -52 c 2
EndSplineSet
LCarets2: 13 0 0 0 0 0 0 0 0 0 0 0 0 0
Ligature2: "'liga' Standard Ligatures lookup 0-1" c e l l u l a r underscore b a r underscore three
Ligature2: "'liga' Standard Ligatures lookup 0-1" c e l l u l a r underscore s i g n a l underscore five one
Ligature2: "'liga' Standard Ligatures lookup 0-1" c e l l u l a r underscore s i g n a l underscore five two
Ligature2: "'liga' Standard Ligatures lookup 0-1" c e l l u l a r underscore s i g n a l underscore five three
Ligature2: "'liga' Standard Ligatures lookup 0-1" c e l l u l a r underscore s i g n a l underscore five four
Ligature2: "'liga' Standard Ligatures lookup 0-1" c e l l u l a r underscore s i g n a l underscore five five
Ligature2: "'liga' Standard Ligatures lookup 0-1" c e l l u l a r underscore s i g n a l underscore five six
Ligature2: "'liga' Standard Ligatures lookup 0-1" c e l l u l a r underscore s i g n a l underscore five seven
Ligature2: "'liga' Standard Ligatures lookup 0-1" c e l l u l a r underscore s i g n a l underscore five eight
Ligature2: "'liga' Standard Ligatures lookup 0-1" c e l l u l a r underscore s i g n a l underscore five nine
Ligature2: "'liga' Standard Ligatures lookup 0-1" c e l l u l a r underscore s i g n a l underscore six zero
Ligature2: "'liga' Standard Ligatures lookup 0-1" c e l l u l a r underscore s i g n a l underscore six one
Ligature2: "'liga' Standard Ligatures lookup 0-1" c e l l u l a r underscore s i g n a l underscore six two
Ligature2: "'liga' Standard Ligatures lookup 0-1" c e l l u l a r underscore s i g n a l underscore six three
Ligature2: "'liga' Standard Ligatures lookup 0-1" c e l l u l a r underscore s i g n a l underscore six four
Ligature2: "'liga' Standard Ligatures lookup 0-1" c e l l u l a r underscore s i g n a l underscore six five
Ligature2: "'liga' Standard Ligatures lookup 0-1" c e l l u l a r underscore s i g n a l underscore six six
Ligature2: "'liga' Standard Ligatures lookup 0-1" c e l l u l a r underscore s i g n a l underscore six seven
Ligature2: "'liga' Standard Ligatures lookup 0-1" c e l l u l a r underscore s i g n a l underscore six eight
Ligature2: "'liga' Standard Ligatures lookup 0-1" c e l l u l a r underscore s i g n a l underscore six nine
Ligature2: "'liga' Standard Ligatures lookup 0-1" c e l l u l a r underscore s i g n a l underscore seven zero
Ligature2: "'liga' Standard Ligatures lookup 0-1" c e l l u l a r underscore s i g n a l underscore seven one
Ligature2: "'liga' Standard Ligatures lookup 0-1" c e l l u l a r underscore s i g n a l underscore seven two
Ligature2: "'liga' Standard Ligatures lookup 0-1" c e l l u l a r underscore s i g n a l underscore seven three
Ligature2: "'liga' Standard Ligatures lookup 0-1" c e l l u l a r underscore s i g n a l underscore seven four
Ligature2: "'liga' Standard Ligatures lookup 0-1" c e l l u l a r underscore s i g n a l underscore seven five
EndChar

StartChar: cellular_bar_4
Encoding: 97 983300 97
Width: 1000
Flags: H
LayerCount: 2
Fore
SplineSet
932 -52 m 2
 836 -52 l 2
 809.5078125 -52 788 -30.4921875 788 -4 c 2
 788 604 l 2
 788 630.4921875 809.5078125 652 836 652 c 2
 932 652 l 2
 958.4921875 652 980 630.4921875 980 604 c 2
 980 -4 l 2
 980 -30.4921875 958.4921875 -52 932 -52 c 2
676 -52 m 2
 580 -52 l 2
 553.5078125 -52 532 -30.4921875 532 -4 c 2
 532 444 l 2
 532 470.4921875 553.5078125 492 580 492 c 2
 676 492 l 2
 702.4921875 492 724 470.4921875 724 444 c 2
 724 -4 l 2
 724 -30.4921875 702.4921875 -52 676 -52 c 2
420 -52 m 2
 324 -52 l 2
 297.5078125 -52 276 -30.4921875 276 -4 c 2
 276 316 l 2
 276 342.4921875 297.5078125 364 324 364 c 2
 420 364 l 2
 446.4921875 364 468 342.4921875 468 316 c 2
 468 -4 l 2
 468 -30.4921875 446.4921875 -52 420 -52 c 2
164 -52 m 2
 68 -52 l 2
 41.5078125 -52 20 -30.4921875 20 -4 c 2
 20 188 l 2
 20 214.4921875 41.5078125 236 68 236 c 2
 164 236 l 2
 190.4921875 236 212 214.4921875 212 188 c 2
 212 -4 l 2
 212 -30.4921875 190.4921875 -52 164 -52 c 2
EndSplineSet
LCarets2: 6 0 0 0 0 0 0
Ligature2: "'liga' Standard Ligatures lookup 0-1" c e l l u l a r underscore b a r underscore four
Ligature2: "'liga' Standard Ligatures lookup 0-1" c e l l u l a r underscore s i g n a l underscore seven six
Ligature2: "'liga' Standard Ligatures lookup 0-1" c e l l u l a r underscore s i g n a l underscore seven seven
Ligature2: "'liga' Standard Ligatures lookup 0-1" c e l l u l a r underscore s i g n a l underscore seven eight
Ligature2: "'liga' Standard Ligatures lookup 0-1" c e l l u l a r underscore s i g n a l underscore seven nine
Ligature2: "'liga' Standard Ligatures lookup 0-1" c e l l u l a r underscore s i g n a l underscore eight zero
Ligature2: "'liga' Standard Ligatures lookup 0-1" c e l l u l a r underscore s i g n a l underscore eight one
Ligature2: "'liga' Standard Ligatures lookup 0-1" c e l l u l a r underscore s i g n a l underscore eight two
Ligature2: "'liga' Standard Ligatures lookup 0-1" c e l l u l a r underscore s i g n a l underscore eight three
Ligature2: "'liga' Standard Ligatures lookup 0-1" c e l l u l a r underscore s i g n a l underscore eight four
Ligature2: "'liga' Standard Ligatures lookup 0-1" c e l l u l a r underscore s i g n a l underscore eight five
Ligature2: "'liga' Standard Ligatures lookup 0-1" c e l l u l a r underscore s i g n a l underscore eight six
Ligature2: "'liga' Standard Ligatures lookup 0-1" c e l l u l a r underscore s i g n a l underscore eight seven
Ligature2: "'liga' Standard Ligatures lookup 0-1" c e l l u l a r underscore s i g n a l underscore eight eight
Ligature2: "'liga' Standard Ligatures lookup 0-1" c e l l u l a r underscore s i g n a l underscore eight nine
Ligature2: "'liga' Standard Ligatures lookup 0-1" c e l l u l a r underscore s i g n a l underscore nine zero
Ligature2: "'liga' Standard Ligatures lookup 0-1" c e l l u l a r underscore s i g n a l underscore nine one
Ligature2: "'liga' Standard Ligatures lookup 0-1" c e l l u l a r underscore s i g n a l underscore nine two
Ligature2: "'liga' Standard Ligatures lookup 0-1" c e l l u l a r underscore s i g n a l underscore nine three
Ligature2: "'liga' Standard Ligatures lookup 0-1" c e l l u l a r underscore s i g n a l underscore nine four
Ligature2: "'liga' Standard Ligatures lookup 0-1" c e l l u l a r underscore s i g n a l underscore nine five
Ligature2: "'liga' Standard Ligatures lookup 0-1" c e l l u l a r underscore s i g n a l underscore nine six
Ligature2: "'liga' Standard Ligatures lookup 0-1" c e l l u l a r underscore s i g n a l underscore nine seven
Ligature2: "'liga' Standard Ligatures lookup 0-1" c e l l u l a r underscore s i g n a l underscore nine eight
Ligature2: "'liga' Standard Ligatures lookup 0-1" c e l l u l a r underscore s i g n a l underscore nine nine
Ligature2: "'liga' Standard Ligatures lookup 0-1" c e l l u l a r underscore s i g n a l underscore one zero zero
EndChar
